<svg xmlns="http://www.w3.org/2000/svg" version="1.1" xmlns:xlink="http://www.w3.org/1999/xlink" xmlns:svgjs="http://svgjs.dev/svgjs" width="500" height="500" preserveAspectRatio="none" viewBox="0 0 500 500"><g mask="url(&quot;#SvgjsMask1554&quot;)" fill="none"><rect width="500" height="500" x="0" y="0" fill="rgba(255, 200, 44, 1)"></rect><path d="M 0,27 C 33.4,45.8 100.2,123.2 167,121 C 233.8,118.8 267.4,12.8 334,16 C 400.6,19.2 466.8,112.8 500,137L500 500L0 500z" fill="rgba(255, 255, 255, 1)"></path><path d="M 0,184 C 25,198.6 75,244.8 125,257 C 175,269.2 200,236.4 250,245 C 300,253.6 325,302.8 375,300 C 425,297.2 475,244.8 500,231L500 500L0 500z" fill="rgba(255, 255, 255, 1)"></path><path d="M 0,468 C 33.4,452.6 100.2,394.8 167,391 C 233.8,387.2 267.4,456.6 334,449 C 400.6,441.4 466.8,372.2 500,353L500 500L0 500z" fill="rgba(255, 255, 255, 1)"></path></g><defs><mask id="SvgjsMask1554"><rect width="500" height="500" fill="#ffffff"></rect></mask></defs></svg>