<?xml version="1.0" encoding="UTF-8"?>
<svg version="1.1" xmlns="http://www.w3.org/2000/svg" width="424" height="176">
<path d="M0 0 C34.32 0 68.64 0 104 0 C104.63660174 14.0052383 105.14214451 27.8698745 105.09765625 41.8671875 C105.09578255 43.65178385 105.09436318 45.43638073 105.09336853 47.22097778 C105.08961807 51.83371496 105.07985534 56.44641875 105.06866455 61.05914307 C105.05828609 65.79984079 105.05383636 70.5405441 105.04882812 75.28125 C105.03822329 84.5208477 105.02124141 93.76042104 105 103 C101.37 103.33 97.74 103.66 94 104 C94.33 105.32 94.66 106.64 95 108 C95.33 107.67 95.66 107.34 96 107 C99 106.875 99 106.875 102 107 C103 108 103 108 103.0625 111.0625 C103.041875 112.031875 103.02125 113.00125 103 114 C99.41695412 115.69199389 97.7533606 116.10392959 94 115 C91.6670134 114.95977609 89.33293334 114.95679753 87 115 C85.45177857 115 83.90355339 114.9854239 82.35546875 114.96484375 C80.78732422 114.95130859 80.78732422 114.95130859 79.1875 114.9375 C78.14980469 114.92589844 77.11210937 114.91429687 76.04296875 114.90234375 C73.23165674 114.99256557 70.74362384 115.43119994 68 116 C66.66431979 115.67619874 65.33076989 115.34342449 64 115 C63.34 115.165 62.68 115.33 62 115.5 C59.62390805 116.09402299 58.34390805 115.58597701 56 115 C54.66431979 115.32380126 53.33076989 115.65657551 52 116 C50.515 115.505 50.515 115.505 49 115 C48.38125 115.165 47.7625 115.33 47.125 115.5 C44.48719714 116.1206595 42.6018854 115.65047135 40 115 C40 114.34 40 113.68 40 113 C38.68 113 37.36 113 36 113 C36 113.66 36 114.32 36 115 C35.01 115 34.02 115 33 115 C33.60990891 111.44219804 34.5783681 108.3171411 36 105 C32.41977267 103.87990424 29.10685518 103.90061118 25.37109375 103.9375 C24.08912109 103.94523437 22.80714844 103.95296875 21.48632812 103.9609375 C20.13671325 103.97337484 18.78710368 103.98640198 17.4375 104 C14.79031988 104.02660164 12.14339198 104.04651229 9.49609375 104.0625 C8.32232178 104.07410156 7.1485498 104.08570312 5.93920898 104.09765625 C3 104 3 104 0 103 C0 75.61 0 48.22 0 20 C-1.65 20.66 -3.3 21.32 -5 22 C-4.01 22.33 -3.02 22.66 -2 23 C-2 39.17 -2 55.34 -2 72 C-3.98 72 -5.96 72 -8 72 C-8.88556744 73.68973726 -8.88556744 73.68973726 -9 76 C-8.34 76.969375 -7.68 77.93875 -7 78.9375 C-5 82 -5 82 -6 87 C-10.95 87 -15.9 87 -21 87 C-21.1953125 80.9453125 -21.1953125 80.9453125 -21 79 C-20.01 78.01 -20.01 78.01 -19 77 C-22.89459074 76.78918149 -22.89459074 76.78918149 -26 78 C-26.33 78.66 -26.66 79.32 -27 80 C-27.66 80 -28.32 80 -29 80 C-29.33 82.31 -29.66 84.62 -30 87 C-34.29 87 -38.58 87 -43 87 C-43 85.68 -43 84.36 -43 83 C-40.69 83 -38.38 83 -36 83 C-35.71125 82.401875 -35.4225 81.80375 -35.125 81.1875 C-34 79 -34 79 -32 76 C-31.34 76 -30.68 76 -30 76 C-29.67 75.01 -29.34 74.02 -29 73 C-25.54707645 71.3998647 -22.68112623 70.92069598 -18.9375 71.0625 C-14.74010642 70.99587471 -13.38628761 70.25752507 -10 68 C-8.68 68 -7.36 68 -6 68 C-6 62.39 -6 56.78 -6 51 C-8.31 51 -10.62 51 -13 51 C-13 57.27 -13 63.54 -13 70 C-14.32 70 -15.64 70 -17 70 C-17 63.73 -17 57.46 -17 51 C-19.31 51 -21.62 51 -24 51 C-24 50.01 -24 49.02 -24 48 C-18.06 48 -12.12 48 -6 48 C-6.33 41.4 -6.66 34.8 -7 28 C-8.52625 28.495 -10.0525 28.99 -11.625 29.5 C-15.54515336 30.68606913 -18.87182809 31.32590831 -23 31 C-23 28.69 -23 26.38 -23 24 C-5.76595745 16 -5.76595745 16 0 16 C0 10.72 0 5.44 0 0 Z M-17 81 C-17 81.66 -17 82.32 -17 83 C-15.02 83 -13.04 83 -11 83 C-11 82.01 -11 81.02 -11 80 C-14.05270463 79.84188612 -14.05270463 79.84188612 -17 81 Z M39 104 C39.66 105.98 40.32 107.96 41 110 C41.66 109.34 42.32 108.68 43 108 C44.98821313 107.60235737 46.98944339 107.26224651 49 107 C49 108.65 49 110.3 49 112 C49.33 112 49.66 112 50 112 C50 110.35 50 108.7 50 107 C51.19625 107.165 52.3925 107.33 53.625 107.5 C56.26705808 107.83728401 58.69767121 108 61.375 108 C64 108 64 108 66 109 C66 108.34 66 107.68 66 107 C68.31 107 70.62 107 73 107 C73.495 107.99 73.495 107.99 74 109 C74 107.35 74 105.7 74 104 C56.45938638 102.47940798 56.45938638 102.47940798 39 104 Z M77 104 C77 106.31 77 108.62 77 111 C77.33 109.68 77.66 108.36 78 107 C80.31 107.33 82.62 107.66 85 108 C85.33 107.01 85.66 106.02 86 105 C86.99 105 87.98 105 89 105 C89 105.66 89 106.32 89 107 C89.66 107 90.32 107 91 107 C91 106.01 91 105.02 91 104 C86.38 104 81.76 104 77 104 Z M69 109 C69 110.32 69 111.64 69 113 C69.66 112.67 70.32 112.34 71 112 C70.67 111.01 70.34 110.02 70 109 C69.67 109 69.34 109 69 109 Z M89 109 C89 110.32 89 111.64 89 113 C89.66 113 90.32 113 91 113 C91 111.68 91 110.36 91 109 C90.34 109 89.68 109 89 109 Z M98 109 C98 110.32 98 111.64 98 113 C98.66 113 99.32 113 100 113 C99.67 111.68 99.34 110.36 99 109 C98.67 109 98.34 109 98 109 Z M60 110 C60 110.99 60 111.98 60 113 C60.99 112.67 61.98 112.34 63 112 C63 111.34 63 110.68 63 110 C62.01 110 61.02 110 60 110 Z " fill="#F9DA59" transform="translate(299,18)"/>
<path d="M0 0 C34.32 0 68.64 0 104 0 C104 0.33 104 0.66 104 1 C70.01 1 36.02 1 1 1 C1 5.62 1 10.24 1 15 C4.4803865 13.85776518 7.95931515 12.71140269 11.4375 11.5625 C12.43072266 11.23701172 13.42394531 10.91152344 14.44726562 10.57617188 C15.39150391 10.26357422 16.33574219 9.95097656 17.30859375 9.62890625 C18.18314209 9.34088135 19.05769043 9.05285645 19.95874023 8.75610352 C21.96448895 8.17466716 21.96448895 8.17466716 23 7 C29.27818716 7.35851534 34.29592577 9.66735079 39.9375 12.3125 C40.79279297 12.70373047 41.64808594 13.09496094 42.52929688 13.49804688 C46.53493597 15.34045753 50.50652268 17.23743572 54.4453125 19.21875 C57.27081973 20.63460857 60.06554873 21.84400405 63 23 C64 24 64 24 64.0625 27.0625 C64.041875 28.031875 64.02125 29.00125 64 30 C62.5608866 29.71640113 61.12374482 29.42278601 59.6875 29.125 C58.88699219 28.96257813 58.08648437 28.80015625 57.26171875 28.6328125 C55 28 55 28 52 26 C52 31.94 52 37.88 52 44 C44.13773796 47.36954087 44.13773796 47.36954087 41.17578125 48.31640625 C40.53962891 48.52330078 39.90347656 48.73019531 39.24804688 48.94335938 C38.60931641 49.14767578 37.97058594 49.35199219 37.3125 49.5625 C32.42142625 51.10107448 32.42142625 51.10107448 27.73046875 53.15234375 C26 54 26 54 23 54 C23 54.66 23 55.32 23 56 C30.15162654 53.93364889 37.08137649 51.5511218 44 48.8125 C52.46461676 46.51999963 59.42473081 49.07258151 67.51147461 51.7902832 C69.45381938 52.44298393 71.4009586 53.07929223 73.34960938 53.71289062 C82.83459453 56.83459453 82.83459453 56.83459453 84 58 C84.04080783 59.99958364 84.04254356 62.00045254 84 64 C81.36 63.67 78.72 63.34 76 63 C76 70.59 76 78.18 76 86 C80.29 86 84.58 86 89 86 C89 86.99 89 87.98 89 89 C80.75 89 72.5 89 64 89 C64 88.34 64 87.68 64 87 C58.06 87 52.12 87 46 87 C46 87.66 46 88.32 46 89 C43.85423363 89.02685938 41.70837355 89.04633088 39.5625 89.0625 C38.36753906 89.07410156 37.17257812 89.08570312 35.94140625 89.09765625 C33 89 33 89 32 88 C30.65984779 87.84417697 29.31241097 87.74955858 27.96484375 87.68359375 C27.15595703 87.64169922 26.34707031 87.59980469 25.51367188 87.55664062 C24.66353516 87.51732422 23.81339844 87.47800781 22.9375 87.4375 C21.65649414 87.37272461 21.65649414 87.37272461 20.34960938 87.30664062 C18.23327963 87.20023298 16.11666187 87.09958269 14 87 C14.495 85.02 14.495 85.02 15 83 C15 83.99 15 84.98 15 86 C31.17 86 47.34 86 64 86 C64.33 85.34 64.66 84.68 65 84 C67.64 84.33 70.28 84.66 73 85 C73 76.75 73 68.5 73 60 C73.99 59.67 74.98 59.34 76 59 C59.72569107 52.04546885 47.42282013 50.09251439 30.625 56.625 C27.35860674 57.86397675 24.45308218 58.56836473 21 59 C21 56.69 21 54.38 21 52 C25.26821354 50.49247107 29.53997809 48.99527041 33.8125 47.5 C35.02744141 47.07074219 36.24238281 46.64148438 37.49414062 46.19921875 C38.65751953 45.79316406 39.82089844 45.38710938 41.01953125 44.96875 C42.62985229 44.40317383 42.62985229 44.40317383 44.27270508 43.82617188 C47 43 47 43 50 43 C50 36.4 50 29.8 50 23 C54.60057086 23.92011417 57.79672559 25.10440566 62 27 C62 26.34 62 25.68 62 25 C60.16695312 24.45085938 60.16695312 24.45085938 58.296875 23.890625 C50.81488839 21.40053549 43.89269292 17.61153878 36.88671875 14.03125 C35.27990234 13.23460937 35.27990234 13.23460937 33.640625 12.421875 C32.67672852 11.93299805 31.71283203 11.44412109 30.71972656 10.94042969 C22.60538082 8.13464335 6.20351962 16.59882679 2 18 C1.67 45.72 1.34 73.44 1 102 C34.99 102 68.98 102 104 102 C104 75.6 104 49.2 104 22 C104.33 22 104.66 22 105 22 C105 48.73 105 75.46 105 103 C101.37 103.33 97.74 103.66 94 104 C94.33 105.32 94.66 106.64 95 108 C95.33 107.67 95.66 107.34 96 107 C99 106.875 99 106.875 102 107 C103 108 103 108 103.0625 111.0625 C103.041875 112.031875 103.02125 113.00125 103 114 C99.41695412 115.69199389 97.7533606 116.10392959 94 115 C91.6670134 114.95977609 89.33293334 114.95679753 87 115 C85.45177857 115 83.90355339 114.9854239 82.35546875 114.96484375 C80.78732422 114.95130859 80.78732422 114.95130859 79.1875 114.9375 C78.14980469 114.92589844 77.11210937 114.91429687 76.04296875 114.90234375 C73.23165674 114.99256557 70.74362384 115.43119994 68 116 C66.66431979 115.67619874 65.33076989 115.34342449 64 115 C63.34 115.165 62.68 115.33 62 115.5 C59.62390805 116.09402299 58.34390805 115.58597701 56 115 C54.66431979 115.32380126 53.33076989 115.65657551 52 116 C50.515 115.505 50.515 115.505 49 115 C48.38125 115.165 47.7625 115.33 47.125 115.5 C44.48719714 116.1206595 42.6018854 115.65047135 40 115 C40 114.34 40 113.68 40 113 C38.68 113 37.36 113 36 113 C36 113.66 36 114.32 36 115 C35.01 115 34.02 115 33 115 C33.60990891 111.44219804 34.5783681 108.3171411 36 105 C32.41977267 103.87990424 29.10685518 103.90061118 25.37109375 103.9375 C24.08912109 103.94523437 22.80714844 103.95296875 21.48632812 103.9609375 C20.13671325 103.97337484 18.78710368 103.98640198 17.4375 104 C14.79031988 104.02660164 12.14339198 104.04651229 9.49609375 104.0625 C8.32232178 104.07410156 7.1485498 104.08570312 5.93920898 104.09765625 C3 104 3 104 0 103 C0 75.61 0 48.22 0 20 C-1.65 20.66 -3.3 21.32 -5 22 C-4.01 22.33 -3.02 22.66 -2 23 C-2 39.17 -2 55.34 -2 72 C-3.98 72 -5.96 72 -8 72 C-8.88556744 73.68973726 -8.88556744 73.68973726 -9 76 C-8.34 76.969375 -7.68 77.93875 -7 78.9375 C-5 82 -5 82 -6 87 C-10.95 87 -15.9 87 -21 87 C-21.1953125 80.9453125 -21.1953125 80.9453125 -21 79 C-20.01 78.01 -20.01 78.01 -19 77 C-22.89459074 76.78918149 -22.89459074 76.78918149 -26 78 C-26.33 78.66 -26.66 79.32 -27 80 C-27.66 80 -28.32 80 -29 80 C-29.33 82.31 -29.66 84.62 -30 87 C-34.29 87 -38.58 87 -43 87 C-43 85.68 -43 84.36 -43 83 C-40.69 83 -38.38 83 -36 83 C-35.71125 82.401875 -35.4225 81.80375 -35.125 81.1875 C-34 79 -34 79 -32 76 C-31.34 76 -30.68 76 -30 76 C-29.67 75.01 -29.34 74.02 -29 73 C-25.54707645 71.3998647 -22.68112623 70.92069598 -18.9375 71.0625 C-14.74010642 70.99587471 -13.38628761 70.25752507 -10 68 C-8.68 68 -7.36 68 -6 68 C-6 62.39 -6 56.78 -6 51 C-8.31 51 -10.62 51 -13 51 C-13 57.27 -13 63.54 -13 70 C-14.32 70 -15.64 70 -17 70 C-17 63.73 -17 57.46 -17 51 C-19.31 51 -21.62 51 -24 51 C-24 50.01 -24 49.02 -24 48 C-18.06 48 -12.12 48 -6 48 C-6.33 41.4 -6.66 34.8 -7 28 C-8.52625 28.495 -10.0525 28.99 -11.625 29.5 C-15.54515336 30.68606913 -18.87182809 31.32590831 -23 31 C-23 28.69 -23 26.38 -23 24 C-5.76595745 16 -5.76595745 16 0 16 C0 10.72 0 5.44 0 0 Z M-17 81 C-17 81.66 -17 82.32 -17 83 C-15.02 83 -13.04 83 -11 83 C-11 82.01 -11 81.02 -11 80 C-14.05270463 79.84188612 -14.05270463 79.84188612 -17 81 Z M39 104 C39.66 105.98 40.32 107.96 41 110 C41.66 109.34 42.32 108.68 43 108 C44.98821313 107.60235737 46.98944339 107.26224651 49 107 C49 108.65 49 110.3 49 112 C49.33 112 49.66 112 50 112 C50 110.35 50 108.7 50 107 C51.19625 107.165 52.3925 107.33 53.625 107.5 C56.26705808 107.83728401 58.69767121 108 61.375 108 C64 108 64 108 66 109 C66 108.34 66 107.68 66 107 C68.31 107 70.62 107 73 107 C73.495 107.99 73.495 107.99 74 109 C74 107.35 74 105.7 74 104 C56.45938638 102.47940798 56.45938638 102.47940798 39 104 Z M77 104 C77 106.31 77 108.62 77 111 C77.33 109.68 77.66 108.36 78 107 C80.31 107.33 82.62 107.66 85 108 C85.33 107.01 85.66 106.02 86 105 C86.99 105 87.98 105 89 105 C89 105.66 89 106.32 89 107 C89.66 107 90.32 107 91 107 C91 106.01 91 105.02 91 104 C86.38 104 81.76 104 77 104 Z M69 109 C69 110.32 69 111.64 69 113 C69.66 112.67 70.32 112.34 71 112 C70.67 111.01 70.34 110.02 70 109 C69.67 109 69.34 109 69 109 Z M89 109 C89 110.32 89 111.64 89 113 C89.66 113 90.32 113 91 113 C91 111.68 91 110.36 91 109 C90.34 109 89.68 109 89 109 Z M98 109 C98 110.32 98 111.64 98 113 C98.66 113 99.32 113 100 113 C99.67 111.68 99.34 110.36 99 109 C98.67 109 98.34 109 98 109 Z M60 110 C60 110.99 60 111.98 60 113 C60.99 112.67 61.98 112.34 63 112 C63 111.34 63 110.68 63 110 C62.01 110 61.02 110 60 110 Z " fill="#2B2716" transform="translate(299,18)"/>
<path d="M0 0 C2.70552388 2.19823815 4.44778333 3.89556667 6 7 C6.51580907 13.18970889 5.9393572 15.95269859 2 21 C2 21.33 2 21.66 2 22 C2.64066406 21.89300781 3.28132813 21.78601563 3.94140625 21.67578125 C9.96536629 20.84086577 13.78580691 20.70122478 19 24 C21.44655009 27.70928562 22 29.52080453 22 34 C34.21 34.33 46.42 34.66 59 35 C59.66 32.69 60.32 30.38 61 28 C63.125 25.5625 63.125 25.5625 65 24 C65.99 24.66 66.98 25.32 68 26 C67.34 28.97 66.68 31.94 66 35 C67.98 35.495 67.98 35.495 70 36 C70 36.99 70 37.98 70 39 C67.69 39 65.38 39 63 39 C61.07528683 44.33835539 59.60108576 49.34979382 59 55 C60.32 55 61.64 55 63 55 C63.68707555 57.49064888 64 59.37886292 64 62 C65.175625 60.824375 65.175625 60.824375 66.375 59.625 C67.91666667 58.08333333 69.45833333 56.54166667 71 55 C71.99 55 72.98 55 74 55 C73.85060294 59.93010287 71.21427432 62.19384443 67.88671875 65.44921875 C64.278793 68.4147395 61.6627301 69.25904056 57 69 C56.01 71.31 55.02 73.62 54 76 C52.68 76 51.36 76 50 76 C50 73.36 50 70.72 50 68 C49.278125 68.99 48.55625 69.98 47.8125 71 C46.58203125 72.6875 46.58203125 72.6875 45 74 C42.32421875 74.1875 42.32421875 74.1875 40 74 C39.81548975 63.44191344 39.81548975 63.44191344 41 59 C38.62766389 59.03780298 38.62766389 59.03780298 36 60 C33.71760829 62.92321965 33.71760829 62.92321965 32 66 C31 67 31 67 27.9375 67.0625 C26.968125 67.041875 25.99875 67.02125 25 67 C24.34 65.68 23.68 64.36 23 63 C22.21625 63.515625 21.4325 64.03125 20.625 64.5625 C19.75875 65.036875 18.8925 65.51125 18 66 C17.34 65.67 16.68 65.34 16 65 C15.6903481 59.83913496 15.87177418 56.23824144 19 52 C22.6875 51.125 22.6875 51.125 26 51 C26.98248524 55.0527516 27.08159574 58.83861737 27 63 C31.44752504 59.29372914 33.13426788 55.75952094 35.0078125 50.3046875 C36.03891721 47.90960176 36.94469192 46.59035407 39 45 C41.1875 45.3125 41.1875 45.3125 43 46 C42.67 48.31 42.34 50.62 42 53 C43.65 53 45.3 53 47 53 C46.33333333 57.66666667 45.66666667 62.33333333 45 67 C45.48210937 66.13375 45.96421875 65.2675 46.4609375 64.375 C47.09257813 63.26125 47.72421875 62.1475 48.375 61 C49.00148438 59.88625 49.62796875 58.7725 50.2734375 57.625 C51.12808594 56.325625 51.12808594 56.325625 52 55 C52.66 55 53.32 55 54 55 C54.99 50.05 55.98 45.1 57 40 C44.79 39.67 32.58 39.34 20 39 C19.67 40.65 19.34 42.3 19 44 C16.17821416 49.7150093 12.83648481 54.79989477 8 59 C7.4225 59.5775 6.845 60.155 6.25 60.75 C2.75377244 62.69234865 -1.03076689 62.96934955 -5 63 C-5.99 62.505 -5.99 62.505 -7 62 C-7.84464056 65.37227237 -8.67366647 68.74819921 -9.5 72.125 C-9.73847656 73.07632813 -9.97695312 74.02765625 -10.22265625 75.0078125 C-11.37785933 79.76064801 -12.33216612 84.06733309 -12 89 C-13.98 89.99 -13.98 89.99 -16 91 C-17.06840331 86.97478821 -16.84842551 84.10532274 -15.9609375 80.0546875 C-15.58799561 78.32750488 -15.58799561 78.32750488 -15.20751953 76.56542969 C-14.93278809 75.34758789 -14.65805664 74.12974609 -14.375 72.875 C-14.10155762 71.63137695 -13.82811523 70.38775391 -13.54638672 69.10644531 C-11.29501613 58.99809121 -8.77656536 48.9759782 -6 39 C-10.95 39.495 -10.95 39.495 -16 40 C-16 42.64 -16 45.28 -16 48 C-17.32 48 -18.64 48 -20 48 C-20 45.03 -20 42.06 -20 39 C-30.23 39 -40.46 39 -51 39 C-50.67 37.68 -50.34 36.36 -50 35 C-48.53977417 34.99383667 -48.53977417 34.99383667 -47.05004883 34.98754883 C-43.42467921 34.96571215 -39.80038798 34.91137784 -36.17553711 34.84741211 C-34.60923631 34.82427118 -33.04278078 34.80984552 -31.47631836 34.80444336 C-29.21891297 34.79512412 -26.96392779 34.75407767 -24.70703125 34.70703125 C-24.01100296 34.7109639 -23.31497467 34.71489655 -22.59785461 34.71894836 C-18.70645352 34.60318532 -17.14736863 34.12682381 -14.15600586 31.55249023 C-13.44452393 30.71016846 -12.73304199 29.86784668 -12 29 C-9.796875 27.453125 -9.796875 27.453125 -7.75 26.25 C-5.22368804 24.81990666 -5.22368804 24.81990666 -3 23 C-3.88751953 22.97873047 -3.88751953 22.97873047 -4.79296875 22.95703125 C-9.04092453 22.70062935 -11.45672667 22.38481861 -15 19.875 C-17.42321823 16.3916238 -17.92578674 14.23015609 -18 10 C-17.02922902 5.49915273 -15.56701837 2.91846958 -12 0 C-7.82507137 -1.39164288 -4.24477353 -1.10959869 0 0 Z M-14 8 C-14.83333333 11 -14.83333333 11 -14 14 C-11.54405875 17.32274404 -10.0743356 18.77618008 -6 19.625 C-1.9256644 18.77618008 -0.45594125 17.32274404 2 14 C2.83333333 11 2.83333333 11 2 8 C-0.45594125 4.67725596 -1.9256644 3.22381992 -6 2.375 C-10.0743356 3.22381992 -11.54405875 4.67725596 -14 8 Z M0 28 C-0.33 30.31 -0.66 32.62 -1 35 C5.27 35 11.54 35 18 35 C18.64413575 29.24742193 18.64413575 29.24742193 16 26.625 C10.65845123 23.73166108 4.622627 23.65753221 0 28 Z M-8.5625 31.4375 C-9.20316406 31.88996094 -9.84382813 32.34242187 -10.50390625 32.80859375 C-10.99761719 33.20175781 -11.49132812 33.59492187 -12 34 C-12 34.33 -12 34.66 -12 35 C-9.69 35 -7.38 35 -5 35 C-4.67 33.02 -4.34 31.04 -4 29 C-5.80959038 29 -7.13499753 30.41950329 -8.5625 31.4375 Z M-2 39 C-2.680625 41.206875 -3.36125 43.41375 -4.0625 45.6875 C-4.44535156 46.92886719 -4.82820313 48.17023438 -5.22265625 49.44921875 C-5.97029833 52.86432754 -6.06542629 54.71848702 -5 58 C-4.67 58.33 -4.34 58.66 -4 59 C1.4899888 58.89020022 4.47611675 57.45086809 8.359375 53.8125 C12.54545003 49.18788378 14.77270331 45.13648346 16 39 C10.06 39 4.12 39 -2 39 Z M51 65 C52 67 52 67 52 67 Z " fill="#040404" transform="translate(80,66)"/>
<path d="M0 0 C0.7425 0.2475 1.485 0.495 2.25 0.75 C3.66687119 5.00061356 2.44320039 7.46851625 1.25 11.75 C1.80429687 11.3890625 2.35859375 11.028125 2.9296875 10.65625 C3.65414063 10.1921875 4.37859375 9.728125 5.125 9.25 C5.84429687 8.7859375 6.56359375 8.321875 7.3046875 7.84375 C9.25 6.75 9.25 6.75 11.25 6.75 C11.53875 5.96625 11.8275 5.1825 12.125 4.375 C13.25 1.75 13.25 1.75 15.25 -0.25 C16.57 -0.25 17.89 -0.25 19.25 -0.25 C18.83753996 5.11198054 18.03676354 7.08157282 14.25 10.75 C13.44684346 13.89481791 13.44684346 13.89481791 13.25 16.75 C17.01564053 14.52484878 18.93803465 13.22712348 21.375 9.5 C21.99375 8.5925 22.6125 7.685 23.25 6.75 C24.57 6.75 25.89 6.75 27.25 6.75 C26.50960895 12.8877345 22.95339026 16.03725055 18.25 19.75 C14.9375 20.9375 14.9375 20.9375 12.25 20.75 C10.375 19.625 10.375 19.625 9.25 17.75 C9.0625 15.0625 9.0625 15.0625 9.25 12.75 C8.76789063 13.1109375 8.28578125 13.471875 7.7890625 13.84375 C7.15742188 14.3078125 6.52578125 14.771875 5.875 15.25 C5.24851562 15.7140625 4.62203125 16.178125 3.9765625 16.65625 C2.25 17.75 2.25 17.75 0.25 17.75 C0.1675 18.925625 0.085 20.10125 0 21.3125 C-1.13724026 31.31073732 -3.53757421 42.59010532 -9.75 50.75 C-12.75 52.75 -12.75 52.75 -15.3125 52.6875 C-17.75 51.75 -17.75 51.75 -19.125 49.75 C-20.99481007 40.77491165 -17.43997303 33.31608897 -12.75 25.75 C-9.9608571 22.19231589 -6.94325478 18.94325478 -3.75 15.75 C-6.62450983 15.49951364 -6.62450983 15.49951364 -9.75 15.75 C-10.77019573 16.7293879 -11.77149805 17.72895449 -12.75 18.75 C-15.25 19.1875 -15.25 19.1875 -17.75 18.75 C-19.5625 16.75 -19.5625 16.75 -20.75 14.75 C-21.53375 15.265625 -22.3175 15.78125 -23.125 16.3125 C-23.99125 16.786875 -24.8575 17.26125 -25.75 17.75 C-26.41 17.42 -27.07 17.09 -27.75 16.75 C-27.33669586 10.75708997 -26.43096635 7.49963401 -22.75 2.75 C-20.44 3.08 -18.13 3.41 -15.75 3.75 C-15.75 7.05 -15.75 10.35 -15.75 13.75 C-15.09 13.75 -14.43 13.75 -13.75 13.75 C-13.151875 12.656875 -12.55375 11.56375 -11.9375 10.4375 C-10.43759829 7.81661911 -9.03734296 5.75142509 -6.75 3.75 C-6.13125 3.0075 -5.5125 2.265 -4.875 1.5 C-2.75 -0.25 -2.75 -0.25 0 0 Z M-5.75 23.75 C-13.91549796 34.59503176 -13.91549796 34.59503176 -15.75 47.75 C-14.76 47.75 -13.77 47.75 -12.75 47.75 C-8.82887635 41.47310246 -3.76198751 33.0942494 -5.1796875 25.42578125 C-5.36789063 24.87277344 -5.55609375 24.31976563 -5.75 23.75 Z " fill="#040404" transform="translate(260.75,114.25)"/>
<path d="M0 0 C6.27818716 0.35851534 11.29592577 2.66735079 16.9375 5.3125 C17.79279297 5.70373047 18.64808594 6.09496094 19.52929688 6.49804688 C23.53493597 8.34045753 27.50652268 10.23743572 31.4453125 12.21875 C34.27081973 13.63460857 37.06554873 14.84400405 40 16 C41 17 41 17 41.0625 20.0625 C41.041875 21.031875 41.02125 22.00125 41 23 C39.5608866 22.71640113 38.12374482 22.42278601 36.6875 22.125 C35.88699219 21.96257813 35.08648437 21.80015625 34.26171875 21.6328125 C32 21 32 21 29 19 C29 24.94 29 30.88 29 37 C21.13773796 40.36954087 21.13773796 40.36954087 18.17578125 41.31640625 C17.53962891 41.52330078 16.90347656 41.73019531 16.24804688 41.94335938 C15.60931641 42.14767578 14.97058594 42.35199219 14.3125 42.5625 C9.42142625 44.10107448 9.42142625 44.10107448 4.73046875 46.15234375 C3 47 3 47 0 47 C0 47.66 0 48.32 0 49 C7.15162654 46.93364889 14.08137649 44.5511218 21 41.8125 C29.46461676 39.51999963 36.42473081 42.07258151 44.51147461 44.7902832 C46.45381938 45.44298393 48.4009586 46.07929223 50.34960938 46.71289062 C59.83459453 49.83459453 59.83459453 49.83459453 61 51 C61.04080783 52.99958364 61.04254356 55.00045254 61 57 C58.36 56.67 55.72 56.34 53 56 C53 63.59 53 71.18 53 79 C57.29 79 61.58 79 66 79 C66 79.99 66 80.98 66 82 C57.75 82 49.5 82 41 82 C41 81.34 41 80.68 41 80 C35.06 80 29.12 80 23 80 C23 80.66 23 81.32 23 82 C20.85423363 82.02685938 18.70837355 82.04633088 16.5625 82.0625 C15.36753906 82.07410156 14.17257812 82.08570312 12.94140625 82.09765625 C10 82 10 82 9 81 C7.65984779 80.84417697 6.31241097 80.74955858 4.96484375 80.68359375 C4.15595703 80.64169922 3.34707031 80.59980469 2.51367188 80.55664062 C1.66353516 80.51732422 0.81339844 80.47800781 -0.0625 80.4375 C-1.34350586 80.37272461 -1.34350586 80.37272461 -2.65039062 80.30664062 C-4.76672037 80.20023298 -6.88333813 80.09958269 -9 80 C-8.67 78.68 -8.34 77.36 -8 76 C-8 76.99 -8 77.98 -8 79 C8.17 79 24.34 79 41 79 C41.33 78.34 41.66 77.68 42 77 C44.64 77.33 47.28 77.66 50 78 C50 69.75 50 61.5 50 53 C50.99 52.67 51.98 52.34 53 52 C36.72569107 45.04546885 24.42282013 43.09251439 7.625 49.625 C4.35860674 50.86397675 1.45308218 51.56836473 -2 52 C-2 49.69 -2 47.38 -2 45 C2.26821354 43.49247107 6.53997809 41.99527041 10.8125 40.5 C12.02744141 40.07074219 13.24238281 39.64148438 14.49414062 39.19921875 C15.65751953 38.79316406 16.82089844 38.38710938 18.01953125 37.96875 C19.62985229 37.40317383 19.62985229 37.40317383 21.27270508 36.82617188 C24 36 24 36 27 36 C27 29.4 27 22.8 27 16 C31.60057086 16.92011417 34.79672559 18.10440566 39 20 C39 19.34 39 18.68 39 18 C37.16695313 17.45085938 37.16695313 17.45085938 35.296875 16.890625 C27.81488839 14.40053549 20.89269292 10.61153878 13.88671875 7.03125 C12.27990234 6.23460937 12.27990234 6.23460937 10.640625 5.421875 C9.19478027 4.68855957 9.19478027 4.68855957 7.71972656 3.94042969 C3.31005104 2.41564781 -0.06365738 3.92482294 -4.28515625 5.48046875 C-5.06310547 5.75697266 -5.84105469 6.03347656 -6.64257812 6.31835938 C-8.26307308 6.90037734 -9.88028189 7.4916229 -11.49414062 8.09179688 C-12.27080078 8.36443359 -13.04746094 8.63707031 -13.84765625 8.91796875 C-14.54898682 9.17344482 -15.25031738 9.4289209 -15.97290039 9.69213867 C-18.57761971 10.08772473 -19.79508787 9.35251518 -22 8 C-21.05362671 7.68977905 -21.05362671 7.68977905 -20.08813477 7.37329102 C-17.24522551 6.43946574 -14.40385384 5.50104674 -11.5625 4.5625 C-10.56927734 4.23701172 -9.57605469 3.91152344 -8.55273438 3.57617188 C-7.60849609 3.26357422 -6.66425781 2.95097656 -5.69140625 2.62890625 C-4.81685791 2.34088135 -3.94230957 2.05285645 -3.04125977 1.75610352 C-1.03551105 1.17466716 -1.03551105 1.17466716 0 0 Z " fill="#625225" transform="translate(322,25)"/>
<path d="M0 0 C1.98 0 3.96 0 6 0 C6 16.17 6 32.34 6 49 C4.02 49 2.04 49 0 49 C-0.88556744 50.68973726 -0.88556744 50.68973726 -1 53 C-0.34 53.969375 0.32 54.93875 1 55.9375 C3 59 3 59 2 64 C-2.95 64 -7.9 64 -13 64 C-13.1953125 57.9453125 -13.1953125 57.9453125 -13 56 C-12.34 55.34 -11.68 54.68 -11 54 C-14.89459074 53.78918149 -14.89459074 53.78918149 -18 55 C-18.33 55.66 -18.66 56.32 -19 57 C-19.66 57 -20.32 57 -21 57 C-21.33 59.31 -21.66 61.62 -22 64 C-26.29 64 -30.58 64 -35 64 C-35 62.68 -35 61.36 -35 60 C-32.69 60 -30.38 60 -28 60 C-27.71125 59.401875 -27.4225 58.80375 -27.125 58.1875 C-26 56 -26 56 -24 53 C-23.34 53 -22.68 53 -22 53 C-21.67 52.01 -21.34 51.02 -21 50 C-17.54707645 48.3998647 -14.68112623 47.92069598 -10.9375 48.0625 C-6.74010642 47.99587471 -5.38628761 47.25752507 -2 45 C-0.68 45 0.64 45 2 45 C2 39.39 2 33.78 2 28 C-0.31 28 -2.62 28 -5 28 C-5 34.27 -5 40.54 -5 47 C-6.32 47 -7.64 47 -9 47 C-9 40.73 -9 34.46 -9 28 C-11.31 28 -13.62 28 -16 28 C-16 27.01 -16 26.02 -16 25 C-10.06 25 -4.12 25 2 25 C1.67 18.4 1.34 11.8 1 5 C0.34 4.67 -0.32 4.34 -1 4 C-0.67 2.68 -0.34 1.36 0 0 Z M-9 58 C-9 58.66 -9 59.32 -9 60 C-7.02 60 -5.04 60 -3 60 C-3 59.01 -3 58.02 -3 57 C-6.05270463 56.84188612 -6.05270463 56.84188612 -9 58 Z " fill="#050505" transform="translate(291,41)"/>
<path d="M0 0 C1 1 1 1 1.2734375 4.64453125 C1.19466247 11.51833192 -0.70439849 18.0603955 -2.375 24.6875 C-7.49374366 40.41843287 -7.49374366 40.41843287 -7 56 C-1.11858683 49.1066182 3.55521322 42.01497568 7.875 34.0625 C8.4736084 32.98162109 9.0722168 31.90074219 9.68896484 30.78710938 C12.53378845 25.62521079 15.31049389 20.43611937 17.984375 15.18359375 C18.65944092 13.86379517 18.65944092 13.86379517 19.34814453 12.51733398 C20.18040414 10.87652542 20.99978127 9.22909898 21.80419922 7.57446289 C24.53957647 2.15365039 24.53957647 2.15365039 27.13037109 1.2890625 C27.74734863 1.19367188 28.36432617 1.09828125 29 1 C28.41104842 4.54074873 27.48049842 7.42342001 25.8828125 10.6328125 C25.22804932 11.95176514 25.22804932 11.95176514 24.56005859 13.29736328 C24.08648926 14.2304834 23.61291992 15.16360352 23.125 16.125 C22.63467285 17.09550293 22.1443457 18.06600586 21.63916016 19.06591797 C3.4463681 54.70242126 3.4463681 54.70242126 -6 61 C-10.54054054 60.45945946 -10.54054054 60.45945946 -12 59 C-13.33232856 47.90454249 -10.27836831 36.77983306 -8 26 C-9.18142578 26.0309375 -9.18142578 26.0309375 -10.38671875 26.0625 C-13 26 -13 26 -14.8125 25 C-16.73643881 21.759682 -16.58008027 18.60294301 -16 15 C-13.34969836 7.37682055 -8.74500197 -0.44846164 0 0 Z M-5.4375 5.390625 C-5.953125 6.00421875 -6.46875 6.6178125 -7 7.25 C-7.515625 7.85328125 -8.03125 8.4565625 -8.5625 9.078125 C-11.55527137 13.0793302 -12.43843394 15.95800974 -12 21 C-11.34 21.66 -10.68 22.32 -10 23 C-8.68 22.67 -7.36 22.34 -6 22 C-4.68 16.06 -3.36 10.12 -2 4 C-4.09376748 3.76823624 -4.09376748 3.76823624 -5.4375 5.390625 Z " fill="#040404" transform="translate(185,88)"/>
<path d="M0 0 C4.62 0 9.24 0 14 0 C14 0.33 14 0.66 14 1 C12.02 1.33 10.04 1.66 8 2 C8.99 3.485 8.99 3.485 10 5 C10.33 4.67 10.66 4.34 11 4 C12.53825575 3.91309817 14.08041369 3.89298185 15.62109375 3.90234375 C16.55630859 3.90556641 17.49152344 3.90878906 18.45507812 3.91210938 C19.43927734 3.92048828 20.42347656 3.92886719 21.4375 3.9375 C22.90799805 3.94426758 22.90799805 3.94426758 24.40820312 3.95117188 C26.93885035 3.96336357 29.46939576 3.98122483 32 4 C32.66 4 33.32 4 34 4 C36.33333333 4 38.66666667 4 41 4 C41.33 3.01 41.66 2.02 42 1 C37.05 1 32.1 1 27 1 C27 0.67 27 0.34 27 0 C31.50235595 -0.02472359 36.00467236 -0.04287119 40.50708008 -0.05493164 C42.0386626 -0.0599596 43.57024033 -0.06678284 45.10180664 -0.07543945 C47.30356022 -0.08757229 49.50525033 -0.09324367 51.70703125 -0.09765625 C52.39150833 -0.10281754 53.07598541 -0.10797882 53.78120422 -0.11329651 C56.80906242 -0.1136536 59.10150142 0.03383381 62 1 C62.6875 3.0625 62.6875 3.0625 63 5 C63.33 4.67 63.66 4.34 64 4 C67 3.875 67 3.875 70 4 C71 5 71 5 71.0625 8.0625 C71.041875 9.031875 71.02125 10.00125 71 11 C67.41695412 12.69199389 65.7533606 13.10392959 62 12 C59.6670134 11.95977609 57.33293334 11.95679753 55 12 C53.45177857 12 51.90355339 11.9854239 50.35546875 11.96484375 C49.31003906 11.95582031 48.26460938 11.94679687 47.1875 11.9375 C46.14980469 11.92589844 45.11210937 11.91429687 44.04296875 11.90234375 C41.23165674 11.99256557 38.74362384 12.43119994 36 13 C34.66431979 12.67619874 33.33076989 12.34342449 32 12 C31.34 12.165 30.68 12.33 30 12.5 C27.62390805 13.09402299 26.34390805 12.58597701 24 12 C22.66431979 12.32380126 21.33076989 12.65657551 20 13 C19.01 12.67 18.02 12.34 17 12 C16.071875 12.2475 16.071875 12.2475 15.125 12.5 C12.48719714 13.1206595 10.6018854 12.65047135 8 12 C8 11.34 8 10.68 8 10 C6.68 10 5.36 10 4 10 C4 10.66 4 11.32 4 12 C3.01 12 2.02 12 1 12 C1.60990891 8.44219804 2.5783681 5.3171411 4 2 C2.68 1.34 1.36 0.68 0 0 Z M45 1 C45 3.31 45 5.62 45 8 C45.33 6.68 45.66 5.36 46 4 C48.31 4.33 50.62 4.66 53 5 C53.33 4.01 53.66 3.02 54 2 C54.99 2 55.98 2 57 2 C57 2.66 57 3.32 57 4 C57.66 4 58.32 4 59 4 C59 3.01 59 2.02 59 1 C54.38 1 49.76 1 45 1 Z M37 6 C37 7.32 37 8.64 37 10 C37.66 9.67 38.32 9.34 39 9 C38.67 8.01 38.34 7.02 38 6 C37.67 6 37.34 6 37 6 Z M57 6 C57 7.32 57 8.64 57 10 C57.66 10 58.32 10 59 10 C59 8.68 59 7.36 59 6 C58.34 6 57.68 6 57 6 Z M66 6 C66 7.32 66 8.64 66 10 C66.66 10 67.32 10 68 10 C67.67 8.68 67.34 7.36 67 6 C66.67 6 66.34 6 66 6 Z M28 7 C28 7.99 28 8.98 28 10 C28.99 9.67 29.98 9.34 31 9 C31 8.34 31 7.68 31 7 C30.01 7 29.02 7 28 7 Z " fill="#0E0F0F" transform="translate(331,121)"/>
<path d="M0 0 C0.89589844 -0.01417969 1.79179687 -0.02835937 2.71484375 -0.04296875 C5.0625 0.1875 5.0625 0.1875 7.0625 2.1875 C9.08346551 2.3826842 9.08346551 2.3826842 11.38671875 2.20703125 C12.25103516 2.17802734 13.11535156 2.14902344 14.00585938 2.11914062 C15.81634323 2.04053599 17.62634111 1.94965022 19.43554688 1.84570312 C24.98936929 1.68537813 28.34411975 2.31196457 32.79614258 5.7097168 C34.34210719 7.51378925 34.75649354 8.8439883 35.0625 11.1875 C34.7325 11.8475 34.4025 12.5075 34.0625 13.1875 C33.45084488 13.18527939 32.83918976 13.18305878 32.20899963 13.18077087 C25.86679669 13.15871878 19.52460456 13.14359373 13.18237305 13.13256836 C10.81257688 13.12752659 8.44278385 13.12069335 6.07299805 13.11206055 C2.67495961 13.0999881 -0.72303785 13.09427029 -4.12109375 13.08984375 C-5.18774765 13.08468246 -6.25440155 13.07952118 -7.3533783 13.07420349 C-8.33431961 13.07412796 -9.31526093 13.07405243 -10.32592773 13.07397461 C-11.19418686 13.071754 -12.06244598 13.06953339 -12.95701599 13.06724548 C-14.93893681 12.96795333 -14.93893681 12.96795333 -15.9375 14.1875 C-9.9975 14.1875 -4.0575 14.1875 2.0625 14.1875 C2.0625 14.5175 2.0625 14.8475 2.0625 15.1875 C-4.2075 15.1875 -10.4775 15.1875 -16.9375 15.1875 C-16.9375 9.1875 -16.9375 9.1875 -15.375 6.5 C-12.36280294 3.64227458 -9.80543215 2.64709704 -5.9375 1.1875 C-4.27188601 -0.47811399 -2.27787295 0.01634055 0 0 Z " fill="#5A4A25" transform="translate(328.9375,90.8125)"/>
<path d="M0 0 C0.99 0.33 1.98 0.66 3 1 C2.80525583 6.7449529 1.82575299 10.65698068 -0.81640625 15.7734375 C-4.51941991 23.58962272 -6.17400464 31.48656166 -7.8125 39.9375 C-8.11248533 41.41761171 -8.41391179 42.89743209 -8.71679688 44.37695312 C-9.90704058 50.2361749 -11.044297 56.09732873 -12 62 C-13.32 62 -14.64 62 -16 62 C-15.41993763 54.24548194 -14.37559416 46.65257723 -13 39 C-13.721875 39.66 -14.44375 40.32 -15.1875 41 C-18.2154253 43.15319133 -19.39251163 43.50104005 -23 43 C-24 42 -24 42 -24.1328125 39.78515625 C-24.13023437 38.88667969 -24.12765625 37.98820312 -24.125 37.0625 C-24.12757813 36.16660156 -24.13015625 35.27070312 -24.1328125 34.34765625 C-24 32 -24 32 -23 30 C-22.01 30 -21.02 30 -20 30 C-19.875 36.75 -19.875 36.75 -21 39 C-20.05125 38.236875 -19.1025 37.47375 -18.125 36.6875 C-17.59132812 36.25824219 -17.05765625 35.82898438 -16.5078125 35.38671875 C-14.74707893 33.87729455 -14.74707893 33.87729455 -13 31 C-12.01 31 -11.02 31 -10 31 C-9.91363281 30.319375 -9.82726562 29.63875 -9.73828125 28.9375 C-8.82012776 22.60308326 -7.43081481 16.54869297 -5.5625 10.4375 C-5.35729736 9.74720703 -5.15209473 9.05691406 -4.94067383 8.34570312 C-3.84612824 4.88356596 -2.92704972 2.26142325 0 0 Z " fill="#040404" transform="translate(229,90)"/>
<path d="M0 0 C0.99 0 1.98 0 3 0 C3 1.32 3 2.64 3 4 C3.99 4 4.98 4 6 4 C6 2.68 6 1.36 6 0 C6.99 0 7.98 0 9 0 C9.33 1.32 9.66 2.64 10 4 C10.33 3.67 10.66 3.34 11 3 C12.38048306 2.91341723 13.76527376 2.89295707 15.1484375 2.90234375 C15.98890625 2.90556641 16.829375 2.90878906 17.6953125 2.91210938 C18.57960938 2.92048828 19.46390625 2.92886719 20.375 2.9375 C21.2515625 2.94201172 22.128125 2.94652344 23.03125 2.95117188 C24.66456434 2.95991285 26.29786985 2.9706987 27.93115234 2.98413086 C30.6644345 3.00509656 33.3920377 2.99215925 36.125 2.9375 C39 3 39 3 40 4 C40.04080783 5.99958364 40.04254356 8.00045254 40 10 C35.98668157 12.00665921 33.30558651 12.4351955 29 11 C27.625 8.4375 27.625 8.4375 27 6 C26.67 7.65 26.34 9.3 26 11 C25.01 11 24.02 11 23 11 C23 9.35 23 7.7 23 6 C22.34 6 21.68 6 21 6 C21 7.65 21 9.3 21 11 C15.62374766 11.84888195 11.34629602 12.0024305 6 11 C6 9.68 6 8.36 6 7 C5.01 7 4.02 7 3 7 C3 8.32 3 9.64 3 11 C2.01 11 1.02 11 0 11 C0 7.37 0 3.74 0 0 Z M13 5 C13 6.32 13 7.64 13 9 C13.66 9 14.32 9 15 9 C14.67 7.68 14.34 6.36 14 5 C13.67 5 13.34 5 13 5 Z " fill="#0D0D0D" transform="translate(289,122)"/>
<path d="M0 0 C0.99 0 1.98 0 3 0 C3.63391943 5.4939684 2.93892585 8.49566702 0.21484375 13.3203125 C-3.15611789 19.84694076 -4.89375869 26.45871626 -6.38842773 33.60058594 C-6.81430628 35.63362273 -7.2634869 37.66042081 -7.71679688 39.6875 C-9.27163966 46.76166317 -10.53130486 53.76471986 -11 61 C-12.98 61.495 -12.98 61.495 -15 62 C-15.2331797 55.2592686 -14.69880449 49.18590783 -13.171875 42.625 C-12.98159729 41.77502441 -12.79131958 40.92504883 -12.59527588 40.04931641 C-12.19353859 38.26672739 -11.7865552 36.48531311 -11.37451172 34.70507812 C-10.75220516 32.00955166 -10.1503297 29.31004369 -9.55078125 26.609375 C-4.58463844 4.58463844 -4.58463844 4.58463844 0 0 Z " fill="#050505" transform="translate(237,90)"/>
<path d="M0 0 C3.00327481 2.33588041 4.96462966 4.30887977 5.71875 8.1171875 C5.77379938 12.53490034 5.77988457 15.76595974 2.9375 19.3125 C-0.25106549 22.20445475 -1.86661042 22.68456373 -6.125 23 C-10.79738693 22.67776642 -13.25682063 21.42439046 -16.359375 17.9453125 C-18.78890151 14.10993638 -18.50114494 10.12593612 -17.75 5.75 C-14.09433875 -1.2391761 -7.15783837 -3.25356289 0 0 Z M-13.75 6.75 C-14.47307113 9.5728697 -14.46046028 11.92548716 -13.75 14.75 C-11.83817732 17.49612994 -11.83817732 17.49612994 -8.75 18.75 C-5.28241058 18.69021398 -2.86173251 18.35965977 0.1875 16.6875 C1.94816113 13.47688264 2.00353146 10.25004798 1.25 6.75 C-1.14421995 4.01374862 -2.69269804 2.96146039 -6.25 2.25 C-9.80730196 2.96146039 -11.35578005 4.01374862 -13.75 6.75 Z " fill="#040404" transform="translate(115.75,66.25)"/>
<path d="M0 0 C13.4372605 -0.36983286 13.4372605 -0.36983286 15.92578125 1.265625 C17.79206798 4.27882976 17.53152479 7.61323309 17 11 C15.5 13.5 15.5 13.5 14 15 C14.495 15.598125 14.99 16.19625 15.5 16.8125 C17 19 17 19 17 22 C13.84859577 21.65930765 12.39218439 21.41923159 10.1875 19.0625 C9 17 9 17 9 15 C7.35 15 5.7 15 4 15 C4 17.31 4 19.62 4 22 C2.68 21.67 1.36 21.34 0 21 C0 14.07 0 7.14 0 0 Z M4 3 C4 5.64 4 8.28 4 11 C7.41656024 11.16677282 7.41656024 11.16677282 11 11 C11.66 10.34 12.32 9.68 13 9 C12.71016731 5.69316534 12.71016731 5.69316534 11 3 C8.66702567 2.95907063 6.33294775 2.95758277 4 3 Z " fill="#040404" transform="translate(32,66)"/>
<path d="M0 0 C1.6875 1.375 1.6875 1.375 2.4375 4.5 C2.56125 5.923125 2.56125 5.923125 2.6875 7.375 C1.3675 7.045 0.0475 6.715 -1.3125 6.375 C-1.3125 5.715 -1.3125 5.055 -1.3125 4.375 C-3.6225 4.375 -5.9325 4.375 -8.3125 4.375 C-8.3125 5.365 -8.3125 6.355 -8.3125 7.375 C-7.61382812 7.62894531 -6.91515625 7.88289063 -6.1953125 8.14453125 C-4.83019531 8.66080078 -4.83019531 8.66080078 -3.4375 9.1875 C-2.53257812 9.52394531 -1.62765625 9.86039063 -0.6953125 10.20703125 C1.6875 11.375 1.6875 11.375 3.6875 14.375 C3.54728632 17.7401283 3.29164348 19.67791137 1.0625 22.25 C-2.85650281 24.10636975 -6.49201551 23.86702284 -10.625 22.75 C-13.10838562 20.7265006 -13.522212 18.40443733 -14.3125 15.375 C-12.9925 15.045 -11.6725 14.715 -10.3125 14.375 C-9.9825 15.695 -9.6525 17.015 -9.3125 18.375 C-7.0025 18.375 -4.6925 18.375 -2.3125 18.375 C-1.9825 17.385 -1.6525 16.395 -1.3125 15.375 C-2.01117188 15.10945313 -2.70984375 14.84390625 -3.4296875 14.5703125 C-4.33976563 14.21710938 -5.24984375 13.86390625 -6.1875 13.5 C-7.09242188 13.15195313 -7.99734375 12.80390625 -8.9296875 12.4453125 C-11.3125 11.375 -11.3125 11.375 -13.3125 9.375 C-13.75 5.9375 -13.75 5.9375 -13.3125 2.375 C-9.28851384 -1.29392856 -5.10015132 -1.37841928 0 0 Z " fill="#040404" transform="translate(147.3125,65.625)"/>
<path d="M0 0 C4.62 0 9.24 0 14 0 C14 0.99 14 1.98 14 3 C10.7 3 7.4 3 4 3 C4 4.98 4 6.96 4 9 C7.3 9 10.6 9 14 9 C13.67 10.32 13.34 11.64 13 13 C10.03 13 7.06 13 4 13 C4 14.98 4 16.96 4 19 C7.63 19 11.26 19 15 19 C15 19.99 15 20.98 15 22 C10.05 22 5.1 22 0 22 C0 14.74 0 7.48 0 0 Z " fill="#030303" transform="translate(222,66)"/>
<path d="M0 0 C4.62 0 9.24 0 14 0 C14 0.99 14 1.98 14 3 C10.7 3 7.4 3 4 3 C4 4.98 4 6.96 4 9 C7.3 9 10.6 9 14 9 C13.67 10.32 13.34 11.64 13 13 C10.03 13 7.06 13 4 13 C4 14.98 4 16.96 4 19 C7.63 19 11.26 19 15 19 C15 19.99 15 20.98 15 22 C10.05 22 5.1 22 0 22 C0 14.74 0 7.48 0 0 Z " fill="#030303" transform="translate(164,66)"/>
<path d="M0 0 C1.32 0 2.64 0 4 0 C5.98 4.62 7.96 9.24 10 14 C11.98 9.38 13.96 4.76 16 0 C17.32 0 18.64 0 20 0 C19.29807915 4.93321834 17.36469225 9.25974682 15.4375 13.8125 C15.10814453 14.60076172 14.77878906 15.38902344 14.43945312 16.20117188 C13.63041094 18.13583796 12.81576148 20.06815753 12 22 C9.73828125 22.0546875 9.73828125 22.0546875 7 21 C5.27264104 18.21760269 4.26319287 15.20722814 3.1875 12.125 C2.87619141 11.29613281 2.56488281 10.46726562 2.24414062 9.61328125 C0 3.50724588 0 3.50724588 0 0 Z " fill="#040404" transform="translate(190,66)"/>
<path d="M0 0 C-2.17648655 2.17648655 -3.31903433 2.56937728 -6.2109375 3.4375 C-7.04367187 3.69273438 -7.87640625 3.94796875 -8.734375 4.2109375 C-9.60578125 4.47132812 -10.4771875 4.73171875 -11.375 5 C-13.09209616 5.51769168 -14.80827918 6.03842385 -16.5234375 6.5625 C-17.6669165 6.90474609 -17.6669165 6.90474609 -18.83349609 7.25390625 C-21.03305741 7.95160006 -21.03305741 7.95160006 -23.09228516 9.08984375 C-25 10 -25 10 -28 10 C-28 10.66 -28 11.32 -28 12 C-20.84837346 9.93364889 -13.91862351 7.5511218 -7 4.8125 C-3.18540587 3.77938076 0.05561764 3.86398682 4 4 C4 4.66 4 5.32 4 6 C3.01 6.103125 2.02 6.20625 1 6.3125 C-2.47955122 6.80573312 -5.52210305 7.92287652 -8.80175781 9.18676758 C-12.43958501 10.53256971 -16.15158084 11.60640198 -19.875 12.6875 C-20.63296875 12.91244141 -21.3909375 13.13738281 -22.171875 13.36914062 C-27.74356478 15 -27.74356478 15 -30 15 C-30 12.69 -30 10.38 -30 8 C-25.75607591 6.46182281 -21.50402329 4.94749877 -17.25 3.4375 C-16.0434375 2.99986328 -14.836875 2.56222656 -13.59375 2.11132812 C-12.43359375 1.70205078 -11.2734375 1.29277344 -10.078125 0.87109375 C-9.00981445 0.48880615 -7.94150391 0.10651855 -6.84082031 -0.28735352 C-4.0113659 -0.99714876 -2.68378923 -1.02199147 0 0 Z " fill="#58461E" transform="translate(350,62)"/>
<path d="M0 0 C0.33 0 0.66 0 1 0 C1 8.25 1 16.5 1 25 C5.29 25 9.58 25 14 25 C14 25.33 14 25.66 14 26 C-0.04136926 26.1162069 -13.9902386 25.99058919 -28 25 C-28 25.66 -28 26.32 -28 27 C-30.14576637 27.02685938 -32.29162645 27.04633088 -34.4375 27.0625 C-35.63246094 27.07410156 -36.82742188 27.08570312 -38.05859375 27.09765625 C-41 27 -41 27 -42 26 C-43.34015221 25.84417697 -44.68758903 25.74955858 -46.03515625 25.68359375 C-46.84404297 25.64169922 -47.65292969 25.59980469 -48.48632812 25.55664062 C-49.33646484 25.51732422 -50.18660156 25.47800781 -51.0625 25.4375 C-51.91650391 25.39431641 -52.77050781 25.35113281 -53.65039062 25.30664062 C-55.76672037 25.20023298 -57.88333813 25.09958269 -60 25 C-59.67 23.68 -59.34 22.36 -59 21 C-59 21.99 -59 22.98 -59 24 C-42.83 24 -26.66 24 -10 24 C-9.67 23.34 -9.34 22.68 -9 22 C-8.67 22.33 -8.34 22.66 -8 23 C-5.36 23.33 -2.72 23.66 0 24 C0 16.08 0 8.16 0 0 Z " fill="#0E0600" transform="translate(373,80)"/>
<path d="M0 0 C1.25 2.0625 1.25 2.0625 2 4 C-1.78240597 8.73733292 -1.78240597 8.73733292 -4.91259766 9.41259766 C-7.06454463 9.49106197 -9.16289016 9.43736563 -11.3125 9.3125 C-12.05306641 9.28994141 -12.79363281 9.26738281 -13.55664062 9.24414062 C-15.37197357 9.1855815 -17.18625681 9.09590886 -19 9 C-18.34 7.02 -17.68 5.04 -17 3 C-14.69 3 -12.38 3 -10 3 C-10 2.01 -10 1.02 -10 0 C-3.05825243 -1.41990291 -3.05825243 -1.41990291 0 0 Z " fill="#EBD05E" transform="translate(334,94)"/>
<path d="M0 0 C1.32 0 2.64 0 4 0 C4 6.27 4 12.54 4 19 C7.63 19 11.26 19 15 19 C15 19.99 15 20.98 15 22 C10.05 22 5.1 22 0 22 C0 14.74 0 7.48 0 0 Z " fill="#030303" transform="translate(250,66)"/>
<path d="M0 0 C1.75070517 0.11470137 3.50057536 0.24219028 5.25 0.375 C6.22453125 0.44460937 7.1990625 0.51421875 8.203125 0.5859375 C11.0052899 1.00078314 12.70782902 1.34679703 15 3 C15.66 4.65 16.32 6.3 17 8 C11.72 8 6.44 8 1 8 C0.67 7.01 0.34 6.02 0 5 C-1.49985609 3.33289654 -1.49985609 3.33289654 -3 2 C-2.01 2 -1.02 2 0 2 C0 1.34 0 0.68 0 0 Z " fill="#E2C95C" transform="translate(345,95)"/>
<path d="M0 0 C2.31 0.66 4.62 1.32 7 2 C7 2.33 7 2.66 7 3 C5.02 3 3.04 3 1 3 C1 9.27 1 15.54 1 22 C-0.670625 22.391875 -2.34125 22.78375 -4.0625 23.1875 C-9.82968224 24.61556417 -15.41150396 26.40093239 -21.01000977 28.3737793 C-23.82296838 29.35029861 -25.99565239 30 -29 30 C-29 29.34 -29 28.68 -29 28 C-26.02172432 26.89342006 -23.04221615 25.79019466 -20.0625 24.6875 C-18.81629883 24.2244043 -18.81629883 24.2244043 -17.54492188 23.75195312 C-12.06264032 21.72542882 -6.55388044 19.82140378 -1 18 C-0.67 12.06 -0.34 6.12 0 0 Z " fill="#CCB764" transform="translate(351,44)"/>
<path d="M0 0 C-0.99 0.495 -0.99 0.495 -2 1 C-1.01 1.66 -0.02 2.32 1 3 C1 3.99 1 4.98 1 6 C6.28 6 11.56 6 17 6 C17 6.33 17 6.66 17 7 C7.43 7 -2.14 7 -12 7 C-10.87224426 3.61673278 -9.64296752 2.33203016 -7 0 C-3.86650268 -1.04449911 -3.01031744 -0.93423645 0 0 Z " fill="#685930" transform="translate(345,97)"/>
<path d="M0 0 C4.60057086 0.92011417 7.79672559 2.10440566 12 4 C12 3.01 12 2.02 12 1 C12.66 1 13.32 1 14 1 C14 2.98 14 4.96 14 7 C12.5608866 6.71640113 11.12374482 6.42278601 9.6875 6.125 C8.88699219 5.96257813 8.08648437 5.80015625 7.26171875 5.6328125 C5 5 5 5 2 3 C2 8.94 2 14.88 2 21 C1.34 21 0.68 21 0 21 C0 14.07 0 7.14 0 0 Z " fill="#433716" transform="translate(349,41)"/>
<path d="M0 0 C0 0.66 0 1.32 0 2 C1.98 2 3.96 2 6 2 C6 2.99 6 3.98 6 5 C0.72 5 -4.56 5 -10 5 C-9.67 3.68 -9.34 2.36 -9 1 C-6.04335481 -0.4783226 -3.25770263 -0.06032783 0 0 Z " fill="#F7DC67" transform="translate(325,98)"/>
<path d="M0 0 C-2.16950448 2.16950448 -3.33323079 2.58469735 -6.2109375 3.47265625 C-7.04367187 3.73240234 -7.87640625 3.99214844 -8.734375 4.25976562 C-9.60578125 4.52466797 -10.4771875 4.78957031 -11.375 5.0625 C-12.23867188 5.33126953 -13.10234375 5.60003906 -13.9921875 5.87695312 C-16.32453099 6.59861187 -18.65641257 7.3157274 -21 8 C-21.6904541 8.23388428 -22.3809082 8.46776855 -23.09228516 8.70874023 C-25 9 -25 9 -28 7 C-24.0891223 5.62869384 -20.17051762 4.28097257 -16.25 2.9375 C-15.13882812 2.54755859 -14.02765625 2.15761719 -12.8828125 1.75585938 C-11.81289063 1.39169922 -10.74296875 1.02753906 -9.640625 0.65234375 C-8.16384277 0.14175415 -8.16384277 0.14175415 -6.65722656 -0.37915039 C-3.94479951 -1.01289736 -2.5806975 -0.94500645 0 0 Z " fill="#56481D" transform="translate(350,62)"/>
<path d="M0 0 C5 0 10 0 15 0 C15 0.99 15 1.98 15 3 C13.68 3 12.36 3 11 3 C10.34 4.32 9.68 5.64 9 7 C8.34 6.67 7.68 6.34 7 6 C6.67 6.66 6.34 7.32 6 8 C5.01 7.67 4.02 7.34 3 7 C3.66 5.35 4.32 3.7 5 2 C3.35 2.33 1.7 2.66 0 3 C0 2.01 0 1.02 0 0 Z " fill="#171716" transform="translate(357,125)"/>
<path d="M0 0 C11.64111892 -0.8601812 11.64111892 -0.8601812 16.1875 2.25 C19.65758294 5.64296998 19.65758294 5.64296998 20 9 C19.34 9.66 18.68 10.32 18 11 C16 8 16 8 16 5 C15.34773438 4.87882812 14.69546875 4.75765625 14.0234375 4.6328125 C9.21353658 3.71056011 4.60974535 2.69832723 0 1 C0 0.67 0 0.34 0 0 Z " fill="#54451E" transform="translate(344,93)"/>
<path d="M0 0 C0.99 0 1.98 0 3 0 C4.10844919 3.32534757 3.84454356 5.62182575 3 9 C1.02 9 -0.96 9 -3 9 C-3 7.35 -3 5.7 -3 4 C-4.32 3.67 -5.64 3.34 -7 3 C-6.21625 2.87625 -5.4325 2.7525 -4.625 2.625 C-1.85942178 2.20882007 -1.85942178 2.20882007 0 0 Z " fill="#1B1C1A" transform="translate(385,123)"/>
<path d="M0 0 C2.31 0 4.62 0 7 0 C8.35439668 2.70879335 8.06501451 5.00933268 8 8 C7.01 8 6.02 8 5 8 C5 6.35 5 4.7 5 3 C4.01 3.495 4.01 3.495 3 4 C2.34786708 6.02463255 2.34786708 6.02463255 2 8 C1.34 8 0.68 8 0 8 C0 5.36 0 2.72 0 0 Z " fill="#0D0E0D" transform="translate(403,125)"/>
<path d="M0 0 C0 0.66 0 1.32 0 2 C-2.64 1.67 -5.28 1.34 -8 1 C-8 9.25 -8 17.5 -8 26 C-10.64 26 -13.28 26 -16 26 C-16 25.67 -16 25.34 -16 25 C-13.69 25 -11.38 25 -9 25 C-9 16.75 -9 8.5 -9 0 C-3.375 -1.125 -3.375 -1.125 0 0 Z " fill="#927E44" transform="translate(381,78)"/>
<path d="M0 0 C2.9375 0.1875 2.9375 0.1875 6 1 C6.66 2.32 7.32 3.64 8 5 C2.72 5 -2.56 5 -8 5 C-8 4.01 -8 3.02 -8 2 C-7.34 2 -6.68 2 -6 2 C-6 2.66 -6 3.32 -6 4 C-2.81765895 2.24545615 -2.81765895 2.24545615 0 0 Z " fill="#F2D866" transform="translate(354,98)"/>
<path d="M0 0 C0.33 0 0.66 0 1 0 C1 7.26 1 14.52 1 22 C5.29 22 9.58 22 14 22 C14.66 23.32 15.32 24.64 16 26 C14.68 26.33 13.36 26.66 12 27 C12.33 25.68 12.66 24.36 13 23 C8.71 23 4.42 23 0 23 C0 15.41 0 7.82 0 0 Z " fill="#F7DD6B" transform="translate(375,81)"/>
<path d="M0 0 C0.99 0 1.98 0 3 0 C3 2.31 3 4.62 3 7 C3.66 7.33 4.32 7.66 5 8 C3.741875 8.185625 2.48375 8.37125 1.1875 8.5625 C0.12595703 8.71912109 0.12595703 8.71912109 -0.95703125 8.87890625 C-3 9 -3 9 -6 8 C-5.67 7.01 -5.34 6.02 -5 5 C-3.02 5.495 -3.02 5.495 -1 6 C-1.33 4.68 -1.66 3.36 -2 2 C-1.34 2 -0.68 2 0 2 C0 1.34 0 0.68 0 0 Z " fill="#060606" transform="translate(305,125)"/>
<path d="M0 0 C0.33 0.99 0.66 1.98 1 3 C8.59 3 16.18 3 24 3 C24 3.33 24 3.66 24 4 C26.64 4.33 29.28 4.66 32 5 C32 5.33 32 5.66 32 6 C29.85423363 6.02685938 27.70837355 6.04633088 25.5625 6.0625 C24.36753906 6.07410156 23.17257812 6.08570312 21.94140625 6.09765625 C19 6 19 6 18 5 C16.65984779 4.84417697 15.31241097 4.74955858 13.96484375 4.68359375 C12.75151367 4.62075195 12.75151367 4.62075195 11.51367188 4.55664062 C10.66353516 4.51732422 9.81339844 4.47800781 8.9375 4.4375 C8.08349609 4.39431641 7.22949219 4.35113281 6.34960938 4.30664062 C4.23327963 4.20023298 2.11666187 4.09958269 0 4 C0 2.68 0 1.36 0 0 Z " fill="#281D0F" transform="translate(313,101)"/>
<path d="M0 0 C1.2065625 0.0309375 1.2065625 0.0309375 2.4375 0.0625 C2.7675 1.0525 3.0975 2.0425 3.4375 3.0625 C1.4575 3.0625 -0.5225 3.0625 -2.5625 3.0625 C-2.5625 4.0525 -2.5625 5.0425 -2.5625 6.0625 C-3.655625 6.18625 -4.74875 6.31 -5.875 6.4375 C-9.63631802 6.81714801 -9.63631802 6.81714801 -12.5625 9.0625 C-12.3125 7.19921875 -12.3125 7.19921875 -11.5625 5.0625 C-9.75 3.83203125 -9.75 3.83203125 -7.5625 2.875 C-1.21423158 0.0296154 -1.21423158 0.0296154 0 0 Z " fill="#75632F" transform="translate(326.5625,90.9375)"/>
<path d="M0 0 C1.99954746 -0.04254356 4.00041636 -0.04080783 6 0 C7 1 7 1 7.0625 4.0625 C7.041875 5.031875 7.02125 6.00125 7 7 C6.01 7 5.02 7 4 7 C4 6.34 4 5.68 4 5 C2.35 5 0.7 5 -1 5 C-0.67 3.35 -0.34 1.7 0 0 Z " fill="#101010" transform="translate(322,125)"/>
<path d="M0 0 C0.66 0 1.32 0 2 0 C2 1.32 2 2.64 2 4 C3.65 4 5.3 4 7 4 C7.33 3.01 7.66 2.02 8 1 C8 2.65 8 4.3 8 6 C6.35 6 4.7 6 3 6 C3 7.32 3 8.64 3 10 C2.01 10 1.02 10 0 10 C0 6.7 0 3.4 0 0 Z " fill="#161616" transform="translate(289,123)"/>
<path d="M0 0 C0.86625 0.4640625 0.86625 0.4640625 1.75 0.9375 C3.84294184 1.92583364 5.74535275 2.5168613 8 3 C7.01 3.66 6.02 4.32 5 5 C5.66 5.66 6.32 6.32 7 7 C7 7.66 7 8.32 7 9 C2.04303419 7.76075855 -0.11658466 6.21422242 -3 2 C-2.01 2 -1.02 2 0 2 C0 1.34 0 0.68 0 0 Z " fill="#0B0B0B" transform="translate(354,125)"/>
<path d="M0 0 C2.31 0.66 4.62 1.32 7 2 C7 2.33 7 2.66 7 3 C5.02 3 3.04 3 1 3 C1 9.27 1 15.54 1 22 C0.01 21.67 -0.98 21.34 -2 21 C-2.33 20.34 -2.66 19.68 -3 19 C-2.34 18.67 -1.68 18.34 -1 18 C-0.505 9.09 -0.505 9.09 0 0 Z " fill="#C8B156" transform="translate(351,44)"/>
<path d="M0 0 C0.66 0.33 1.32 0.66 2 1 C2 1.99 2 2.98 2 4 C2.78375 4.12375 3.5675 4.2475 4.375 4.375 C7 5 7 5 9 7 C5.42355152 8.2380014 2.66305234 7.74926071 -1 7 C-1.33 5.02 -1.66 3.04 -2 1 C-1.34 0.67 -0.68 0.34 0 0 Z " fill="#09090A" transform="translate(319,126)"/>
<path d="M0 0 C0.33 0.66 0.66 1.32 1 2 C0.07347299 3.17539996 -0.86663387 4.34010577 -1.8125 5.5 C-2.33457031 6.1496875 -2.85664062 6.799375 -3.39453125 7.46875 C-5 9 -5 9 -8 9 C-8 6.69 -8 4.38 -8 2 C-7.34 2 -6.68 2 -6 2 C-5.67 2.99 -5.34 3.98 -5 5 C-3.35 3.35 -1.7 1.7 0 0 Z " fill="#0A0A0A" transform="translate(128,131)"/>
<path d="M0 0 C-1.625 1.125 -1.625 1.125 -4 2 C-6.8125 1.1875 -6.8125 1.1875 -10 0 C-12.32694964 -0.37531446 -14.65976685 -0.71917202 -17 -1 C-17 -1.33 -17 -1.66 -17 -2 C-10.74542962 -3.14879864 -5.4465696 -3.6310464 0 0 Z " fill="#786530" transform="translate(364,70)"/>
<path d="M0 0 C3.77315072 -0.35099077 5.48542488 -0.36755366 8.625 1.875 C9.40875 2.57625 10.1925 3.2775 11 4 C12.31138904 4.70885894 13.63777017 5.39456452 15 6 C13.359375 6.68359375 13.359375 6.68359375 11 7 C8.203125 5.78515625 8.203125 5.78515625 5.25 4.0625 C4.26515625 3.49660156 3.2803125 2.93070313 2.265625 2.34765625 C1.51796875 1.90292969 0.7703125 1.45820312 0 1 C0 0.67 0 0.34 0 0 Z " fill="#E6CD61" transform="translate(346,33)"/>
<path d="M0 0 C0.6875 1.8125 0.6875 1.8125 1 4 C-0.125 5.8125 -0.125 5.8125 -2 7 C-5.34192692 6.75546876 -6.60543557 6.39456443 -9 4 C-8.2575 3.896875 -7.515 3.79375 -6.75 3.6875 C-3.82985982 2.95746496 -2.26812446 1.93210602 0 0 Z " fill="#070707" transform="translate(372,127)"/>
<path d="M0 0 C0 1.98 0 3.96 0 6 C-4.625 8.125 -4.625 8.125 -8 7 C-7 5 -7 5 -5 4 C-4.34 4.33 -3.68 4.66 -3 5 C-3.33 3.68 -3.66 2.36 -4 1 C-1 0 -1 0 0 0 Z " fill="#09090A" transform="translate(402,126)"/>
<path d="M0 0 C0.66 0 1.32 0 2 0 C2 1.32 2 2.64 2 4 C-2.49656104 6.24828052 -6.07872966 6.16682272 -11 6 C-11 5.34 -11 4.68 -11 4 C-7.7 3.67 -4.4 3.34 -1 3 C-0.67 2.01 -0.34 1.02 0 0 Z " fill="#EFD564" transform="translate(347,88)"/>
<path d="M0 0 C-1.36784751 2.73569502 -3.33762539 3.33631214 -6.078125 4.46875 C-8.90899122 5.25126587 -11.20701927 4.74933629 -14 4 C-11.37350692 2.24900461 -9.38191413 1.30690675 -6.4375 0.3125 C-5.65246094 0.04050781 -4.86742187 -0.23148437 -4.05859375 -0.51171875 C-2 -1 -2 -1 0 0 Z " fill="#695526" transform="translate(336,66)"/>
<path d="M0 0 C0.7425 0.391875 1.485 0.78375 2.25 1.1875 C2.25 2.1775 2.25 3.1675 2.25 4.1875 C-0.72 4.1875 -3.69 4.1875 -6.75 4.1875 C-6.75 2.1875 -6.75 2.1875 -5.0625 0.4375 C-2.75 -0.8125 -2.75 -0.8125 0 0 Z " fill="#E1CB62" transform="translate(340.75,98.8125)"/>
<path d="M0 0 C0 0.66 0 1.32 0 2 C1.98 2 3.96 2 6 2 C6 2.66 6 3.32 6 4 C2.7 4 -0.6 4 -4 4 C-4 3.01 -4 2.02 -4 1 C-2 0 -2 0 0 0 Z " fill="#FCDE5C" transform="translate(325,98)"/>
<path d="M0 0 C1.32 0 2.64 0 4 0 C4 1.98 4 3.96 4 6 C2.5199159 5.88637738 1.04089926 5.75877092 -0.4375 5.625 C-1.26121094 5.55539063 -2.08492188 5.48578125 -2.93359375 5.4140625 C-3.61550781 5.27742188 -4.29742187 5.14078125 -5 5 C-5.33 4.34 -5.66 3.68 -6 3 C-3.36 3.33 -0.72 3.66 2 4 C1.34 2.68 0.68 1.36 0 0 Z " fill="#413316" transform="translate(379,76)"/>
<path d="M0 0 C1.45945288 0.08708669 2.91765868 0.19526907 4.375 0.3125 C5.59316406 0.39951172 5.59316406 0.39951172 6.8359375 0.48828125 C9 1 9 1 11 4 C6.35108046 4.32434322 3.77593392 3.776422 0 1 C0 0.67 0 0.34 0 0 Z " fill="#4E3F1A" transform="translate(361,70)"/>
<path d="M0 0 C-1 2 -1 2 -3.8125 3.1875 C-6.85961076 3.96421451 -8.13749363 4.10096399 -11 3 C-7.16674383 0.29417212 -4.67461851 -0.32613618 0 0 Z " fill="#DDC769" transform="translate(350,64)"/>
<path d="M0 0 C1.65 0 3.3 0 5 0 C5 1.32 5 2.64 5 4 C5.33 4.99 5.66 5.98 6 7 C5.34 7 4.68 7 4 7 C4 6.34 4 5.68 4 5 C2.68 4.67 1.36 4.34 0 4 C0 2.68 0 1.36 0 0 Z " fill="#181816" transform="translate(349,125)"/>
<path d="M0 0 C2.31 0.33 4.62 0.66 7 1 C7 1.66 7 2.32 7 3 C8.65 3.33 10.3 3.66 12 4 C12 4.66 12 5.32 12 6 C7.76570244 4.68938409 3.92592596 3.05643741 0 1 C0 0.67 0 0.34 0 0 Z " fill="#E1C661" transform="translate(332,27)"/>
<path d="M0 0 C1.65 0 3.3 0 5 0 C5 0.66 5 1.32 5 2 C4.01 2 3.02 2 2 2 C2 2.99 2 3.98 2 5 C2.66 5.33 3.32 5.66 4 6 C2.68 6.33 1.36 6.66 0 7 C0 4.69 0 2.38 0 0 Z " fill="#4D3B17" transform="translate(320,70)"/>
<path d="M0 0 C0.99 0 1.98 0 3 0 C2.67 2.97 2.34 5.94 2 9 C1.34 9 0.68 9 0 9 C0 6.03 0 3.06 0 0 Z " fill="#1D1E1D" transform="translate(373,123)"/>
<path d="M0 0 C1.32 0 2.64 0 4 0 C4 0.66 4 1.32 4 2 C3.34 2 2.68 2 2 2 C2.33 3.32 2.66 4.64 3 6 C1.02 6.99 1.02 6.99 -1 8 C-0.67 5.36 -0.34 2.72 0 0 Z " fill="#101010" transform="translate(142,94)"/>
<path d="M0 0 C-2.95711562 1.64284201 -5.62008426 2.6442194 -9 3 C-9.66 2.34 -10.32 1.68 -11 1 C-6.92630576 -1.03684712 -4.41062136 -1.0257259 0 0 Z " fill="#584A21" transform="translate(333,73)"/>
<path d="M0 0 C1.98 0.495 1.98 0.495 4 1 C4 1.66 4 2.32 4 3 C4.66 3.33 5.32 3.66 6 4 C4.1875 4.625 4.1875 4.625 2 5 C1.01 4.34 0.02 3.68 -1 3 C-0.67 2.01 -0.34 1.02 0 0 Z " fill="#080808" transform="translate(349,129)"/>
<path d="M0 0 C1.9453125 -0.29296875 1.9453125 -0.29296875 4.125 -0.1875 C5.40375 -0.125625 6.6825 -0.06375 8 0 C8 0.66 8 1.32 8 2 C4.7 2.33 1.4 2.66 -2 3 C-1.34 2.01 -0.68 1.02 0 0 Z " fill="#483814" transform="translate(346,66)"/>
<path d="M0 0 C1.2065625 0.0309375 1.2065625 0.0309375 2.4375 0.0625 C2.4375 0.7225 2.4375 1.3825 2.4375 2.0625 C1.4475 2.3925 0.4575 2.7225 -0.5625 3.0625 C-2.22960346 4.56235609 -2.22960346 4.56235609 -3.5625 6.0625 C-3.605221 4.39638095 -3.60313832 2.72867115 -3.5625 1.0625 C-2.5625 0.0625 -2.5625 0.0625 0 0 Z " fill="#121211" transform="translate(302.5625,124.9375)"/>
<path d="M0 0 C7.50769231 -0.36923077 7.50769231 -0.36923077 10 1.5 C10.495 2.2425 10.495 2.2425 11 3 C10.67 3.66 10.34 4.32 10 5 C9.278125 4.525625 8.55625 4.05125 7.8125 3.5625 C5.10524774 2.05847097 3.03805725 1.43400818 0 1 C0 0.67 0 0.34 0 0 Z " fill="#E3CB60" transform="translate(351,92)"/>
<path d="M0 0 C1.45880109 0.14107747 2.91703551 0.28802415 4.375 0.4375 C5.59316406 0.55931641 5.59316406 0.55931641 6.8359375 0.68359375 C9 1 9 1 11 2 C11 2.66 11 3.32 11 4 C7.1936543 3.32829194 3.64793184 2.27253436 0 1 C0 0.67 0 0.34 0 0 Z " fill="#473816" transform="translate(323,26)"/>
<path d="M0 0 C2.16874252 0.50603992 3.99967627 0.99983813 6 2 C6 2.66 6 3.32 6 4 C3.03 3.505 3.03 3.505 0 3 C0 2.01 0 1.02 0 0 Z " fill="#B8A558" transform="translate(355,41)"/>
<path d="M0 0 C1.65 0 3.3 0 5 0 C5 0.66 5 1.32 5 2 C3.68 2 2.36 2 1 2 C1 2.99 1 3.98 1 5 C0.34 5 -0.32 5 -1 5 C-0.67 3.35 -0.34 1.7 0 0 Z " fill="#191A19" transform="translate(322,125)"/>
<path d="M0 0 C0.99 0.33 1.98 0.66 3 1 C3 1.99 3 2.98 3 4 C1.02 4 -0.96 4 -3 4 C-2.01 2.68 -1.02 1.36 0 0 Z " fill="#FCDE5A" transform="translate(354,98)"/>
<path d="M0 0 C1.134375 0.020625 2.26875 0.04125 3.4375 0.0625 C2.880625 0.330625 2.32375 0.59875 1.75 0.875 C-0.75962523 2.16372647 -3.15584236 3.59176478 -5.5625 5.0625 C-4.43693182 0.07784091 -4.43693182 0.07784091 0 0 Z " fill="#412F11" transform="translate(319.5625,94.9375)"/>
<path d="M0 0 C0.99 0.33 1.98 0.66 3 1 C2.67 1.99 2.34 2.98 2 4 C0.68 4 -0.64 4 -2 4 C-1.34 2.68 -0.68 1.36 0 0 Z " fill="#020202" transform="translate(208,115)"/>
</svg>
