<?xml version="1.0" standalone="no"?>
<!DOCTYPE svg PUBLIC "-//W3C//DTD SVG 20010904//EN"
 "http://www.w3.org/TR/2001/REC-SVG-20010904/DTD/svg10.dtd">
<svg version="1.0" xmlns="http://www.w3.org/2000/svg"
 width="612.000000pt" height="612.000000pt" viewBox="0 0 612.000000 612.000000"
 preserveAspectRatio="xMidYMid meet">

<g transform="translate(0.000000,612.000000) scale(0.100000,-0.100000)"
fill="#000000" stroke="none">
<path d="M2905 4566 c-155 -36 -272 -101 -385 -215 -123 -125 -182 -234 -216
-401 -19 -98 -15 -237 11 -335 69 -259 281 -473 542 -547 102 -29 295 -31 392
-4 268 74 477 278 553 541 18 64 23 104 23 205 0 151 -16 217 -82 350 -40 80
-62 110 -143 191 -81 82 -109 102 -190 142 -52 26 -122 54 -155 63 -83 22
-274 27 -350 10z m306 -204 c192 -53 354 -217 404 -408 32 -125 13 -293 -47
-408 -45 -86 -165 -204 -248 -244 -184 -89 -389 -82 -557 20 -108 66 -200 180
-244 304 -26 72 -36 215 -20 298 37 200 203 379 406 437 82 24 222 24 306 1z"/>
<path d="M2938 3000 c-474 -43 -897 -335 -1108 -765 -84 -174 -126 -346 -137
-567 l-6 -128 1373 0 1373 0 -6 128 c-11 231 -54 401 -149 587 -82 163 -188
299 -320 412 -234 199 -486 306 -788 333 -63 5 -122 9 -130 9 -8 -1 -54 -5
-102 -9z m267 -201 c193 -24 405 -111 567 -233 239 -182 406 -467 446 -765 l9
-61 -1168 0 -1169 0 6 33 c20 115 28 150 51 222 96 301 308 547 598 692 202
102 429 140 660 112z"/>
</g>
</svg>
