<svg xmlns="http://www.w3.org/2000/svg" version="1.1" xmlns:xlink="http://www.w3.org/1999/xlink" xmlns:svgjs="http://svgjs.dev/svgjs" width="500" height="500" preserveAspectRatio="none" viewBox="0 0 500 500"><g mask="url(&quot;#SvgjsMask1535&quot;)" fill="none"><rect width="500" height="500" x="0" y="0" fill="rgba(255, 255, 255, 1)"></rect><path d="M 0,31 C 33.4,54.6 100.2,155 167,149 C 233.8,143 267.4,11.8 334,1 C 400.6,-9.8 466.8,76.2 500,95L500 500L0 500z" fill="rgba(255, 255, 255, 1)"></path><path d="M 0,197 C 25,212.8 75,269.6 125,276 C 175,282.4 200,224.8 250,229 C 300,233.2 325,306.8 375,297 C 425,287.2 475,203.4 500,180L500 500L0 500z" fill="rgba(255, 255, 255, 1)"></path><path d="M 0,382 C 33.4,394.8 100.2,453.6 167,446 C 233.8,438.4 267.4,344.4 334,344 C 400.6,343.6 466.8,424 500,444L500 500L0 500z" fill="rgba(255, 200, 44, 1)"></path></g><defs><mask id="SvgjsMask1535"><rect width="500" height="500" fill="#ffffff"></rect></mask></defs></svg>