<svg xmlns="http://www.w3.org/2000/svg" xmlns:xlink="http://www.w3.org/1999/xlink" viewBox="0,0,256,256" width="200px" height="200px" fill-rule="nonzero"><g fill-opacity="0" fill="#dddddd" fill-rule="nonzero" stroke="none" stroke-width="1" stroke-linecap="butt" stroke-linejoin="miter" stroke-miterlimit="10" stroke-dasharray="" stroke-dashoffset="0" font-family="none" font-weight="none" font-size="none" text-anchor="none" style="mix-blend-mode: normal"><path d="M0,256v-256h256v256z" id="bgRectangle"></path></g><g fill="none" fill-rule="nonzero" stroke="none" stroke-width="1" stroke-linecap="butt" stroke-linejoin="miter" stroke-miterlimit="10" stroke-dasharray="" stroke-dashoffset="0" font-family="none" font-weight="none" font-size="none" text-anchor="none" style="mix-blend-mode: normal"><g transform="scale(2.56,2.56)"><path d="M77,12c-0.55228,0 -1,0.44772 -1,1c0,0.55228 0.44772,1 1,1c0.55228,0 1,-0.44772 1,-1c0,-0.55228 -0.44772,-1 -1,-1z" fill="#f1bc19"></path><path d="M50,13c-20.43454,0 -37,16.56546 -37,37c0,20.43454 16.56546,37 37,37c20.43454,0 37,-16.56546 37,-37c0,-20.43454 -16.56546,-37 -37,-37z" fill-opacity="0.45098" fill="#fcc419"></path><path d="M83,11c-2.20914,0 -4,1.79086 -4,4c0,2.20914 1.79086,4 4,4c2.20914,0 4,-1.79086 4,-4c0,-2.20914 -1.79086,-4 -4,-4z" fill="#f1bc19"></path><path d="M87,22c-1.10457,0 -2,0.89543 -2,2c0,1.10457 0.89543,2 2,2c1.10457,0 2,-0.89543 2,-2c0,-1.10457 -0.89543,-2 -2,-2z" fill="#fcc419"></path><path d="M81,74c-1.10457,0 -2,0.89543 -2,2c0,1.10457 0.89543,2 2,2c1.10457,0 2,-0.89543 2,-2c0,-1.10457 -0.89543,-2 -2,-2zM15,59c-2.20914,0 -4,1.79086 -4,4c0,2.20914 1.79086,4 4,4c2.20914,0 4,-1.79086 4,-4c0,-2.20914 -1.79086,-4 -4,-4z" fill="#fbcd59"></path><path d="M25,85c-1.10457,0 -2,0.89543 -2,2c0,1.10457 0.89543,2 2,2c1.10457,0 2,-0.89543 2,-2c0,-1.10457 -0.89543,-2 -2,-2z" fill="#fcc419"></path><path d="M18.5,49c-1.38071,0 -2.5,1.11929 -2.5,2.5c0,1.38071 1.11929,2.5 2.5,2.5c1.38071,0 2.5,-1.11929 2.5,-2.5c0,-1.38071 -1.11929,-2.5 -2.5,-2.5zM79.5,32c-0.82843,0 -1.5,0.67157 -1.5,1.5c0,0.82843 0.67157,1.5 1.5,1.5c0.82843,0 1.5,-0.67157 1.5,-1.5c0,-0.82843 -0.67157,-1.5 -1.5,-1.5z" fill="#ffffff"></path><g><path d="M25,44.6v22.4h27v1h23v-23.4z" fill="#fdfcee"></path><path d="M30.375,67c0,0 0,-9.446 0,-12c0,-2.554 2.071,-4.625 4.625,-4.625c2.554,0 4.625,2.071 4.625,4.625c0,1.364 0,12 0,12z" fill="#b2b1c2"></path><path d="M25,44.6v1.4h27v1h23v-2.4z" fill="#cdcbbd"></path><path d="M73.353,30.9h-45.767l-4.604,13.2h54.053z" fill="#c32337"></path><path d="M25.4,44h-1.4v23.5c0,0.276 0.224,0.5 0.5,0.5h27.5v-1.4h-26.6z" fill="#472b29"></path><path d="M74.6,44v23.6h-22.2v-23.6h-1.4v24.5c0,0.276 0.224,0.5 0.5,0.5h24c0.276,0 0.5,-0.224 0.5,-0.5v-24.5z" fill="#472b29"></path><path d="M72.973,31.4l3.404,12.2h-52.691l4.255,-12.2l45.032,0M73.498,30h-46.047c-0.301,0 -0.569,0.189 -0.668,0.471l-4.744,13.6c-0.158,0.455 0.182,0.929 0.668,0.929h54.586c0.467,0 0.805,-0.441 0.681,-0.887l-3.795,-13.6c-0.085,-0.303 -0.363,-0.513 -0.681,-0.513z" fill="#472b29"></path><path d="M63.625,34h-34.25c-0.207,0 -0.375,-0.168 -0.375,-0.375c0,-0.207 0.168,-0.375 0.375,-0.375h34.25c0.207,0 0.375,0.168 0.375,0.375c0,0.207 -0.168,0.375 -0.375,0.375zM62.625,36h-33.75c-0.207,0 -0.375,-0.168 -0.375,-0.375c0,-0.207 0.168,-0.375 0.375,-0.375h33.75c0.207,0 0.375,0.168 0.375,0.375c0,0.207 -0.168,0.375 -0.375,0.375zM61.625,38h-33.25c-0.207,0 -0.375,-0.168 -0.375,-0.375c0,-0.207 0.168,-0.375 0.375,-0.375h33.25c0.207,0 0.375,0.168 0.375,0.375c0,0.207 -0.168,0.375 -0.375,0.375z" fill="#472b29"></path><path d="M71,27.25c-0.349,0 -4.649,0 -5,0c-0.414,0 -0.75,0.336 -0.75,0.75c0,0.414 0.336,0.75 0.75,0.75c0.351,0 4.651,0 5,0c0.414,0 0.75,-0.336 0.75,-0.75c0,-0.414 -0.336,-0.75 -0.75,-0.75z" fill="#fbb97f"></path><path d="M71,29h-5c-0.551,0 -1,-0.449 -1,-1c0,-0.551 0.449,-1 1,-1h5c0.551,0 1,0.449 1,1c0,0.551 -0.449,1 -1,1zM66,27.5c-0.276,0 -0.5,0.224 -0.5,0.5c0,0.276 0.224,0.5 0.5,0.5h5c0.276,0 0.5,-0.224 0.5,-0.5c0,-0.276 -0.224,-0.5 -0.5,-0.5z" fill="#472b29"></path><path d="M70.75,37.75h-4.5v-9h4.625z" fill="#fdd4b2"></path><path d="M70.75,38h-4.5c-0.138,0 -0.25,-0.112 -0.25,-0.25v-9c0,-0.138 0.112,-0.25 0.25,-0.25h4.625c0.067,0 0.131,0.027 0.178,0.074c0.047,0.048 0.073,0.112 0.072,0.179l-0.125,9c-0.002,0.137 -0.113,0.247 -0.25,0.247zM66.5,37.5h4.003l0.118,-8.5h-4.121zM74.875,47.5h-17.625c-0.138,0 -0.25,-0.112 -0.25,-0.25c0,-0.138 0.112,-0.25 0.25,-0.25h17.625c0.138,0 0.25,0.112 0.25,0.25c0,0.138 -0.112,0.25 -0.25,0.25zM55.75,47.5h-1.5c-0.138,0 -0.25,-0.112 -0.25,-0.25c0,-0.138 0.112,-0.25 0.25,-0.25h1.5c0.138,0 0.25,0.112 0.25,0.25c0,0.138 -0.112,0.25 -0.25,0.25zM43.75,46.5h-18.625c-0.138,0 -0.25,-0.112 -0.25,-0.25c0,-0.138 0.112,-0.25 0.25,-0.25h18.625c0.138,0 0.25,0.112 0.25,0.25c0,0.138 -0.112,0.25 -0.25,0.25zM47.75,46.5h-1.5c-0.138,0 -0.25,-0.112 -0.25,-0.25c0,-0.138 0.112,-0.25 0.25,-0.25h1.5c0.138,0 0.25,0.112 0.25,0.25c0,0.138 -0.112,0.25 -0.25,0.25z" fill="#472b29"></path><path d="M68.625,54.375v8.25h-10.25v-11.25h8.25z" fill-opacity="0.45098" fill="#fcc419"></path><path d="M68.625,63h-10.25c-0.207,0 -0.375,-0.168 -0.375,-0.375v-11.25c0,-0.207 0.168,-0.375 0.375,-0.375h8.25c0.207,0 0.375,0.168 0.375,0.375c0,0.207 -0.168,0.375 -0.375,0.375h-7.875v10.5h9.5v-7.875c0,-0.207 0.168,-0.375 0.375,-0.375c0.207,0 0.375,0.168 0.375,0.375v8.25c0,0.207 -0.168,0.375 -0.375,0.375z" fill="#472b29"></path><path d="M63.5,63c-0.207,0 -0.375,-0.168 -0.375,-0.375v-11.25c0,-0.207 0.168,-0.375 0.375,-0.375c0.207,0 0.375,0.168 0.375,0.375v11.25c0,0.207 -0.168,0.375 -0.375,0.375z" fill="#472b29"></path><path d="M48.625,56.625l0.003,-5.25h-6.25l-0.003,7.25h5.25z" fill-opacity="0.45098" fill="#fcc419"></path><path d="M47.625,59h-5.25c-0.1,0 -0.195,-0.04 -0.265,-0.11c-0.07,-0.07 -0.11,-0.166 -0.11,-0.265l0.003,-7.25c0,-0.207 0.168,-0.375 0.375,-0.375h6.25c0.1,0 0.195,0.04 0.265,0.11c0.07,0.07 0.11,0.166 0.11,0.265l-0.003,5.25c0,0.207 -0.168,0.375 -0.375,0.375v0c-0.208,0 -0.375,-0.168 -0.375,-0.375l0.003,-4.875h-5.5l-0.003,6.5h4.875c0.207,0 0.375,0.168 0.375,0.375c0,0.207 -0.168,0.375 -0.375,0.375z" fill="#472b29"></path><path d="M45.503,58.987c-0.207,0 -0.375,-0.168 -0.375,-0.375v-7.237c0,-0.207 0.168,-0.375 0.375,-0.375c0.207,0 0.375,0.168 0.375,0.375v7.237c0,0.207 -0.168,0.375 -0.375,0.375zM39.625,67.375c-0.207,0 -0.375,-0.168 -0.375,-0.375v-12c0,-2.343 -1.907,-4.25 -4.25,-4.25c-2.343,0 -4.25,1.907 -4.25,4.25v12c0,0.207 -0.168,0.375 -0.375,0.375c-0.207,0 -0.375,-0.168 -0.375,-0.375v-12c0,-2.757 2.243,-5 5,-5c2.757,0 5,2.243 5,5v12c0,0.207 -0.168,0.375 -0.375,0.375z" fill="#472b29"></path><path d="M37.75,56c0,0.547 0,1.75 0,1.75h-5.5c0,0 0,-0.231 0,-1.75c0,-1.519 1.231,-2.75 2.75,-2.75c1.519,0 2.75,1.231 2.75,2.75z" fill-opacity="0.45098" fill="#fcc419"></path><path d="M37.75,58h-5.5c-0.138,0 -0.25,-0.112 -0.25,-0.25v-1.75c0,-1.654 1.346,-3 3,-3c1.654,0 3,1.346 3,3v1.75c0,0.138 -0.112,0.25 -0.25,0.25zM32.5,57.5h5v-1.5c0,-1.378 -1.122,-2.5 -2.5,-2.5c-1.378,0 -2.5,1.122 -2.5,2.5zM37.75,61h-0.5c-0.138,0 -0.25,-0.112 -0.25,-0.25c0,-0.138 0.112,-0.25 0.25,-0.25h0.5c0.138,0 0.25,0.112 0.25,0.25c0,0.138 -0.112,0.25 -0.25,0.25z" fill="#472b29"></path></g></g></g><g fill="#000000" fill-rule="nonzero" stroke="none" stroke-width="1" stroke-linecap="butt" stroke-linejoin="miter" stroke-miterlimit="10" stroke-dasharray="" stroke-dashoffset="0" font-family="none" font-weight="none" font-size="none" text-anchor="none" style="mix-blend-mode: normal"><g><path d="M16.672,232.42l0.95,3.39c0.16667,0.16667 0.40333,0.32333 0.71,0.47c0.30667,0.14667 0.71333,0.22 1.22,0.22v0c0.84667,0 1.55,-0.22 2.11,-0.66c0.56,-0.43333 0.84,-1.04333 0.84,-1.83v0c0,-0.56667 -0.18,-1.04333 -0.54,-1.43c-0.36,-0.38 -0.81667,-0.73333 -1.37,-1.06c-0.55333,-0.32 -1.14333,-0.63667 -1.77,-0.95c-0.63333,-0.32 -1.22667,-0.69333 -1.78,-1.12c-0.55333,-0.43333 -1.01,-0.94333 -1.37,-1.53c-0.36,-0.59333 -0.54,-1.32667 -0.54,-2.2v0c0,-0.75333 0.13667,-1.40667 0.41,-1.96c0.28,-0.55333 0.66,-1.01 1.14,-1.37c0.48667,-0.36 1.06,-0.63 1.72,-0.81c0.66,-0.17333 1.37333,-0.26 2.14,-0.26v0c0.94,0 1.81333,0.06333 2.62,0.19c0.80667,0.13333 1.53333,0.33667 2.18,0.61v0c-0.02,0.30667 -0.04667,0.66 -0.08,1.06c-0.04,0.4 -0.09,0.79667 -0.15,1.19c-0.06667,0.39333 -0.13333,0.76 -0.2,1.1c-0.06667,0.34667 -0.13333,0.63667 -0.2,0.87v0h-0.94l-1.06,-3.16c-0.18667,-0.09333 -0.46,-0.17667 -0.82,-0.25c-0.36,-0.08 -0.73333,-0.12 -1.12,-0.12v0c-0.64,0 -1.18333,0.17 -1.63,0.51c-0.44667,0.34 -0.67,0.83 -0.67,1.47v0c0,0.58667 0.18333,1.08333 0.55,1.49c0.37333,0.40667 0.83667,0.78 1.39,1.12c0.54667,0.33333 1.14667,0.66667 1.8,1c0.65333,0.33333 1.25667,0.71333 1.81,1.14c0.55333,0.43333 1.01333,0.93667 1.38,1.51c0.37333,0.57333 0.56,1.28333 0.56,2.13v0c0,1.54 -0.52,2.72667 -1.56,3.56c-1.03333,0.84 -2.55667,1.26 -4.57,1.26v0c-0.49333,0 -0.99,-0.03333 -1.49,-0.1c-0.5,-0.06 -0.97,-0.14333 -1.41,-0.25c-0.44667,-0.10667 -0.84333,-0.22 -1.19,-0.34c-0.34667,-0.12667 -0.60333,-0.26 -0.77,-0.4v0c0.01333,-0.35333 0.05,-0.73333 0.11,-1.14c0.06667,-0.40667 0.13333,-0.81333 0.2,-1.22c0.06667,-0.40667 0.14,-0.79333 0.22,-1.16c0.07333,-0.36667 0.15,-0.69 0.23,-0.97v0zM33.932,236.82v0.9h-6.36v-0.9c0.23333,-0.12 0.47,-0.22333 0.71,-0.31c0.24667,-0.08667 0.51667,-0.16667 0.81,-0.24v0v-8.43l-1.52,-0.19v-0.9c0.23333,-0.09333 0.52,-0.18333 0.86,-0.27c0.34667,-0.09333 0.71333,-0.17667 1.1,-0.25c0.38,-0.06667 0.75667,-0.12667 1.13,-0.18c0.36667,-0.05333 0.69,-0.09667 0.97,-0.13v0h0.78v10.35c0.30667,0.07333 0.58333,0.15333 0.83,0.24c0.24667,0.08667 0.47667,0.19 0.69,0.31zM28.702,222.42v0c0,-0.53333 0.18333,-0.95667 0.55,-1.27c0.37333,-0.30667 0.85,-0.46 1.43,-0.46v0c0.58667,0 1.06333,0.15333 1.43,0.46c0.36667,0.31333 0.55,0.73667 0.55,1.27v0c0,0.52 -0.18333,0.93667 -0.55,1.25c-0.36667,0.30667 -0.84333,0.46 -1.43,0.46v0c-0.58,0 -1.05667,-0.15333 -1.43,-0.46c-0.36667,-0.31333 -0.55,-0.73 -0.55,-1.25zM40.592,225.92v0c1,0 1.83,0.10333 2.49,0.31c0.66,0.21333 1.15667,0.47333 1.49,0.78v0c0.72667,-0.78667 1.55667,-1.33333 2.49,-1.64v0c0.10667,0.08 0.21333,0.19 0.32,0.33c0.11333,0.14667 0.20667,0.30667 0.28,0.48c0.08,0.16667 0.14333,0.33333 0.19,0.5c0.04,0.17333 0.06,0.31333 0.06,0.42v0l-0.29,0.55h-2.42c0.16667,0.21333 0.32333,0.49333 0.47,0.84c0.14667,0.34667 0.22,0.76 0.22,1.24v0c0,0.50667 -0.11,0.98 -0.33,1.42c-0.21333,0.44667 -0.53667,0.84333 -0.97,1.19c-0.44,0.34667 -0.99333,0.62 -1.66,0.82c-0.67333,0.2 -1.45333,0.3 -2.34,0.3v0c-0.26,0 -0.49333,-0.00333 -0.7,-0.01c-0.21333,-0.01333 -0.39667,-0.03333 -0.55,-0.06v0c-0.06,0.09333 -0.12333,0.20333 -0.19,0.33c-0.07333,0.13333 -0.11,0.26 -0.11,0.38v0c0,0.26 0.18667,0.46667 0.56,0.62c0.36667,0.16 0.83333,0.3 1.4,0.42c0.57333,0.12 1.18333,0.25667 1.83,0.41c0.65333,0.15333 1.26667,0.35667 1.84,0.61c0.56667,0.25333 1.04,0.58667 1.42,1c0.38667,0.40667 0.58667,0.93 0.6,1.57v0c0.02,0.62 -0.13333,1.16667 -0.46,1.64c-0.32,0.47333 -0.76,0.87667 -1.32,1.21c-0.56,0.32667 -1.22,0.58 -1.98,0.76c-0.76,0.17333 -1.57,0.26 -2.43,0.26v0c-1.01333,0 -1.88,-0.08 -2.6,-0.24c-0.71333,-0.16 -1.29333,-0.37667 -1.74,-0.65c-0.44,-0.28 -0.76333,-0.59667 -0.97,-0.95c-0.21333,-0.35333 -0.32,-0.72 -0.32,-1.1v0c0,-0.43333 0.08667,-0.80333 0.26,-1.11c0.16667,-0.30667 0.40333,-0.57667 0.71,-0.81c0.30667,-0.22667 0.66333,-0.41667 1.07,-0.57c0.40667,-0.15333 0.85667,-0.29333 1.35,-0.42v0c-0.22667,-0.06 -0.45,-0.13667 -0.67,-0.23c-0.21333,-0.09333 -0.40333,-0.20333 -0.57,-0.33c-0.17333,-0.13333 -0.31333,-0.28667 -0.42,-0.46c-0.10667,-0.18 -0.16,-0.38333 -0.16,-0.61v0c0,-0.2 0.06333,-0.39667 0.19,-0.59c0.12,-0.19333 0.28,-0.37 0.48,-0.53c0.2,-0.16 0.41333,-0.30667 0.64,-0.44c0.23333,-0.12667 0.46667,-0.23667 0.7,-0.33v0c-0.97333,-0.22 -1.74333,-0.64 -2.31,-1.26c-0.56667,-0.62 -0.85,-1.41333 -0.85,-2.38v0c0,-1.15333 0.47667,-2.05333 1.43,-2.7c0.95333,-0.64667 2.24333,-0.97 3.87,-0.97zM43.492,239.47v0c0,-0.41333 -0.12667,-0.74667 -0.38,-1c-0.25333,-0.25333 -0.58,-0.46 -0.98,-0.62c-0.4,-0.16667 -0.85,-0.30667 -1.35,-0.42c-0.49333,-0.11333 -0.98667,-0.24667 -1.48,-0.4v0c-0.4,0.30667 -0.68333,0.61333 -0.85,0.92c-0.17333,0.30667 -0.26,0.67667 -0.26,1.11v0c0,0.70667 0.24333,1.25333 0.73,1.64c0.48,0.39333 1.16,0.59 2.04,0.59v0c0.86,0 1.49667,-0.18 1.91,-0.54c0.41333,-0.36 0.62,-0.78667 0.62,-1.28zM38.612,229.7v0c0,0.8 0.13333,1.40667 0.4,1.82c0.26667,0.41333 0.79333,0.62 1.58,0.62v0c0.75333,0 1.27,-0.21 1.55,-0.63c0.28667,-0.42 0.43,-1.02333 0.43,-1.81v0c0,-0.82667 -0.14667,-1.44333 -0.44,-1.85c-0.29333,-0.40667 -0.80667,-0.61 -1.54,-0.61v0c-0.76667,0 -1.29,0.2 -1.57,0.6c-0.27333,0.39333 -0.41,1.01333 -0.41,1.86zM62.062,236.82v0.9h-6.1v-0.9c0.2,-0.10667 0.39333,-0.20333 0.58,-0.29c0.19333,-0.08 0.42,-0.16667 0.68,-0.26v0v-5.42c0,-0.96667 -0.13667,-1.72333 -0.41,-2.27c-0.28,-0.54 -0.77333,-0.81 -1.48,-0.81v0c-0.58,0 -1.08333,0.18667 -1.51,0.56c-0.42,0.38 -0.73667,0.89 -0.95,1.53v0v6.41c0.24667,0.06 0.46667,0.13333 0.66,0.22c0.18667,0.08 0.39,0.19 0.61,0.33v0v0.9h-6.11v-0.9c0.38667,-0.2 0.89333,-0.38333 1.52,-0.55v0v-8.43l-1.52,-0.19v-0.9c0.2,-0.09333 0.46,-0.18 0.78,-0.26c0.32667,-0.08667 0.67667,-0.16667 1.05,-0.24c0.38,-0.08 0.76333,-0.14667 1.15,-0.2c0.39333,-0.05333 0.75333,-0.09667 1.08,-0.13v0h0.78v2.38h0.02c0.32667,-0.64667 0.81,-1.20333 1.45,-1.67c0.64667,-0.47333 1.43,-0.71 2.35,-0.71v0c0.6,0 1.14,0.07333 1.62,0.22c0.47333,0.14667 0.87667,0.40333 1.21,0.77c0.32667,0.37333 0.58,0.87 0.76,1.49c0.17333,0.62 0.26,1.40667 0.26,2.36v0v5.51c0.61333,0.10667 1.12,0.29 1.52,0.55zM75.632,236.82v0.9h-6.36v-0.9c0.23333,-0.12 0.47333,-0.22333 0.72,-0.31c0.24667,-0.08667 0.51333,-0.16667 0.8,-0.24v0v-8.43l-1.52,-0.19v-0.9c0.23333,-0.09333 0.52333,-0.18333 0.87,-0.27c0.34667,-0.09333 0.71,-0.17667 1.09,-0.25c0.38667,-0.06667 0.76333,-0.12667 1.13,-0.18c0.36667,-0.05333 0.69,-0.09667 0.97,-0.13v0h0.78v10.35c0.30667,0.07333 0.58333,0.15333 0.83,0.24c0.24667,0.08667 0.47667,0.19 0.69,0.31zM70.402,222.42v0c0,-0.53333 0.18333,-0.95667 0.55,-1.27c0.37333,-0.30667 0.85,-0.46 1.43,-0.46v0c0.58667,0 1.06333,0.15333 1.43,0.46c0.36667,0.31333 0.55,0.73667 0.55,1.27v0c0,0.52 -0.18333,0.93667 -0.55,1.25c-0.36667,0.30667 -0.84333,0.46 -1.43,0.46v0c-0.58,0 -1.05667,-0.15333 -1.43,-0.46c-0.36667,-0.31333 -0.55,-0.73 -0.55,-1.25zM90.772,236.82v0.9h-6.11v-0.9c0.2,-0.10667 0.39667,-0.20333 0.59,-0.29c0.19333,-0.08 0.42,-0.16667 0.68,-0.26v0v-5.42c0,-0.96667 -0.13667,-1.72333 -0.41,-2.27c-0.28,-0.54 -0.77333,-0.81 -1.48,-0.81v0c-0.58,0 -1.08333,0.18667 -1.51,0.56c-0.42,0.38 -0.73667,0.89 -0.95,1.53v0v6.41c0.24,0.06 0.45667,0.13333 0.65,0.22c0.19333,0.08 0.39667,0.19 0.61,0.33v0v0.9h-6.1v-0.9c0.38,-0.2 0.88667,-0.38333 1.52,-0.55v0v-8.43l-1.52,-0.19v-0.9c0.2,-0.09333 0.46,-0.18 0.78,-0.26c0.32667,-0.08667 0.67667,-0.16667 1.05,-0.24c0.37333,-0.08 0.75667,-0.14667 1.15,-0.2c0.39333,-0.05333 0.75,-0.09667 1.07,-0.13v0h0.79v2.38h0.02c0.32,-0.64667 0.80333,-1.20333 1.45,-1.67c0.64667,-0.47333 1.43,-0.71 2.35,-0.71v0c0.6,0 1.13667,0.07333 1.61,0.22c0.48,0.14667 0.88333,0.40333 1.21,0.77c0.33333,0.37333 0.58667,0.87 0.76,1.49c0.18,0.62 0.27,1.40667 0.27,2.36v0v5.51c0.61333,0.10667 1.12,0.29 1.52,0.55zM103.032,237.72l-4.89,-10.07c-0.22667,-0.06 -0.43667,-0.13667 -0.63,-0.23c-0.19333,-0.09333 -0.39,-0.2 -0.59,-0.32v0v-0.9h6.06v0.88c-0.32,0.21333 -0.75667,0.40333 -1.31,0.57v0l2.32,5.78l0.4,1.48h0.04l0.37,-1.5l1.8,-5.76c-0.46,-0.09333 -0.88333,-0.27667 -1.27,-0.55v0v-0.9h4.45v0.9c-0.32667,0.21333 -0.76667,0.39667 -1.32,0.55v0l-3.75,10.07c-0.36667,0.98 -0.73667,1.78333 -1.11,2.41c-0.36667,0.62 -0.73333,1.11333 -1.1,1.48c-0.37333,0.37333 -0.74333,0.63333 -1.11,0.78c-0.36667,0.14 -0.73667,0.23333 -1.11,0.28v0c-0.15333,-0.13333 -0.29,-0.30333 -0.41,-0.51c-0.12,-0.21333 -0.22667,-0.43667 -0.32,-0.67c-0.09333,-0.24 -0.17,-0.48333 -0.23,-0.73c-0.06667,-0.24667 -0.10667,-0.47667 -0.12,-0.69v0l0.3,-0.55h2.81c0.14,-0.22 0.26,-0.45 0.36,-0.69c0.1,-0.24667 0.22,-0.61667 0.36,-1.11zM109.802,231.96v0c0,-0.94 0.14333,-1.78 0.43,-2.52c0.28,-0.74667 0.68667,-1.38 1.22,-1.9c0.52667,-0.52667 1.16667,-0.92667 1.92,-1.2c0.75333,-0.28 1.60667,-0.42 2.56,-0.42v0c1.07333,0 2,0.15 2.78,0.45c0.77333,0.3 1.41,0.71667 1.91,1.25c0.5,0.52667 0.86333,1.16333 1.09,1.91c0.23333,0.74667 0.35,1.55667 0.35,2.43v0c0,0.94 -0.14,1.78 -0.42,2.52c-0.27333,0.74667 -0.67667,1.38 -1.21,1.9c-0.52667,0.52667 -1.17,0.92667 -1.93,1.2c-0.76,0.28 -1.61667,0.42 -2.57,0.42v0c-1.04667,0 -1.95333,-0.15 -2.72,-0.45c-0.76667,-0.3 -1.40333,-0.71667 -1.91,-1.25c-0.50667,-0.52667 -0.88333,-1.16333 -1.13,-1.91c-0.24667,-0.74667 -0.37,-1.55667 -0.37,-2.43zM113.372,231.96v0c0,0.69333 0.04333,1.32667 0.13,1.9c0.08,0.57333 0.23,1.06 0.45,1.46c0.21333,0.4 0.50333,0.71333 0.87,0.94c0.37333,0.22 0.85,0.33 1.43,0.33v0c0.34,0 0.64667,-0.08 0.92,-0.24c0.28,-0.16 0.52,-0.42 0.72,-0.78c0.2,-0.36667 0.35,-0.84333 0.45,-1.43c0.1,-0.59333 0.15,-1.32 0.15,-2.18v0c0,-0.70667 -0.04333,-1.34333 -0.13,-1.91c-0.08667,-0.56667 -0.23333,-1.05 -0.44,-1.45c-0.20667,-0.4 -0.48667,-0.71333 -0.84,-0.94c-0.35333,-0.22 -0.8,-0.33 -1.34,-0.33v0c-0.39333,0 -0.73667,0.08 -1.03,0.24c-0.29333,0.16 -0.54,0.42 -0.74,0.78c-0.2,0.36667 -0.35,0.84333 -0.45,1.43c-0.1,0.59333 -0.15,1.32 -0.15,2.18zM124.412,233.16v0c0,-0.96667 0.02333,-1.86667 0.07,-2.7c0.04667,-0.82667 0.07,-1.7 0.07,-2.62v0l-1.52,-0.19v-0.9c0.24,-0.09333 0.54333,-0.18333 0.91,-0.27c0.36,-0.09333 0.73,-0.17667 1.11,-0.25c0.38667,-0.06667 0.76,-0.12667 1.12,-0.18c0.36,-0.05333 0.66333,-0.09667 0.91,-0.13v0h0.78c0,1.15333 -0.02333,2.28667 -0.07,3.4c-0.04,1.11333 -0.06,2.21 -0.06,3.29v0c0,1.25333 0.12667,2.15667 0.38,2.71c0.25333,0.55333 0.72333,0.83 1.41,0.83v0c0.48,0 0.92333,-0.18 1.33,-0.54c0.40667,-0.36 0.74,-0.94 1,-1.74v0v-6.03l-1.5,-0.19v-0.9c0.23333,-0.09333 0.52333,-0.18333 0.87,-0.27c0.34,-0.09333 0.7,-0.17667 1.08,-0.25c0.37333,-0.06667 0.74667,-0.12667 1.12,-0.18c0.36667,-0.05333 0.68667,-0.09667 0.96,-0.13v0h0.79v10.16l1.52,0.19v0.8c-0.21333,0.09333 -0.48333,0.18667 -0.81,0.28c-0.32,0.09333 -0.65667,0.18333 -1.01,0.27c-0.35333,0.08 -0.70333,0.14667 -1.05,0.2c-0.34667,0.05333 -0.65667,0.09667 -0.93,0.13v0h-0.79l-0.16,-2.74h-0.09c-0.08,0.32 -0.22,0.64667 -0.42,0.98c-0.19333,0.32667 -0.45,0.62667 -0.77,0.9c-0.31333,0.26667 -0.68333,0.48333 -1.11,0.65c-0.43333,0.17333 -0.91,0.26 -1.43,0.26v0c-0.58667,0 -1.10667,-0.07333 -1.56,-0.22c-0.45333,-0.14667 -0.84,-0.40333 -1.16,-0.77c-0.32667,-0.37333 -0.57333,-0.87 -0.74,-1.49c-0.16667,-0.62 -0.25,-1.40667 -0.25,-2.36zM146.942,228.85h-3.16c-0.18,0.09333 -0.39333,0.24667 -0.64,0.46c-0.24667,0.21333 -0.47,0.56667 -0.67,1.06v0v5.9c0.30667,0.02667 0.61333,0.08333 0.92,0.17c0.30667,0.08667 0.61333,0.21333 0.92,0.38v0v0.9h-6.68v-0.9c0.28,-0.15333 0.54333,-0.26667 0.79,-0.34c0.24,-0.08 0.48333,-0.15 0.73,-0.21v0v-8.43l-1.52,-0.19v-0.9c0.24667,-0.10667 0.55,-0.20667 0.91,-0.3c0.36,-0.08667 0.73333,-0.16667 1.12,-0.24c0.38667,-0.06667 0.76,-0.12333 1.12,-0.17c0.36,-0.04667 0.66333,-0.08667 0.91,-0.12v0h0.78v3.07h0.09c0.12667,-0.34 0.30667,-0.69333 0.54,-1.06c0.24,-0.36667 0.52333,-0.70667 0.85,-1.02c0.32,-0.30667 0.67333,-0.55 1.06,-0.73c0.38,-0.18667 0.77667,-0.27333 1.19,-0.26v0c0.17333,0.22 0.32,0.52333 0.44,0.91c0.12667,0.39333 0.22667,0.76667 0.3,1.12v0zM164.082,234.38v0c0,0.34 0.00333,0.63 0.01,0.87c0.01333,0.24667 0.03333,0.51 0.06,0.79v0l1.59,0.23v0.8c-0.18667,0.09333 -0.43667,0.18667 -0.75,0.28c-0.31333,0.09333 -0.64333,0.18333 -0.99,0.27c-0.34667,0.08 -0.68667,0.14667 -1.02,0.2c-0.34,0.05333 -0.64,0.09667 -0.9,0.13v0h-0.79c-0.15333,-0.35333 -0.24333,-0.70667 -0.27,-1.06c-0.03333,-0.35333 -0.05667,-0.78333 -0.07,-1.29v0h-0.12c-0.07333,0.30667 -0.20333,0.60333 -0.39,0.89c-0.18,0.28 -0.41333,0.53333 -0.7,0.76c-0.28667,0.22 -0.62,0.4 -1,0.54c-0.38667,0.14 -0.81667,0.21 -1.29,0.21v0c-0.50667,0 -0.97667,-0.07667 -1.41,-0.23c-0.42667,-0.15333 -0.80333,-0.37 -1.13,-0.65c-0.32,-0.27333 -0.57333,-0.60667 -0.76,-1c-0.18,-0.39333 -0.27,-0.83667 -0.27,-1.33v0c0,-0.68667 0.13,-1.25333 0.39,-1.7c0.26,-0.44667 0.67,-0.81333 1.23,-1.1c0.56,-0.28 1.28333,-0.49 2.17,-0.63c0.88,-0.14 1.95,-0.24 3.21,-0.3v0c0.12,-1.32 0.06667,-2.28667 -0.16,-2.9c-0.23333,-0.61333 -0.73333,-0.92 -1.5,-0.92v0c-0.47333,0 -0.91,0.07667 -1.31,0.23v0l-1.09,2.76h-1.01c-0.12,-0.18 -0.24,-0.39 -0.36,-0.63c-0.11333,-0.24 -0.22,-0.49333 -0.32,-0.76c-0.1,-0.27333 -0.18333,-0.54667 -0.25,-0.82c-0.07333,-0.27333 -0.12333,-0.54333 -0.15,-0.81v0c0.58,-0.4 1.33333,-0.71333 2.26,-0.94c0.92,-0.23333 1.89333,-0.35 2.92,-0.35v0c0.88,0 1.59667,0.09667 2.15,0.29c0.54667,0.19333 0.98,0.45333 1.3,0.78c0.31333,0.33333 0.53,0.72333 0.65,1.17c0.12667,0.44667 0.19,0.92333 0.19,1.43v0c0,0.92 -0.02,1.75333 -0.06,2.5c-0.04,0.74 -0.06,1.50333 -0.06,2.29zM158.902,236.15v0c0.32,0 0.59667,-0.06 0.83,-0.18c0.22667,-0.12667 0.42333,-0.27333 0.59,-0.44c0.16,-0.16667 0.28,-0.35 0.36,-0.55c0.08667,-0.2 0.15333,-0.37667 0.2,-0.53v0v-2.31c-0.72,0.02 -1.31,0.06667 -1.77,0.14c-0.46667,0.08 -0.83,0.20667 -1.09,0.38c-0.26,0.18 -0.44,0.40333 -0.54,0.67c-0.1,0.26667 -0.15,0.59333 -0.15,0.98v0c0,0.58667 0.14,1.04 0.42,1.36c0.27333,0.32 0.65667,0.48 1.15,0.48zM176.222,235.37l0.37,0.48c-0.10667,0.30667 -0.28333,0.58667 -0.53,0.84c-0.24667,0.25333 -0.54,0.48 -0.88,0.68c-0.34667,0.2 -0.74,0.35667 -1.18,0.47c-0.44,0.10667 -0.89667,0.16 -1.37,0.16v0c-1.01333,0 -1.88333,-0.14333 -2.61,-0.43c-0.73333,-0.28667 -1.33667,-0.69333 -1.81,-1.22c-0.48,-0.53333 -0.83333,-1.17 -1.06,-1.91c-0.23333,-0.74667 -0.35,-1.57333 -0.35,-2.48v0c0,-1.95333 0.53333,-3.44667 1.6,-4.48c1.06667,-1.04 2.58333,-1.56 4.55,-1.56v0c0.75333,0 1.44667,0.08333 2.08,0.25c0.62667,0.16 1.14667,0.34667 1.56,0.56v0c-0.02667,0.26 -0.06667,0.54667 -0.12,0.86c-0.05333,0.32 -0.11667,0.63667 -0.19,0.95c-0.06667,0.31333 -0.14667,0.62 -0.24,0.92c-0.09333,0.3 -0.18667,0.55 -0.28,0.75v0h-1.13l-0.96,-2.74c-0.10667,-0.08 -0.22333,-0.14 -0.35,-0.18c-0.12,-0.03333 -0.30333,-0.05 -0.55,-0.05v0c-0.4,0 -0.74667,0.07333 -1.04,0.22c-0.29333,0.14 -0.54333,0.38667 -0.75,0.74c-0.20667,0.35333 -0.36,0.82333 -0.46,1.41c-0.1,0.58667 -0.15,1.31 -0.15,2.17v0c0,0.62667 0.07,1.20667 0.21,1.74c0.14,0.52667 0.35,0.98667 0.63,1.38c0.28667,0.39333 0.64333,0.7 1.07,0.92c0.43333,0.22 0.94333,0.33 1.53,0.33v0c0.53333,0 1,-0.07667 1.4,-0.23c0.4,-0.15333 0.73667,-0.33667 1.01,-0.55zM187.032,235.37l0.37,0.48c-0.10667,0.30667 -0.28333,0.58667 -0.53,0.84c-0.24667,0.25333 -0.54333,0.48 -0.89,0.68c-0.34667,0.2 -0.73667,0.35667 -1.17,0.47c-0.44,0.10667 -0.89667,0.16 -1.37,0.16v0c-1.01333,0 -1.88667,-0.14333 -2.62,-0.43c-0.72667,-0.28667 -1.33,-0.69333 -1.81,-1.22c-0.47333,-0.53333 -0.82667,-1.17 -1.06,-1.91c-0.22667,-0.74667 -0.34,-1.57333 -0.34,-2.48v0c0,-1.95333 0.53333,-3.44667 1.6,-4.48c1.06667,-1.04 2.58333,-1.56 4.55,-1.56v0c0.75333,0 1.44333,0.08333 2.07,0.25c0.63333,0.16 1.15667,0.34667 1.57,0.56v0c-0.03333,0.26 -0.07667,0.54667 -0.13,0.86c-0.05333,0.32 -0.11333,0.63667 -0.18,0.95c-0.07333,0.31333 -0.15333,0.62 -0.24,0.92c-0.09333,0.3 -0.18667,0.55 -0.28,0.75v0h-1.13l-0.97,-2.74c-0.10667,-0.08 -0.22,-0.14 -0.34,-0.18c-0.12667,-0.03333 -0.31333,-0.05 -0.56,-0.05v0c-0.39333,0 -0.73667,0.07333 -1.03,0.22c-0.29333,0.14 -0.54333,0.38667 -0.75,0.74c-0.20667,0.35333 -0.36,0.82333 -0.46,1.41c-0.1,0.58667 -0.15,1.31 -0.15,2.17v0c0,0.62667 0.07,1.20667 0.21,1.74c0.13333,0.52667 0.34333,0.98667 0.63,1.38c0.28667,0.39333 0.64333,0.7 1.07,0.92c0.43333,0.22 0.94,0.33 1.52,0.33v0c0.54,0 1.01,-0.07667 1.41,-0.23c0.4,-0.15333 0.73667,-0.33667 1.01,-0.55zM188.412,231.96v0c0,-0.94 0.14333,-1.78 0.43,-2.52c0.28667,-0.74667 0.69333,-1.38 1.22,-1.9c0.53333,-0.52667 1.17333,-0.92667 1.92,-1.2c0.75333,-0.28 1.60667,-0.42 2.56,-0.42v0c1.07333,0 2,0.15 2.78,0.45c0.77333,0.3 1.41,0.71667 1.91,1.25c0.5,0.52667 0.86333,1.16333 1.09,1.91c0.23333,0.74667 0.35,1.55667 0.35,2.43v0c0,0.94 -0.13667,1.78 -0.41,2.52c-0.28,0.74667 -0.68333,1.38 -1.21,1.9c-0.53333,0.52667 -1.18,0.92667 -1.94,1.2c-0.76,0.28 -1.61667,0.42 -2.57,0.42v0c-1.04667,0 -1.95333,-0.15 -2.72,-0.45c-0.76667,-0.3 -1.40333,-0.71667 -1.91,-1.25c-0.50667,-0.52667 -0.88333,-1.16333 -1.13,-1.91c-0.24667,-0.74667 -0.37,-1.55667 -0.37,-2.43zM191.982,231.96v0c0,0.69333 0.04333,1.32667 0.13,1.9c0.08667,0.57333 0.23667,1.06 0.45,1.46c0.21333,0.4 0.50667,0.71333 0.88,0.94c0.36667,0.22 0.84,0.33 1.42,0.33v0c0.34,0 0.65,-0.08 0.93,-0.24c0.27333,-0.16 0.51,-0.42 0.71,-0.78c0.2,-0.36667 0.35,-0.84333 0.45,-1.43c0.1,-0.59333 0.15,-1.32 0.15,-2.18v0c0,-0.70667 -0.04333,-1.34333 -0.13,-1.91c-0.08,-0.56667 -0.22667,-1.05 -0.44,-1.45c-0.20667,-0.4 -0.48667,-0.71333 -0.84,-0.94c-0.35333,-0.22 -0.79667,-0.33 -1.33,-0.33v0c-0.4,0 -0.74667,0.08 -1.04,0.24c-0.29333,0.16 -0.54,0.42 -0.74,0.78c-0.2,0.36667 -0.35,0.84333 -0.45,1.43c-0.1,0.59333 -0.15,1.32 -0.15,2.18zM203.022,233.16v0c0,-0.96667 0.02333,-1.86667 0.07,-2.7c0.04667,-0.82667 0.07,-1.7 0.07,-2.62v0l-1.52,-0.19v-0.9c0.24667,-0.09333 0.55,-0.18333 0.91,-0.27c0.36,-0.09333 0.73333,-0.17667 1.12,-0.25c0.38,-0.06667 0.75,-0.12667 1.11,-0.18c0.36,-0.05333 0.66333,-0.09667 0.91,-0.13v0h0.79c0,1.15333 -0.02333,2.28667 -0.07,3.4c-0.04667,1.11333 -0.07,2.21 -0.07,3.29v0c0,1.25333 0.12667,2.15667 0.38,2.71c0.25333,0.55333 0.72667,0.83 1.42,0.83v0c0.47333,0 0.91333,-0.18 1.32,-0.54c0.40667,-0.36 0.74,-0.94 1,-1.74v0v-6.03l-1.5,-0.19v-0.9c0.23333,-0.09333 0.52333,-0.18333 0.87,-0.27c0.34667,-0.09333 0.70667,-0.17667 1.08,-0.25c0.38,-0.06667 0.75333,-0.12667 1.12,-0.18c0.36667,-0.05333 0.69,-0.09667 0.97,-0.13v0h0.78v10.16l1.52,0.19v0.8c-0.21333,0.09333 -0.48333,0.18667 -0.81,0.28c-0.32,0.09333 -0.65667,0.18333 -1.01,0.27c-0.35333,0.08 -0.70333,0.14667 -1.05,0.2c-0.34667,0.05333 -0.65667,0.09667 -0.93,0.13v0h-0.78l-0.17,-2.74h-0.09c-0.07333,0.32 -0.21,0.64667 -0.41,0.98c-0.2,0.32667 -0.45667,0.62667 -0.77,0.9c-0.32,0.26667 -0.69333,0.48333 -1.12,0.65c-0.43333,0.17333 -0.91,0.26 -1.43,0.26v0c-0.58667,0 -1.10667,-0.07333 -1.56,-0.22c-0.45333,-0.14667 -0.84,-0.40333 -1.16,-0.77c-0.32,-0.37333 -0.56667,-0.87 -0.74,-1.49c-0.16667,-0.62 -0.25,-1.40667 -0.25,-2.36zM230.282,236.82v0.9h-6.11v-0.9c0.2,-0.10667 0.39667,-0.20333 0.59,-0.29c0.19333,-0.08 0.42,-0.16667 0.68,-0.26v0v-5.42c0,-0.96667 -0.14,-1.72333 -0.42,-2.27c-0.27333,-0.54 -0.76333,-0.81 -1.47,-0.81v0c-0.58667,0 -1.09,0.18667 -1.51,0.56c-0.42,0.38 -0.74,0.89 -0.96,1.53v0v6.41c0.24667,0.06 0.46667,0.13333 0.66,0.22c0.19333,0.08 0.39667,0.19 0.61,0.33v0v0.9h-6.1v-0.9c0.38,-0.2 0.88667,-0.38333 1.52,-0.55v0v-8.43l-1.52,-0.19v-0.9c0.19333,-0.09333 0.45333,-0.18 0.78,-0.26c0.32,-0.08667 0.67,-0.16667 1.05,-0.24c0.37333,-0.08 0.75667,-0.14667 1.15,-0.2c0.39333,-0.05333 0.75,-0.09667 1.07,-0.13v0h0.78v2.38h0.03c0.32,-0.64667 0.80333,-1.20333 1.45,-1.67c0.64667,-0.47333 1.43,-0.71 2.35,-0.71v0c0.6,0 1.13667,0.07333 1.61,0.22c0.48,0.14667 0.88333,0.40333 1.21,0.77c0.33333,0.37333 0.58667,0.87 0.76,1.49c0.18,0.62 0.27,1.40667 0.27,2.36v0v5.51c0.61333,0.10667 1.12,0.29 1.52,0.55zM230.742,227.65v-0.9c0.58,-0.36667 1.19333,-0.62667 1.84,-0.78v0v-1.87c0.09333,-0.08667 0.25,-0.17333 0.47,-0.26c0.22667,-0.08667 0.46667,-0.16333 0.72,-0.23c0.25333,-0.07333 0.50333,-0.14 0.75,-0.2c0.24,-0.06 0.43667,-0.10667 0.59,-0.14v0h0.79v2.93h3.04v1.45h-3.04v5.97c0,0.95333 0.12,1.61333 0.36,1.98c0.23333,0.36667 0.62667,0.55 1.18,0.55v0c0.28,0 0.59333,-0.01667 0.94,-0.05c0.34,-0.04 0.65667,-0.11333 0.95,-0.22v0l0.16,0.76c-0.13333,0.13333 -0.33667,0.27667 -0.61,0.43c-0.26667,0.16 -0.57333,0.30667 -0.92,0.44c-0.34667,0.14 -0.72333,0.25667 -1.13,0.35c-0.40667,0.09333 -0.83333,0.14 -1.28,0.14v0c-0.99333,0 -1.73667,-0.26333 -2.23,-0.79c-0.49333,-0.52 -0.74,-1.36333 -0.74,-2.53v0v-7.03z"></path></g></g></svg>