<svg xmlns="http://www.w3.org/2000/svg" xmlns:xlink="http://www.w3.org/1999/xlink" viewBox="0,0,256,256" width="100px" height="100px" fill-rule="nonzero"><g fill-opacity="0" fill="#dddddd" fill-rule="nonzero" stroke="none" stroke-width="1" stroke-linecap="butt" stroke-linejoin="miter" stroke-miterlimit="10" stroke-dasharray="" stroke-dashoffset="0" font-family="none" font-weight="none" font-size="none" text-anchor="none" style="mix-blend-mode: normal"><path d="M0,256v-256h256v256z" id="bgRectangle"></path></g><g fill="none" fill-rule="nonzero" stroke="none" stroke-width="1" stroke-linecap="butt" stroke-linejoin="miter" stroke-miterlimit="10" stroke-dasharray="" stroke-dashoffset="0" font-family="none" font-weight="none" font-size="none" text-anchor="none" style="mix-blend-mode: normal"><g transform="scale(2.56,2.56)"><path d="M77,12c-0.55228,0 -1,0.44772 -1,1c0,0.55228 0.44772,1 1,1c0.55228,0 1,-0.44772 1,-1c0,-0.55228 -0.44772,-1 -1,-1z" fill="#f1bc19"></path><path d="M50,13c-20.43454,0 -37,16.56546 -37,37c0,20.43454 16.56546,37 37,37c20.43454,0 37,-16.56546 37,-37c0,-20.43454 -16.56546,-37 -37,-37z" fill="#fcc419"></path><path d="M83,11c-2.20914,0 -4,1.79086 -4,4c0,2.20914 1.79086,4 4,4c2.20914,0 4,-1.79086 4,-4c0,-2.20914 -1.79086,-4 -4,-4z" fill="#f1bc19"></path><path d="M87,22c-1.10457,0 -2,0.89543 -2,2c0,1.10457 0.89543,2 2,2c1.10457,0 2,-0.89543 2,-2c0,-1.10457 -0.89543,-2 -2,-2z" fill="#fcc419"></path><path d="M81,74c-1.10457,0 -2,0.89543 -2,2c0,1.10457 0.89543,2 2,2c1.10457,0 2,-0.89543 2,-2c0,-1.10457 -0.89543,-2 -2,-2zM15,59c-2.20914,0 -4,1.79086 -4,4c0,2.20914 1.79086,4 4,4c2.20914,0 4,-1.79086 4,-4c0,-2.20914 -1.79086,-4 -4,-4z" fill="#fbcd59"></path><path d="M25,85c-1.10457,0 -2,0.89543 -2,2c0,1.10457 0.89543,2 2,2c1.10457,0 2,-0.89543 2,-2c0,-1.10457 -0.89543,-2 -2,-2z" fill="#fcc419"></path><path d="M18.5,49c-1.38071,0 -2.5,1.11929 -2.5,2.5c0,1.38071 1.11929,2.5 2.5,2.5c1.38071,0 2.5,-1.11929 2.5,-2.5c0,-1.38071 -1.11929,-2.5 -2.5,-2.5zM79.5,32c-0.82843,0 -1.5,0.67157 -1.5,1.5c0,0.82843 0.67157,1.5 1.5,1.5c0.82843,0 1.5,-0.67157 1.5,-1.5c0,-0.82843 -0.67157,-1.5 -1.5,-1.5z" fill="#ffffff"></path><g><path d="M25,44.6v22.4h27v1h23v-23.4z" fill="#fdfcee"></path><path d="M30.375,67c0,0 0,-9.446 0,-12c0,-2.554 2.071,-4.625 4.625,-4.625c2.554,0 4.625,2.071 4.625,4.625c0,1.364 0,12 0,12z" fill="#b2b1c2"></path><path d="M25,44.6v1.4h27v1h23v-2.4z" fill="#cdcbbd"></path><path d="M73.353,30.9h-45.767l-4.604,13.2h54.053z" fill="#c32337"></path><path d="M25.4,44h-1.4v23.5c0,0.276 0.224,0.5 0.5,0.5h27.5v-1.4h-26.6z" fill="#472b29"></path><path d="M74.6,44v23.6h-22.2v-23.6h-1.4v24.5c0,0.276 0.224,0.5 0.5,0.5h24c0.276,0 0.5,-0.224 0.5,-0.5v-24.5z" fill="#472b29"></path><path d="M72.973,31.4l3.404,12.2h-52.691l4.255,-12.2l45.032,0M73.498,30h-46.047c-0.301,0 -0.569,0.189 -0.668,0.471l-4.744,13.6c-0.158,0.455 0.182,0.929 0.668,0.929h54.586c0.467,0 0.805,-0.441 0.681,-0.887l-3.795,-13.6c-0.085,-0.303 -0.363,-0.513 -0.681,-0.513z" fill="#472b29"></path><path d="M63.625,34h-34.25c-0.207,0 -0.375,-0.168 -0.375,-0.375c0,-0.207 0.168,-0.375 0.375,-0.375h34.25c0.207,0 0.375,0.168 0.375,0.375c0,0.207 -0.168,0.375 -0.375,0.375zM62.625,36h-33.75c-0.207,0 -0.375,-0.168 -0.375,-0.375c0,-0.207 0.168,-0.375 0.375,-0.375h33.75c0.207,0 0.375,0.168 0.375,0.375c0,0.207 -0.168,0.375 -0.375,0.375zM61.625,38h-33.25c-0.207,0 -0.375,-0.168 -0.375,-0.375c0,-0.207 0.168,-0.375 0.375,-0.375h33.25c0.207,0 0.375,0.168 0.375,0.375c0,0.207 -0.168,0.375 -0.375,0.375z" fill="#472b29"></path><path d="M71,27.25c-0.349,0 -4.649,0 -5,0c-0.414,0 -0.75,0.336 -0.75,0.75c0,0.414 0.336,0.75 0.75,0.75c0.351,0 4.651,0 5,0c0.414,0 0.75,-0.336 0.75,-0.75c0,-0.414 -0.336,-0.75 -0.75,-0.75z" fill="#fbb97f"></path><path d="M71,29h-5c-0.551,0 -1,-0.449 -1,-1c0,-0.551 0.449,-1 1,-1h5c0.551,0 1,0.449 1,1c0,0.551 -0.449,1 -1,1zM66,27.5c-0.276,0 -0.5,0.224 -0.5,0.5c0,0.276 0.224,0.5 0.5,0.5h5c0.276,0 0.5,-0.224 0.5,-0.5c0,-0.276 -0.224,-0.5 -0.5,-0.5z" fill="#472b29"></path><path d="M70.75,37.75h-4.5v-9h4.625z" fill="#fdd4b2"></path><path d="M70.75,38h-4.5c-0.138,0 -0.25,-0.112 -0.25,-0.25v-9c0,-0.138 0.112,-0.25 0.25,-0.25h4.625c0.067,0 0.131,0.027 0.178,0.074c0.047,0.048 0.073,0.112 0.072,0.179l-0.125,9c-0.002,0.137 -0.113,0.247 -0.25,0.247zM66.5,37.5h4.003l0.118,-8.5h-4.121zM74.875,47.5h-17.625c-0.138,0 -0.25,-0.112 -0.25,-0.25c0,-0.138 0.112,-0.25 0.25,-0.25h17.625c0.138,0 0.25,0.112 0.25,0.25c0,0.138 -0.112,0.25 -0.25,0.25zM55.75,47.5h-1.5c-0.138,0 -0.25,-0.112 -0.25,-0.25c0,-0.138 0.112,-0.25 0.25,-0.25h1.5c0.138,0 0.25,0.112 0.25,0.25c0,0.138 -0.112,0.25 -0.25,0.25zM43.75,46.5h-18.625c-0.138,0 -0.25,-0.112 -0.25,-0.25c0,-0.138 0.112,-0.25 0.25,-0.25h18.625c0.138,0 0.25,0.112 0.25,0.25c0,0.138 -0.112,0.25 -0.25,0.25zM47.75,46.5h-1.5c-0.138,0 -0.25,-0.112 -0.25,-0.25c0,-0.138 0.112,-0.25 0.25,-0.25h1.5c0.138,0 0.25,0.112 0.25,0.25c0,0.138 -0.112,0.25 -0.25,0.25z" fill="#472b29"></path><path d="M68.625,54.375v8.25h-10.25v-11.25h8.25z" fill="#fcc419"></path><path d="M68.625,63h-10.25c-0.207,0 -0.375,-0.168 -0.375,-0.375v-11.25c0,-0.207 0.168,-0.375 0.375,-0.375h8.25c0.207,0 0.375,0.168 0.375,0.375c0,0.207 -0.168,0.375 -0.375,0.375h-7.875v10.5h9.5v-7.875c0,-0.207 0.168,-0.375 0.375,-0.375c0.207,0 0.375,0.168 0.375,0.375v8.25c0,0.207 -0.168,0.375 -0.375,0.375z" fill="#472b29"></path><path d="M63.5,63c-0.207,0 -0.375,-0.168 -0.375,-0.375v-11.25c0,-0.207 0.168,-0.375 0.375,-0.375c0.207,0 0.375,0.168 0.375,0.375v11.25c0,0.207 -0.168,0.375 -0.375,0.375z" fill="#472b29"></path><path d="M48.625,56.625l0.003,-5.25h-6.25l-0.003,7.25h5.25z" fill="#fcc419"></path><path d="M47.625,59h-5.25c-0.1,0 -0.195,-0.04 -0.265,-0.11c-0.07,-0.07 -0.11,-0.166 -0.11,-0.265l0.003,-7.25c0,-0.207 0.168,-0.375 0.375,-0.375h6.25c0.1,0 0.195,0.04 0.265,0.11c0.07,0.07 0.11,0.166 0.11,0.265l-0.003,5.25c0,0.207 -0.168,0.375 -0.375,0.375v0c-0.208,0 -0.375,-0.168 -0.375,-0.375l0.003,-4.875h-5.5l-0.003,6.5h4.875c0.207,0 0.375,0.168 0.375,0.375c0,0.207 -0.168,0.375 -0.375,0.375z" fill="#472b29"></path><path d="M45.503,58.987c-0.207,0 -0.375,-0.168 -0.375,-0.375v-7.237c0,-0.207 0.168,-0.375 0.375,-0.375c0.207,0 0.375,0.168 0.375,0.375v7.237c0,0.207 -0.168,0.375 -0.375,0.375zM39.625,67.375c-0.207,0 -0.375,-0.168 -0.375,-0.375v-12c0,-2.343 -1.907,-4.25 -4.25,-4.25c-2.343,0 -4.25,1.907 -4.25,4.25v12c0,0.207 -0.168,0.375 -0.375,0.375c-0.207,0 -0.375,-0.168 -0.375,-0.375v-12c0,-2.757 2.243,-5 5,-5c2.757,0 5,2.243 5,5v12c0,0.207 -0.168,0.375 -0.375,0.375z" fill="#472b29"></path><path d="M37.75,56c0,0.547 0,1.75 0,1.75h-5.5c0,0 0,-0.231 0,-1.75c0,-1.519 1.231,-2.75 2.75,-2.75c1.519,0 2.75,1.231 2.75,2.75z" fill="#fcc419"></path><path d="M37.75,58h-5.5c-0.138,0 -0.25,-0.112 -0.25,-0.25v-1.75c0,-1.654 1.346,-3 3,-3c1.654,0 3,1.346 3,3v1.75c0,0.138 -0.112,0.25 -0.25,0.25zM32.5,57.5h5v-1.5c0,-1.378 -1.122,-2.5 -2.5,-2.5c-1.378,0 -2.5,1.122 -2.5,2.5zM37.75,61h-0.5c-0.138,0 -0.25,-0.112 -0.25,-0.25c0,-0.138 0.112,-0.25 0.25,-0.25h0.5c0.138,0 0.25,0.112 0.25,0.25c0,0.138 -0.112,0.25 -0.25,0.25z" fill="#472b29"></path></g></g></g><g fill="#000000" fill-rule="nonzero" stroke="none" stroke-width="1" stroke-linecap="butt" stroke-linejoin="miter" stroke-miterlimit="10" stroke-dasharray="" stroke-dashoffset="0" font-family="none" font-weight="none" font-size="none" text-anchor="none" style="mix-blend-mode: normal"><g><path d="M13.242,43.033h4.76c1.58667,0 2.80333,0.35 3.65,1.05c0.84667,0.70667 1.27,1.70667 1.27,3v0c0,0.70667 -0.19667,1.33333 -0.59,1.88c-0.39333,0.54667 -0.95667,0.97667 -1.69,1.29v0c0.79333,0.26 1.36667,0.68333 1.72,1.27c0.34667,0.58667 0.52,1.31 0.52,2.17v0v1.17c0,0.44667 0.05667,0.77667 0.17,0.99c0.11333,0.21333 0.3,0.34 0.56,0.38v0l0.48,0.06v1.29h-1.06c-0.76667,0 -1.31,-0.26667 -1.63,-0.8c-0.32667,-0.53333 -0.49,-1.18 -0.49,-1.94v0v-1.13c0,-0.79333 -0.23,-1.43 -0.69,-1.91c-0.46,-0.48 -1.07667,-0.72 -1.85,-0.72v0h-3.16v4.96l1.63,0.28v1.26h-5.23v-1.26l1.63,-0.28v-11.47l-1.63,-0.28v-1.26zM15.212,44.573v4.96h2.59c1.1,0 1.9,-0.21 2.4,-0.63c0.5,-0.42 0.75,-1.03333 0.75,-1.84v0c0,-0.76667 -0.24,-1.37333 -0.72,-1.82c-0.48,-0.44667 -1.22333,-0.67 -2.23,-0.67v0zM25.662,52.293v-0.22c0,-1.6 0.43333,-2.91667 1.3,-3.95c0.86667,-1.04 2.04333,-1.56 3.53,-1.56v0c1.49333,0 2.67333,0.51667 3.54,1.55c0.87333,1.03333 1.31,2.35333 1.31,3.96v0v0.22c0,1.61333 -0.43333,2.93333 -1.3,3.96c-0.86667,1.02667 -2.04333,1.54 -3.53,1.54v0c-1.5,0 -2.68333,-0.51667 -3.55,-1.55c-0.86667,-1.02667 -1.3,-2.34333 -1.3,-3.95zM27.632,52.073v0.22c0,1.14667 0.24,2.09333 0.72,2.84c0.48667,0.74667 1.20667,1.12 2.16,1.12v0c0.93333,0 1.64333,-0.37333 2.13,-1.12c0.48667,-0.74667 0.73,-1.69333 0.73,-2.84v0v-0.22c0,-1.13333 -0.24333,-2.07667 -0.73,-2.83c-0.48667,-0.75333 -1.20333,-1.13 -2.15,-1.13v0c-0.94667,0 -1.66,0.37667 -2.14,1.13c-0.48,0.75333 -0.72,1.69667 -0.72,2.83zM37.152,52.293v-0.22c0,-1.6 0.43333,-2.91667 1.3,-3.95c0.86667,-1.04 2.04333,-1.56 3.53,-1.56v0c1.49333,0 2.67667,0.51667 3.55,1.55c0.86667,1.03333 1.3,2.35333 1.3,3.96v0v0.22c0,1.61333 -0.43333,2.93333 -1.3,3.96c-0.86667,1.02667 -2.04333,1.54 -3.53,1.54v0c-1.5,0 -2.68333,-0.51667 -3.55,-1.55c-0.86667,-1.02667 -1.3,-2.34333 -1.3,-3.95zM39.122,52.073v0.22c0,1.14667 0.24333,2.09333 0.73,2.84c0.48,0.74667 1.19667,1.12 2.15,1.12v0c0.93333,0 1.64333,-0.37333 2.13,-1.12c0.48667,-0.74667 0.73,-1.69333 0.73,-2.84v0v-0.22c0,-1.13333 -0.24333,-2.07667 -0.73,-2.83c-0.48667,-0.75333 -1.20333,-1.13 -2.15,-1.13v0c-0.94667,0 -1.66,0.37667 -2.14,1.13c-0.48,0.75333 -0.72,1.69667 -0.72,2.83zM56.812,47.773l0.1,2.39h-1.48l-0.32,-1.3c-0.24,-0.22667 -0.54,-0.41 -0.9,-0.55c-0.36667,-0.13333 -0.78,-0.2 -1.24,-0.2v0c-0.7,0 -1.22,0.15333 -1.56,0.46c-0.34,0.30667 -0.51,0.67667 -0.51,1.11v0c0,0.42667 0.15,0.76333 0.45,1.01c0.3,0.24667 0.91,0.46667 1.83,0.66v0c1.36667,0.29333 2.38333,0.69333 3.05,1.2c0.66667,0.5 1,1.17333 1,2.02v0c0,0.96 -0.38667,1.73667 -1.16,2.33c-0.78,0.59333 -1.79667,0.89 -3.05,0.89v0c-0.82,0 -1.55667,-0.09333 -2.21,-0.28c-0.65333,-0.19333 -1.23667,-0.47 -1.75,-0.83v0l-0.01,-2.47h1.48l0.37,1.45c0.22667,0.20667 0.53667,0.35667 0.93,0.45c0.38667,0.09333 0.78333,0.14 1.19,0.14v0c0.7,0 1.25,-0.14 1.65,-0.42c0.39333,-0.28667 0.59,-0.66 0.59,-1.12v0c0,-0.43333 -0.16333,-0.79 -0.49,-1.07c-0.33333,-0.28 -0.96,-0.52333 -1.88,-0.73v0c-1.31333,-0.28667 -2.30333,-0.67667 -2.97,-1.17c-0.66667,-0.49333 -1,-1.16 -1,-2v0c0,-0.88 0.37667,-1.63 1.13,-2.25c0.74667,-0.62 1.72,-0.93 2.92,-0.93v0c0.82,0 1.55667,0.10667 2.21,0.32c0.65333,0.21333 1.19667,0.51 1.63,0.89zM64.012,57.793v0c-1.50667,0 -2.70333,-0.5 -3.59,-1.5c-0.89333,-1.00667 -1.34,-2.31 -1.34,-3.91v0v-0.44c0,-1.54 0.45667,-2.82 1.37,-3.84c0.92,-1.02667 2.00667,-1.54 3.26,-1.54v0c1.45333,0 2.55667,0.44 3.31,1.32c0.74667,0.88 1.12,2.05333 1.12,3.52v0v1.23h-7.02l-0.03,0.05c0.02,1.04 0.28333,1.89333 0.79,2.56c0.50667,0.67333 1.21667,1.01 2.13,1.01v0c0.66667,0 1.25333,-0.09333 1.76,-0.28c0.5,-0.19333 0.93333,-0.45667 1.3,-0.79v0l0.77,1.28c-0.38667,0.37333 -0.89667,0.68667 -1.53,0.94c-0.64,0.26 -1.40667,0.39 -2.3,0.39zM63.712,48.113v0c-0.66,0 -1.22333,0.28 -1.69,0.84c-0.46667,0.55333 -0.75333,1.25 -0.86,2.09v0l0.02,0.05h4.99v-0.26c0,-0.77333 -0.20667,-1.42 -0.62,-1.94c-0.41333,-0.52 -1.02667,-0.78 -1.84,-0.78zM73.662,46.763v1.27l-1.3,0.2l2.23,6.16l0.18,0.78h0.06l0.19,-0.78l2.16,-6.16l-1.31,-0.2v-1.27h4.18v1.27l-0.89,0.15l-3.63,9.4h-1.49l-3.67,-9.4l-0.89,-0.15v-1.27zM86.192,57.793v0c-1.50667,0 -2.70333,-0.5 -3.59,-1.5c-0.89333,-1.00667 -1.34,-2.31 -1.34,-3.91v0v-0.44c0,-1.54 0.46,-2.82 1.38,-3.84c0.91333,-1.02667 1.99667,-1.54 3.25,-1.54v0c1.45333,0 2.55667,0.44 3.31,1.32c0.74667,0.88 1.12,2.05333 1.12,3.52v0v1.23h-7.02l-0.03,0.05c0.02,1.04 0.28333,1.89333 0.79,2.56c0.50667,0.67333 1.21667,1.01 2.13,1.01v0c0.66667,0 1.25333,-0.09333 1.76,-0.28c0.5,-0.19333 0.93333,-0.45667 1.3,-0.79v0l0.77,1.28c-0.38667,0.37333 -0.89667,0.68667 -1.53,0.94c-0.64,0.26 -1.40667,0.39 -2.3,0.39zM85.892,48.113v0c-0.66,0 -1.22333,0.28 -1.69,0.84c-0.46667,0.55333 -0.75333,1.25 -0.86,2.09v0l0.02,0.05h4.99v-0.26c0,-0.77333 -0.20667,-1.42 -0.62,-1.94c-0.41333,-0.52 -1.02667,-0.78 -1.84,-0.78zM93.622,43.533l-1.63,-0.28v-1.27h3.6v14.06l1.63,0.28v1.26h-5.23v-1.26l1.63,-0.28zM100.182,44.153h1.97v2.61h2.05v1.46h-2.05v6.57c0,0.50667 0.10667,0.86333 0.32,1.07c0.20667,0.20667 0.48333,0.31 0.83,0.31v0c0.17333,0 0.37,-0.01667 0.59,-0.05c0.21333,-0.02667 0.39333,-0.05667 0.54,-0.09v0l0.27,1.35c-0.18667,0.12 -0.46,0.21667 -0.82,0.29c-0.36,0.08 -0.72,0.12 -1.08,0.12v0c-0.8,0 -1.43667,-0.24333 -1.91,-0.73c-0.47333,-0.48 -0.71,-1.23667 -0.71,-2.27v0v-6.57h-1.71v-1.46h1.71zM112.752,43.023h5.06c1.55333,0 2.76333,0.4 3.63,1.2c0.86,0.8 1.29,1.85333 1.29,3.16v0c0,1.32 -0.43,2.37667 -1.29,3.17c-0.86667,0.79333 -2.07667,1.19 -3.63,1.19v0h-3.09v4.3l1.63,0.28v1.26h-5.23v-1.26l1.63,-0.28v-11.47l-1.63,-0.28v-1.27zM114.722,44.573v5.63h3.09c0.98667,0 1.72667,-0.26667 2.22,-0.8c0.48667,-0.52667 0.73,-1.19333 0.73,-2v0c0,-0.80667 -0.24333,-1.48 -0.73,-2.02c-0.49333,-0.54 -1.23333,-0.81 -2.22,-0.81v0zM133.842,57.583h-2.58c-0.06,-0.29333 -0.10667,-0.55667 -0.14,-0.79c-0.03333,-0.23333 -0.05667,-0.46667 -0.07,-0.7v0c-0.38,0.48667 -0.85333,0.89333 -1.42,1.22c-0.57333,0.32 -1.18333,0.48 -1.83,0.48v0c-1.12667,0 -1.98333,-0.27333 -2.57,-0.82c-0.58667,-0.55333 -0.88,-1.33 -0.88,-2.33v0c0,-1.02667 0.41667,-1.82 1.25,-2.38c0.82667,-0.55333 1.96333,-0.83 3.41,-0.83v0h2.03v-1.26c0,-0.63333 -0.2,-1.13667 -0.6,-1.51c-0.4,-0.36667 -0.95667,-0.55 -1.67,-0.55v0c-0.49333,0 -0.92667,0.06333 -1.3,0.19c-0.38,0.12667 -0.68667,0.3 -0.92,0.52v0l-0.21,1.14h-1.52v-2.1c0.49333,-0.39333 1.09,-0.71 1.79,-0.95c0.7,-0.23333 1.46,-0.35 2.28,-0.35v0c1.22667,0 2.22,0.31333 2.98,0.94c0.76,0.62667 1.14,1.52333 1.14,2.69v0v5.21c0,0.14 0.00333,0.27667 0.01,0.41c0,0.13333 0.00667,0.26667 0.02,0.4v0l0.8,0.11zM128.092,56.143v0c0.65333,0 1.25,-0.15667 1.79,-0.47c0.54,-0.31333 0.92667,-0.69 1.16,-1.13v0v-1.78h-2.1c-0.80667,0 -1.44333,0.18667 -1.91,0.56c-0.47333,0.37333 -0.71,0.82667 -0.71,1.36v0c0,0.47333 0.14667,0.83333 0.44,1.08c0.29333,0.25333 0.73667,0.38 1.33,0.38zM137.112,48.313l-1.63,-0.28v-1.27h3.39l0.19,1.57c0.30667,-0.55333 0.68667,-0.98667 1.14,-1.3c0.44667,-0.31333 0.96,-0.47 1.54,-0.47v0c0.15333,0 0.31333,0.01333 0.48,0.04c0.16,0.02 0.28333,0.04333 0.37,0.07v0l-0.26,1.83l-1.12,-0.06c-0.52,0 -0.95667,0.12333 -1.31,0.37c-0.35333,0.24 -0.62667,0.58 -0.82,1.02v0v6.21l1.63,0.28v1.26h-5.23v-1.26l1.63,-0.28zM145.112,43.533l-1.63,-0.28v-1.27h3.6v9.04h1.26l2.31,-2.86l-0.99,-0.13v-1.27h4.53v1.27l-1.32,0.26l-2.85,3.4l3.47,4.39l1.23,0.24v1.26h-4.49v-1.26l1.01,-0.13l-2.87,-3.6h-1.29v3.45l1.63,0.28v1.26h-5.23v-1.26l1.63,-0.28zM165.472,43.023v1.27l-1.33,0.21l3.26,9.46l0.33,1.15h0.06l0.33,-1.15l3.25,-9.47l-1.31,-0.2v-1.27h4.59v1.27l-1.17,0.16l-4.88,13.13h-1.69l-4.88,-13.13l-1.16,-0.16v-1.27zM175.992,57.583v-1.26l1.63,-0.28v-7.73l-1.63,-0.28v-1.27h3.6v9.28l1.63,0.28v1.26zM179.592,41.983v2.01h-1.97v-2.01zM184.082,43.533l-1.63,-0.28v-1.27h3.6v14.06l1.63,0.28v1.26h-5.23v-1.26l1.63,-0.28zM190.532,43.533l-1.63,-0.28v-1.27h3.6v14.06l1.63,0.28v1.26h-5.23v-1.26l1.63,-0.28zM205.262,57.583h-2.58c-0.06,-0.29333 -0.10667,-0.55667 -0.14,-0.79c-0.03333,-0.23333 -0.05667,-0.46667 -0.07,-0.7v0c-0.38,0.48667 -0.85667,0.89333 -1.43,1.22c-0.56667,0.32 -1.17333,0.48 -1.82,0.48v0c-1.12667,0 -1.98333,-0.27333 -2.57,-0.82c-0.58667,-0.55333 -0.88,-1.33 -0.88,-2.33v0c0,-1.02667 0.41333,-1.82 1.24,-2.38c0.83333,-0.55333 1.97333,-0.83 3.42,-0.83v0h2.03v-1.26c0,-0.63333 -0.2,-1.13667 -0.6,-1.51c-0.4,-0.36667 -0.95667,-0.55 -1.67,-0.55v0c-0.49333,0 -0.93,0.06333 -1.31,0.19c-0.37333,0.12667 -0.67667,0.3 -0.91,0.52v0l-0.21,1.14h-1.52v-2.1c0.49333,-0.39333 1.09,-0.71 1.79,-0.95c0.7,-0.23333 1.46,-0.35 2.28,-0.35v0c1.22667,0 2.22,0.31333 2.98,0.94c0.76,0.62667 1.14,1.52333 1.14,2.69v0v5.21c0,0.14 0,0.27667 0,0.41c0.00667,0.13333 0.01667,0.26667 0.03,0.4v0l0.8,0.11zM199.512,56.143v0c0.65333,0 1.25,-0.15667 1.79,-0.47c0.54,-0.31333 0.92667,-0.69 1.16,-1.13v0v-1.78h-2.1c-0.80667,0 -1.44667,0.18667 -1.92,0.56c-0.46667,0.37333 -0.7,0.82667 -0.7,1.36v0c0,0.47333 0.14667,0.83333 0.44,1.08c0.29333,0.25333 0.73667,0.38 1.33,0.38zM206.912,52.583v-0.21c0,-1.74 0.38,-3.14333 1.14,-4.21c0.76,-1.06667 1.81,-1.6 3.15,-1.6v0c0.68,0 1.27667,0.13333 1.79,0.4c0.51333,0.26667 0.94333,0.65333 1.29,1.16v0l0.18,-1.36h1.66v10.68c0,1.4 -0.39,2.5 -1.17,3.3c-0.78,0.80667 -1.89,1.21 -3.33,1.21v0c-0.52,0 -1.08333,-0.07 -1.69,-0.21c-0.60667,-0.14667 -1.14,-0.34333 -1.6,-0.59v0l0.51,-1.53c0.36667,0.19333 0.8,0.35333 1.3,0.48c0.5,0.12667 0.98667,0.19 1.46,0.19v0c0.88,0 1.52333,-0.24667 1.93,-0.74c0.41333,-0.49333 0.62,-1.19667 0.62,-2.11v0v-1.03c-0.35333,0.45333 -0.77667,0.79667 -1.27,1.03c-0.49333,0.23333 -1.06,0.35 -1.7,0.35v0c-1.32667,0 -2.37,-0.48 -3.13,-1.44c-0.76,-0.96 -1.14,-2.21667 -1.14,-3.77zM208.882,52.373v0.21c0,1.08667 0.23,1.96 0.69,2.62c0.46,0.66 1.16,0.99 2.1,0.99v0c0.59333,0 1.09,-0.13333 1.49,-0.4c0.4,-0.27333 0.73,-0.65667 0.99,-1.15v0v-4.98c-0.25333,-0.46 -0.58333,-0.82667 -0.99,-1.1c-0.40667,-0.26667 -0.89667,-0.4 -1.47,-0.4v0c-0.94,0 -1.64333,0.39333 -2.11,1.18c-0.46667,0.78667 -0.7,1.79667 -0.7,3.03zM223.432,57.793v0c-1.50667,0 -2.70333,-0.5 -3.59,-1.5c-0.89333,-1.00667 -1.34,-2.31 -1.34,-3.91v0v-0.44c0,-1.54 0.45667,-2.82 1.37,-3.84c0.92,-1.02667 2.00667,-1.54 3.26,-1.54v0c1.45333,0 2.55333,0.44 3.3,1.32c0.75333,0.88 1.13,2.05333 1.13,3.52v0v1.23h-7.02l-0.03,0.05c0.02,1.04 0.28333,1.89333 0.79,2.56c0.50667,0.67333 1.21667,1.01 2.13,1.01v0c0.66667,0 1.25,-0.09333 1.75,-0.28c0.50667,-0.19333 0.94333,-0.45667 1.31,-0.79v0l0.77,1.28c-0.38667,0.37333 -0.9,0.68667 -1.54,0.94c-0.63333,0.26 -1.39667,0.39 -2.29,0.39zM223.132,48.113v0c-0.66,0 -1.22333,0.28 -1.69,0.84c-0.46667,0.55333 -0.75333,1.25 -0.86,2.09v0l0.02,0.05h4.99v-0.26c0,-0.77333 -0.20667,-1.42 -0.62,-1.94c-0.41333,-0.52 -1.02667,-0.78 -1.84,-0.78zM236.952,57.583l-0.16,-1.29c-0.35333,0.49333 -0.78667,0.86667 -1.3,1.12c-0.50667,0.25333 -1.09667,0.38 -1.77,0.38v0c-1.32,0 -2.35333,-0.48 -3.1,-1.44c-0.74,-0.95333 -1.11,-2.21 -1.11,-3.77v0v-0.21c0,-1.74 0.37,-3.14333 1.11,-4.21c0.74667,-1.06667 1.78667,-1.6 3.12,-1.6v0c0.64,0 1.20333,0.11667 1.69,0.35c0.49333,0.24 0.91333,0.58333 1.26,1.03v0v-4.41l-1.63,-0.28v-1.27h1.63h1.97v14.06l1.63,0.28v1.26zM231.482,52.373v0.21c0,1.08667 0.22333,1.96 0.67,2.62c0.44667,0.66 1.13667,0.99 2.07,0.99v0c0.58667,0 1.08,-0.13333 1.48,-0.4c0.4,-0.26667 0.73,-0.64333 0.99,-1.13v0v-5.02c-0.25333,-0.45333 -0.58333,-0.81333 -0.99,-1.08c-0.40667,-0.26667 -0.89333,-0.4 -1.46,-0.4v0c-0.94,0 -1.63667,0.39 -2.09,1.17c-0.44667,0.78 -0.67,1.79333 -0.67,3.04z"></path></g></g></svg>