<?xml version="1.0" encoding="UTF-8"?>
<svg version="1.1" xmlns="http://www.w3.org/2000/svg" width="500" height="500">
<path d="M0 0 C33.99 0 67.98 0 103 0 C103.64954583 13.64046235 104.14085088 27.13604007 104.09765625 40.76953125 C104.09578302 42.55555684 104.09436342 44.34158296 104.09336853 46.12760925 C104.08961443 50.74858102 104.07984819 55.36951956 104.06866455 59.99047852 C104.05829431 64.7377884 104.05383805 69.48510384 104.04882812 74.23242188 C104.03821679 83.48829556 104.02123002 92.74414498 104 102 C93.3993941 103.35799725 82.75430534 103.14538002 72.08984375 103.1328125 C70.07011402 103.133487 68.05038436 103.13445825 66.03065491 103.13571167 C61.82064024 103.13717871 57.61064693 103.13506414 53.40063477 103.13037109 C47.99677577 103.12464125 42.59296609 103.12797952 37.18910885 103.13394356 C33.02939986 103.13754792 28.86970269 103.13641173 24.70999336 103.13381577 C22.71601925 103.13314786 20.72204408 103.13397018 18.72807121 103.13629532 C15.9540202 103.13882334 13.18005077 103.13498063 10.40600586 103.12939453 C9.5795607 103.13141876 8.75311554 103.13344299 7.90162659 103.13552856 C2.22854221 103.11427111 2.22854221 103.11427111 0 102 C0 74.61 0 47.22 0 19 C-5.61 20.98 -11.22 22.96 -17 25 C-17.99 25 -18.98 25 -20 25 C-20 25.66 -20 26.32 -20 27 C-19.19175781 26.71125 -18.38351562 26.4225 -17.55078125 26.125 C-16.48214844 25.75375 -15.41351563 25.3825 -14.3125 25 C-13.25675781 24.62875 -12.20101563 24.2575 -11.11328125 23.875 C-8 23 -8 23 -3 23 C-3 38.84 -3 54.68 -3 71 C-4.98 71 -6.96 71 -9 71 C-9.495 72.485 -9.495 72.485 -10 74 C-10.99 74 -11.98 74 -13 74 C-13 74.66 -13 75.32 -13 76 C-12.1028125 76.0928125 -12.1028125 76.0928125 -11.1875 76.1875 C-9 77 -9 77 -7.1875 79.3125 C-6 82 -6 82 -7 86 C-11.62 86 -16.24 86 -21 86 C-21 79 -21 79 -19.5 77.0625 C-19.005 76.711875 -18.51 76.36125 -18 76 C-20.81736172 75.21739952 -22.45969238 74.80488891 -25.25 75.8125 C-27.15074924 76.89399368 -27.15074924 76.89399368 -28 79 C-28.66 79 -29.32 79 -30 79 C-31.12516085 80.83284443 -31.12516085 80.83284443 -32 83 C-31.67 83.99 -31.34 84.98 -31 86 C-34.96 86 -38.92 86 -43 86 C-43 85.01 -43 84.02 -43 83 C-40.69 83 -38.38 83 -36 83 C-35.71125 82.401875 -35.4225 81.80375 -35.125 81.1875 C-34 79 -34 79 -32 76 C-31.34 76 -30.68 76 -30 76 C-29.67 75.01 -29.34 74.02 -29 73 C-25.54707645 71.3998647 -22.68112623 70.92069598 -18.9375 71.0625 C-14.74010642 70.99587471 -13.38628761 70.25752507 -10 68 C-8.68 68 -7.36 68 -6 68 C-6 54.14 -6 40.28 -6 26 C-9.96 27.32 -13.92 28.64 -18 30 C-19.65 30 -21.3 30 -23 30 C-23 28.02 -23 26.04 -23 24 C-5.76595745 16 -5.76595745 16 0 16 C0 10.72 0 5.44 0 0 Z M-18 80 C-18 80.99 -18 81.98 -18 83 C-15.03 83 -12.06 83 -9 83 C-9.66 82.67 -10.32 82.34 -11 82 C-11 81.01 -11 80.02 -11 79 C-14.89459074 78.78918149 -14.89459074 78.78918149 -18 80 Z " fill="#FDDD5A" transform="translate(335,189)"/>
<path d="M0 0 C0.72019318 0.32915405 1.44038635 0.65830811 2.18240356 0.99743652 C3.69190141 1.68922394 5.19944226 2.38529623 6.70507812 3.08544922 C9.01809326 4.16103069 11.33650279 5.2241828 13.65625 6.28515625 C15.12532396 6.96023295 16.59408557 7.63598989 18.0625 8.3125 C18.75721405 8.63230835 19.4519281 8.9521167 20.16769409 9.28161621 C25.01441959 11.53785709 25.01441959 11.53785709 26.1328125 12.65625 C26.17362033 14.65583364 26.17535606 16.65670254 26.1328125 18.65625 C21.36260339 17.91090483 17.89270296 16.44120892 13.1328125 14.65625 C13.1328125 20.59625 13.1328125 26.53625 13.1328125 32.65625 C5.44528784 35.67943386 -2.21087568 38.52402237 -10.10375977 40.95581055 C-11.71003645 41.46795365 -13.29172461 42.05597337 -14.8671875 42.65625 C-15.3621875 43.64625 -15.3621875 43.64625 -15.8671875 44.65625 C-15.08069824 44.37837646 -14.29420898 44.10050293 -13.48388672 43.81420898 C-10.54666424 42.78382112 -7.60548831 41.76591008 -4.66113281 40.75610352 C-2.76819125 40.10272559 -0.88013699 39.4352436 1.0078125 38.76757812 C2.20664062 38.35830078 3.40546875 37.94902344 4.640625 37.52734375 C5.74035645 37.14505615 6.84008789 36.76276855 7.97314453 36.36889648 C13.58020341 35.10425386 18.2571823 36.90509986 23.58984375 38.6875 C24.78416016 39.08582031 25.97847656 39.48414063 27.20898438 39.89453125 C28.44197266 40.31089844 29.67496094 40.72726563 30.9453125 41.15625 C32.19763672 41.57261719 33.44996094 41.98898438 34.74023438 42.41796875 C43.99931122 45.52274872 43.99931122 45.52274872 45.1328125 46.65625 C45.17362033 48.65583364 45.17535606 50.65670254 45.1328125 52.65625 C42.8228125 52.32625 40.5128125 51.99625 38.1328125 51.65625 C37.8028125 59.24625 37.4728125 66.83625 37.1328125 74.65625 C41.4228125 74.65625 45.7128125 74.65625 50.1328125 74.65625 C50.1328125 75.31625 50.1328125 75.97625 50.1328125 76.65625 C42.50545993 76.68193681 34.8781188 76.69925565 27.25073242 76.71118164 C24.66446516 76.71616172 22.07820064 76.7229482 19.49194336 76.73168945 C-5.31279468 76.81333138 -5.31279468 76.81333138 -17.06640625 76.27734375 C-17.84361526 76.24673355 -18.62082428 76.21612335 -19.42158508 76.18458557 C-24.62468206 75.89875544 -24.62468206 75.89875544 -26.8671875 73.65625 C-27.6303125 73.98625 -28.3934375 74.31625 -29.1796875 74.65625 C-31.8671875 75.65625 -31.8671875 75.65625 -34.8671875 75.65625 C-35.1971875 80.60625 -35.5271875 85.55625 -35.8671875 90.65625 C-36.5271875 90.65625 -37.1871875 90.65625 -37.8671875 90.65625 C-37.8671875 63.26625 -37.8671875 35.87625 -37.8671875 7.65625 C-43.4771875 9.63625 -49.0871875 11.61625 -54.8671875 13.65625 C-55.8571875 13.65625 -56.8471875 13.65625 -57.8671875 13.65625 C-57.8671875 14.31625 -57.8671875 14.97625 -57.8671875 15.65625 C-57.05894531 15.3675 -56.25070312 15.07875 -55.41796875 14.78125 C-54.34933594 14.41 -53.28070313 14.03875 -52.1796875 13.65625 C-51.12394531 13.285 -50.06820313 12.91375 -48.98046875 12.53125 C-45.8671875 11.65625 -45.8671875 11.65625 -40.8671875 11.65625 C-40.8671875 27.49625 -40.8671875 43.33625 -40.8671875 59.65625 C-42.8471875 59.65625 -44.8271875 59.65625 -46.8671875 59.65625 C-47.3621875 61.14125 -47.3621875 61.14125 -47.8671875 62.65625 C-48.8571875 62.65625 -49.8471875 62.65625 -50.8671875 62.65625 C-50.8671875 63.31625 -50.8671875 63.97625 -50.8671875 64.65625 C-49.97 64.7490625 -49.97 64.7490625 -49.0546875 64.84375 C-46.8671875 65.65625 -46.8671875 65.65625 -45.0546875 67.96875 C-43.8671875 70.65625 -43.8671875 70.65625 -44.8671875 74.65625 C-49.4871875 74.65625 -54.1071875 74.65625 -58.8671875 74.65625 C-58.8671875 67.65625 -58.8671875 67.65625 -57.3671875 65.71875 C-56.8721875 65.368125 -56.3771875 65.0175 -55.8671875 64.65625 C-58.68454922 63.87364952 -60.32687988 63.46113891 -63.1171875 64.46875 C-65.01793674 65.55024368 -65.01793674 65.55024368 -65.8671875 67.65625 C-66.5271875 67.65625 -67.1871875 67.65625 -67.8671875 67.65625 C-68.99234835 69.48909443 -68.99234835 69.48909443 -69.8671875 71.65625 C-69.5371875 72.64625 -69.2071875 73.63625 -68.8671875 74.65625 C-72.8271875 74.65625 -76.7871875 74.65625 -80.8671875 74.65625 C-80.8671875 73.66625 -80.8671875 72.67625 -80.8671875 71.65625 C-78.5571875 71.65625 -76.2471875 71.65625 -73.8671875 71.65625 C-73.5784375 71.058125 -73.2896875 70.46 -72.9921875 69.84375 C-71.8671875 67.65625 -71.8671875 67.65625 -69.8671875 64.65625 C-69.2071875 64.65625 -68.5471875 64.65625 -67.8671875 64.65625 C-67.5371875 63.66625 -67.2071875 62.67625 -66.8671875 61.65625 C-63.41426395 60.0561147 -60.54831373 59.57694598 -56.8046875 59.71875 C-52.60729392 59.65212471 -51.25347511 58.91377507 -47.8671875 56.65625 C-46.5471875 56.65625 -45.2271875 56.65625 -43.8671875 56.65625 C-43.8671875 42.79625 -43.8671875 28.93625 -43.8671875 14.65625 C-47.8271875 15.97625 -51.7871875 17.29625 -55.8671875 18.65625 C-57.5171875 18.65625 -59.1671875 18.65625 -60.8671875 18.65625 C-60.8671875 16.67625 -60.8671875 14.69625 -60.8671875 12.65625 C-43.63314495 4.65625 -43.63314495 4.65625 -37.8671875 4.65625 C-37.5371875 3.99625 -37.2071875 3.33625 -36.8671875 2.65625 C-35.20404032 2.30577837 -33.53618321 1.97771883 -31.8671875 1.65625 C-30.53887257 1.19700313 -29.21901988 0.71289713 -27.90625 0.2109375 C-27.18695313 -0.06105469 -26.46765625 -0.33304688 -25.7265625 -0.61328125 C-24.24115424 -1.18199525 -22.75930292 -1.76009104 -21.28125 -2.34765625 C-20.559375 -2.61707031 -19.8375 -2.88648438 -19.09375 -3.1640625 C-18.45002441 -3.41430176 -17.80629883 -3.66454102 -17.14306641 -3.92236328 C-10.91512755 -5.07548734 -5.49837498 -2.5761895 0 0 Z M-55.8671875 68.65625 C-55.8671875 69.64625 -55.8671875 70.63625 -55.8671875 71.65625 C-52.8971875 71.65625 -49.9271875 71.65625 -46.8671875 71.65625 C-47.5271875 71.32625 -48.1871875 70.99625 -48.8671875 70.65625 C-48.8671875 69.66625 -48.8671875 68.67625 -48.8671875 67.65625 C-52.76177824 67.44543149 -52.76177824 67.44543149 -55.8671875 68.65625 Z " fill="#FBDC5C" transform="translate(372.8671875,200.34375)"/>
<path d="M0 0 C0.72019318 0.32915405 1.44038635 0.65830811 2.18240356 0.99743652 C3.69190141 1.68922394 5.19944226 2.38529623 6.70507812 3.08544922 C9.01809326 4.16103069 11.33650279 5.2241828 13.65625 6.28515625 C15.12532396 6.96023295 16.59408557 7.63598989 18.0625 8.3125 C18.75721405 8.63230835 19.4519281 8.9521167 20.16769409 9.28161621 C25.01441959 11.53785709 25.01441959 11.53785709 26.1328125 12.65625 C26.17362033 14.65583364 26.17535606 16.65670254 26.1328125 18.65625 C21.36260339 17.91090483 17.89270296 16.44120892 13.1328125 14.65625 C13.1328125 20.59625 13.1328125 26.53625 13.1328125 32.65625 C5.44528784 35.67943386 -2.21087568 38.52402237 -10.10375977 40.95581055 C-11.71003645 41.46795365 -13.29172461 42.05597337 -14.8671875 42.65625 C-15.3621875 43.64625 -15.3621875 43.64625 -15.8671875 44.65625 C-15.08069824 44.37837646 -14.29420898 44.10050293 -13.48388672 43.81420898 C-10.54666424 42.78382112 -7.60548831 41.76591008 -4.66113281 40.75610352 C-2.76819125 40.10272559 -0.88013699 39.4352436 1.0078125 38.76757812 C2.20664062 38.35830078 3.40546875 37.94902344 4.640625 37.52734375 C5.74035645 37.14505615 6.84008789 36.76276855 7.97314453 36.36889648 C13.58020341 35.10425386 18.2571823 36.90509986 23.58984375 38.6875 C24.78416016 39.08582031 25.97847656 39.48414063 27.20898438 39.89453125 C28.44197266 40.31089844 29.67496094 40.72726563 30.9453125 41.15625 C32.19763672 41.57261719 33.44996094 41.98898438 34.74023438 42.41796875 C43.99931122 45.52274872 43.99931122 45.52274872 45.1328125 46.65625 C45.17362033 48.65583364 45.17535606 50.65670254 45.1328125 52.65625 C42.8228125 52.32625 40.5128125 51.99625 38.1328125 51.65625 C37.8028125 59.24625 37.4728125 66.83625 37.1328125 74.65625 C41.4228125 74.65625 45.7128125 74.65625 50.1328125 74.65625 C50.1328125 75.31625 50.1328125 75.97625 50.1328125 76.65625 C42.50545993 76.68193681 34.8781188 76.69925565 27.25073242 76.71118164 C24.66446516 76.71616172 22.07820064 76.7229482 19.49194336 76.73168945 C4.67028779 76.78047322 -10.07691099 76.67949119 -24.8671875 75.65625 C-24.1171875 69.03125 -24.1171875 69.03125 -21.8671875 65.65625 C-18.2421875 64.96875 -18.2421875 64.96875 -14.8671875 64.65625 C-14.3721875 63.17125 -14.3721875 63.17125 -13.8671875 61.65625 C-12.26603174 61.4069143 -10.66098591 61.18246352 -9.0546875 60.96875 C-8.16136719 60.84113281 -7.26804687 60.71351563 -6.34765625 60.58203125 C-3.8671875 60.65625 -3.8671875 60.65625 -2.28515625 62.12109375 C-1.81722656 62.62769531 -1.34929687 63.13429688 -0.8671875 63.65625 C3.77314118 63.95562604 7.59159222 63.56449406 12.1328125 62.65625 C13.6178125 63.15125 13.6178125 63.15125 15.1328125 63.65625 C16.3084375 63.841875 16.3084375 63.841875 17.5078125 64.03125 C20.63088228 64.77483804 22.59927006 65.67050052 25.1328125 67.65625 C26.4453125 70.84375 26.4453125 70.84375 27.1328125 73.65625 C29.7728125 73.65625 32.4128125 73.65625 35.1328125 73.65625 C35.1328125 65.40625 35.1328125 57.15625 35.1328125 48.65625 C37.4428125 48.98625 39.7528125 49.31625 42.1328125 49.65625 C42.6278125 48.66625 42.6278125 48.66625 43.1328125 47.65625 C42.46378906 47.50929687 41.79476562 47.36234375 41.10546875 47.2109375 C36.26712123 46.08090734 31.57956252 44.89026921 26.97265625 43.015625 C17.59844486 39.22537232 11.88261501 37.78628998 2.1328125 41.65625 C0.16275223 42.34508226 -1.81421927 43.00966035 -3.79443359 43.66870117 C-5.71065923 44.31217505 -7.61550513 44.98924651 -9.51953125 45.66796875 C-12.53790809 46.55904149 -14.75553249 46.87471534 -17.8671875 46.65625 C-17.8671875 45.00625 -17.8671875 43.35625 -17.8671875 41.65625 C-12.02044833 38.89233694 -6.07909926 36.57577857 0.0078125 34.40625 C0.75732178 34.13603027 1.50683105 33.86581055 2.27905273 33.58740234 C5.347017 32.50818406 7.85615454 31.65625 11.1328125 31.65625 C11.1328125 25.05625 11.1328125 18.45625 11.1328125 11.65625 C16.3955171 12.53336743 19.46402794 13.5086091 24.1328125 15.65625 C24.1328125 14.99625 24.1328125 14.33625 24.1328125 13.65625 C23.2761499 13.38965576 22.4194873 13.12306152 21.53686523 12.84838867 C18.0952796 11.64310555 14.93787133 10.19308922 11.66796875 8.58203125 C10.44377171 7.99068209 9.21914893 7.40021362 7.99414062 6.81054688 C6.08980577 5.89044185 4.18864586 4.96544108 2.29418945 4.02514648 C0.44708889 3.11104092 -1.40976223 2.22001919 -3.26953125 1.33203125 C-4.36773193 0.79489502 -5.46593262 0.25775879 -6.59741211 -0.2956543 C-11.85803227 -1.98189654 -16.4199883 -0.68754165 -21.50390625 1.109375 C-22.32270264 1.39659424 -23.14149902 1.68381348 -23.98510742 1.97973633 C-24.83306885 2.28548584 -25.68103027 2.59123535 -26.5546875 2.90625 C-27.43809814 3.21908936 -28.32150879 3.53192871 -29.23168945 3.85424805 C-35.01426426 5.92365068 -40.66348554 8.2185005 -46.30078125 10.65625 C-50.09650723 12.13525434 -53.86568132 12.92264053 -57.8671875 13.65625 C-57.8671875 14.31625 -57.8671875 14.97625 -57.8671875 15.65625 C-57.05894531 15.3675 -56.25070312 15.07875 -55.41796875 14.78125 C-54.34933594 14.41 -53.28070313 14.03875 -52.1796875 13.65625 C-51.12394531 13.285 -50.06820313 12.91375 -48.98046875 12.53125 C-45.8671875 11.65625 -45.8671875 11.65625 -40.8671875 11.65625 C-40.8671875 27.49625 -40.8671875 43.33625 -40.8671875 59.65625 C-42.8471875 59.65625 -44.8271875 59.65625 -46.8671875 59.65625 C-47.3621875 61.14125 -47.3621875 61.14125 -47.8671875 62.65625 C-48.8571875 62.65625 -49.8471875 62.65625 -50.8671875 62.65625 C-50.8671875 63.31625 -50.8671875 63.97625 -50.8671875 64.65625 C-49.97 64.7490625 -49.97 64.7490625 -49.0546875 64.84375 C-46.8671875 65.65625 -46.8671875 65.65625 -45.0546875 67.96875 C-43.8671875 70.65625 -43.8671875 70.65625 -44.8671875 74.65625 C-49.4871875 74.65625 -54.1071875 74.65625 -58.8671875 74.65625 C-58.8671875 67.65625 -58.8671875 67.65625 -57.3671875 65.71875 C-56.8721875 65.368125 -56.3771875 65.0175 -55.8671875 64.65625 C-58.68454922 63.87364952 -60.32687988 63.46113891 -63.1171875 64.46875 C-65.01793674 65.55024368 -65.01793674 65.55024368 -65.8671875 67.65625 C-66.5271875 67.65625 -67.1871875 67.65625 -67.8671875 67.65625 C-68.99234835 69.48909443 -68.99234835 69.48909443 -69.8671875 71.65625 C-69.5371875 72.64625 -69.2071875 73.63625 -68.8671875 74.65625 C-72.8271875 74.65625 -76.7871875 74.65625 -80.8671875 74.65625 C-80.8671875 73.66625 -80.8671875 72.67625 -80.8671875 71.65625 C-78.5571875 71.65625 -76.2471875 71.65625 -73.8671875 71.65625 C-73.5784375 71.058125 -73.2896875 70.46 -72.9921875 69.84375 C-71.8671875 67.65625 -71.8671875 67.65625 -69.8671875 64.65625 C-69.2071875 64.65625 -68.5471875 64.65625 -67.8671875 64.65625 C-67.5371875 63.66625 -67.2071875 62.67625 -66.8671875 61.65625 C-63.41426395 60.0561147 -60.54831373 59.57694598 -56.8046875 59.71875 C-52.60729392 59.65212471 -51.25347511 58.91377507 -47.8671875 56.65625 C-46.5471875 56.65625 -45.2271875 56.65625 -43.8671875 56.65625 C-43.8671875 42.79625 -43.8671875 28.93625 -43.8671875 14.65625 C-47.8271875 15.97625 -51.7871875 17.29625 -55.8671875 18.65625 C-57.5171875 18.65625 -59.1671875 18.65625 -60.8671875 18.65625 C-60.8671875 16.67625 -60.8671875 14.69625 -60.8671875 12.65625 C-43.63314495 4.65625 -43.63314495 4.65625 -37.8671875 4.65625 C-37.5371875 3.99625 -37.2071875 3.33625 -36.8671875 2.65625 C-35.20404032 2.30577837 -33.53618321 1.97771883 -31.8671875 1.65625 C-30.53887257 1.19700313 -29.21901988 0.71289713 -27.90625 0.2109375 C-27.18695313 -0.06105469 -26.46765625 -0.33304688 -25.7265625 -0.61328125 C-24.24115424 -1.18199525 -22.75930292 -1.76009104 -21.28125 -2.34765625 C-20.559375 -2.61707031 -19.8375 -2.88648438 -19.09375 -3.1640625 C-18.45002441 -3.41430176 -17.80629883 -3.66454102 -17.14306641 -3.92236328 C-10.91512755 -5.07548734 -5.49837498 -2.5761895 0 0 Z M-55.8671875 68.65625 C-55.8671875 69.64625 -55.8671875 70.63625 -55.8671875 71.65625 C-52.8971875 71.65625 -49.9271875 71.65625 -46.8671875 71.65625 C-47.5271875 71.32625 -48.1871875 70.99625 -48.8671875 70.65625 C-48.8671875 69.66625 -48.8671875 68.67625 -48.8671875 67.65625 C-52.76177824 67.44543149 -52.76177824 67.44543149 -55.8671875 68.65625 Z " fill="#080808" transform="translate(372.8671875,200.34375)"/>
<path d="M0 0 C1.30859375 1.921875 1.30859375 1.921875 2.30859375 9.921875 C21.11859375 10.416875 21.11859375 10.416875 40.30859375 10.921875 C40.96859375 8.611875 41.62859375 6.301875 42.30859375 3.921875 C44.43359375 1.484375 44.43359375 1.484375 46.30859375 -0.078125 C47.29859375 0.416875 47.29859375 0.416875 48.30859375 0.921875 C47.64859375 3.891875 46.98859375 6.861875 46.30859375 9.921875 C47.62859375 10.581875 48.94859375 11.241875 50.30859375 11.921875 C50.30859375 12.581875 50.30859375 13.241875 50.30859375 13.921875 C49.38046875 13.98375 48.45234375 14.045625 47.49609375 14.109375 C44.20854537 14.59263569 44.20854537 14.59263569 42.71484375 17.046875 C41.14331362 20.25978105 40.36260353 23.23868605 39.62109375 26.734375 C39.36972656 27.89582031 39.11835938 29.05726563 38.859375 30.25390625 C38.67761719 31.13433594 38.49585938 32.01476562 38.30859375 32.921875 C39.29859375 31.931875 39.29859375 31.931875 40.30859375 30.921875 C41.29859375 30.921875 42.28859375 30.921875 43.30859375 30.921875 C43.99609375 32.609375 43.99609375 32.609375 44.30859375 34.921875 C42.87109375 37.671875 42.87109375 37.671875 41.30859375 39.921875 C44.11342223 38.7791671 45.62957435 37.6008944 47.80859375 35.421875 C49.98761315 33.2428556 51.50376527 32.0645829 54.30859375 30.921875 C53.72978337 34.42560716 52.52351455 36.08981067 49.99609375 38.546875 C49.40183594 39.13726562 48.80757813 39.72765625 48.1953125 40.3359375 C46.28566652 41.94114717 44.62686897 43.00762562 42.30859375 43.921875 C39.55859375 43.546875 39.55859375 43.546875 37.30859375 42.921875 C36.31859375 45.561875 35.32859375 48.201875 34.30859375 50.921875 C33.31859375 50.921875 32.32859375 50.921875 31.30859375 50.921875 C31.63859375 47.291875 31.96859375 43.661875 32.30859375 39.921875 C31.42171875 41.22125 30.53484375 42.520625 29.62109375 43.859375 C26.70775895 47.78303493 26.70775895 47.78303493 23.43359375 48.921875 C22.73234375 48.921875 22.03109375 48.921875 21.30859375 48.921875 C21.20607703 43.79603889 21.27269176 38.97189722 22.30859375 33.921875 C19.93484514 33.58761765 19.93484514 33.58761765 17.30859375 33.921875 C15.59209702 35.65429936 15.59209702 35.65429936 14.30859375 37.921875 C12.93359375 40.171875 12.93359375 40.171875 11.30859375 41.921875 C8.734375 42.296875 8.734375 42.296875 6.30859375 41.921875 C4.49609375 39.921875 4.49609375 39.921875 3.30859375 37.921875 C1.65859375 38.911875 0.00859375 39.901875 -1.69140625 40.921875 C-2.69140625 39.921875 -2.69140625 39.921875 -2.7109375 37.99609375 C-2.376926 34.14550835 -2.11725464 31.56064758 0.05859375 28.296875 C2.30859375 26.921875 2.30859375 26.921875 5.05859375 27.171875 C5.80109375 27.419375 6.54359375 27.666875 7.30859375 27.921875 C7.26734375 28.994375 7.22609375 30.066875 7.18359375 31.171875 C7.29717625 34.57934985 7.52132739 36.12927131 9.30859375 38.921875 C12.13539185 35.25467746 14.41409509 32.0597321 15.93359375 27.671875 C17.18481884 24.25944294 17.76076751 23.20224987 20.30859375 20.921875 C21.79359375 21.416875 21.79359375 21.416875 23.30859375 21.921875 C22.43359375 27.671875 22.43359375 27.671875 21.30859375 29.921875 C23.28859375 29.591875 25.26859375 29.261875 27.30859375 28.921875 C27.17582031 29.57414062 27.04304688 30.22640625 26.90625 30.8984375 C26.72964844 31.77242188 26.55304688 32.64640625 26.37109375 33.546875 C26.19707031 34.40539062 26.02304688 35.26390625 25.84375 36.1484375 C25.28086112 39.06559882 24.78584162 41.9895953 24.30859375 44.921875 C25.43696784 43.34094446 26.56115893 41.75702784 27.68359375 40.171875 C28.31007813 39.29015625 28.9365625 38.4084375 29.58203125 37.5 C31.02340316 35.34772521 32.22357468 33.26726977 33.30859375 30.921875 C33.96859375 30.921875 34.62859375 30.921875 35.30859375 30.921875 C35.51355469 29.86226563 35.71851563 28.80265625 35.9296875 27.7109375 C36.20167041 26.32288678 36.47381419 24.93486756 36.74609375 23.546875 C36.88080078 22.84820312 37.01550781 22.14953125 37.15429688 21.4296875 C38.1953125 16.1484375 38.1953125 16.1484375 39.30859375 13.921875 C26.43859375 13.921875 13.56859375 13.921875 0.30859375 13.921875 C-0.18640625 16.396875 -0.18640625 16.396875 -0.69140625 18.921875 C-4.26518656 26.82542761 -8.62949422 33.16539831 -16.3359375 37.35546875 C-19.93843521 38.221741 -23.04553175 37.50475776 -26.69140625 36.921875 C-26.83763428 37.57784668 -26.9838623 38.23381836 -27.13452148 38.90966797 C-27.79661653 41.87268118 -28.46271044 44.83478123 -29.12890625 47.796875 C-29.35900391 48.82941406 -29.58910156 49.86195313 -29.82617188 50.92578125 C-30.04853516 51.91191406 -30.27089844 52.89804687 -30.5 53.9140625 C-30.70423584 54.82526855 -30.90847168 55.73647461 -31.11889648 56.67529297 C-31.69140625 58.921875 -31.69140625 58.921875 -32.69140625 60.921875 C-32.03140625 60.921875 -31.37140625 60.921875 -30.69140625 60.921875 C-31.35140625 62.571875 -32.01140625 64.221875 -32.69140625 65.921875 C-33.68140625 65.591875 -34.67140625 65.261875 -35.69140625 64.921875 C-34.37770955 53.54194814 -31.84500801 42.63970903 -29.06640625 31.546875 C-28.64130058 29.82827985 -28.21681743 28.10953059 -27.79296875 26.390625 C-26.76626342 22.23256821 -25.73122375 18.07667128 -24.69140625 13.921875 C-28.32140625 13.921875 -31.95140625 13.921875 -35.69140625 13.921875 C-35.69140625 17.221875 -35.69140625 20.521875 -35.69140625 23.921875 C-36.68140625 23.591875 -37.67140625 23.261875 -38.69140625 22.921875 C-38.69140625 19.951875 -38.69140625 16.981875 -38.69140625 13.921875 C-48.59140625 13.921875 -58.49140625 13.921875 -68.69140625 13.921875 C-68.69140625 12.931875 -68.69140625 11.941875 -68.69140625 10.921875 C-67.23118042 10.91571167 -67.23118042 10.91571167 -65.74145508 10.90942383 C-62.11608546 10.88758715 -58.49179423 10.83325284 -54.86694336 10.76928711 C-53.30064256 10.74614618 -51.73418703 10.73172052 -50.16772461 10.72631836 C-47.91031922 10.71699912 -45.65533404 10.67595267 -43.3984375 10.62890625 C-42.70240921 10.6328389 -42.00638092 10.63677155 -41.28926086 10.64082336 C-37.39899485 10.52509408 -35.83768885 10.04755406 -32.84521484 7.4765625 C-32.13445801 6.63351562 -31.42370117 5.79046875 -30.69140625 4.921875 C-28.5234375 3.33984375 -28.5234375 3.33984375 -26.50390625 2.109375 C-25.82972656 1.69042969 -25.15554687 1.27148438 -24.4609375 0.83984375 C-22.69140625 -0.078125 -22.69140625 -0.078125 -20.69140625 -0.078125 C-20.69140625 -0.738125 -20.69140625 -1.398125 -20.69140625 -2.078125 C-13.69873082 -3.15841306 -6.25342185 -3.98601485 0 0 Z M-18.69140625 1.921875 C-19.35140625 4.891875 -20.01140625 7.861875 -20.69140625 10.921875 C-14.09140625 10.921875 -7.49140625 10.921875 -0.69140625 10.921875 C0.0486298 4.298294 0.0486298 4.298294 -2.69140625 1.484375 C-7.54770539 -1.04494747 -14.11355159 -1.44419461 -18.69140625 1.921875 Z M-27.19140625 5.796875 C-28.00609375 6.33054687 -28.82078125 6.86421875 -29.66015625 7.4140625 C-31.80209583 8.76689772 -31.80209583 8.76689772 -32.69140625 10.921875 C-29.72140625 10.921875 -26.75140625 10.921875 -23.69140625 10.921875 C-23.03140625 8.281875 -22.37140625 5.641875 -21.69140625 2.921875 C-23.71359018 2.921875 -25.57490157 4.72773108 -27.19140625 5.796875 Z M-21.69140625 13.921875 C-22.37203125 16.29375 -23.05265625 18.665625 -23.75390625 21.109375 C-23.97183838 21.84696045 -24.18977051 22.5845459 -24.41430664 23.34448242 C-25.48513145 27.21817939 -25.9596938 30.07352821 -24.69140625 33.921875 C-23.60667213 35.2135101 -23.60667213 35.2135101 -21.00390625 35.234375 C-15.95723849 34.75827427 -13.25855953 32.62632163 -9.86328125 28.93359375 C-5.70244246 23.87240539 -4.13249976 20.4314577 -1.69140625 13.921875 C-8.29140625 13.921875 -14.89140625 13.921875 -21.69140625 13.921875 Z M2.30859375 29.921875 C1.31859375 31.406875 1.31859375 31.406875 0.30859375 32.921875 C0.63859375 33.911875 0.96859375 34.901875 1.30859375 35.921875 C2.62859375 33.941875 3.94859375 31.961875 5.30859375 29.921875 C4.31859375 29.921875 3.32859375 29.921875 2.30859375 29.921875 Z " fill="#0A0A0A" transform="translate(134.69140625,261.078125)"/>
<path d="M0 0 C0.33 0 0.66 0 1 0 C1 7.92 1 15.84 1 24 C5.29 24 9.58 24 14 24 C14 24.66 14 25.32 14 26 C6.37264743 26.02568681 -1.2546937 26.04300565 -8.88208008 26.05493164 C-11.46834734 26.05991172 -14.05461186 26.0666982 -16.64086914 26.07543945 C-31.46252471 26.12422322 -46.20972349 26.02324119 -61 25 C-60.25 18.375 -60.25 18.375 -58 15 C-54.375 14.3125 -54.375 14.3125 -51 14 C-50.67 13.01 -50.34 12.02 -50 11 C-48.39884424 10.7506643 -46.79379841 10.52621352 -45.1875 10.3125 C-44.29417969 10.18488281 -43.40085937 10.05726563 -42.48046875 9.92578125 C-40 10 -40 10 -38.41796875 11.46484375 C-37.71607422 12.22474609 -37.71607422 12.22474609 -37 13 C-32.35967132 13.29937604 -28.54122028 12.90824406 -24 12 C-23.01 12.33 -22.02 12.66 -21 13 C-20.21625 13.12375 -19.4325 13.2475 -18.625 13.375 C-15.50193022 14.11858804 -13.53354244 15.01425052 -11 17 C-9.6875 20.1875 -9.6875 20.1875 -9 23 C-6.36 23 -3.72 23 -1 23 C-1.00523682 22.3387915 -1.01047363 21.67758301 -1.01586914 20.99633789 C-1.03657656 18.01840149 -1.04964012 15.04048018 -1.0625 12.0625 C-1.07087891 11.02158203 -1.07925781 9.98066406 -1.08789062 8.90820312 C-1.09111328 7.91884766 -1.09433594 6.92949219 -1.09765625 5.91015625 C-1.10289307 4.99371338 -1.10812988 4.07727051 -1.11352539 3.13305664 C-1 1 -1 1 0 0 Z " fill="#090200" transform="translate(409,251)"/>
<path d="M0 0 C2.25 0.25 2.25 0.25 4 1 C4 4.66666667 4 8.33333333 4 12 C4.55429687 11.6390625 5.10859375 11.278125 5.6796875 10.90625 C6.40414063 10.4421875 7.12859375 9.978125 7.875 9.5 C8.59429687 9.0359375 9.31359375 8.571875 10.0546875 8.09375 C12 7 12 7 14 7 C14.28875 6.21625 14.5775 5.4325 14.875 4.625 C16 2 16 2 18 0 C18.99 0 19.98 0 21 0 C20.49844237 5.51713396 20.49844237 5.51713396 18 7.9375 C15.26721155 10.75568809 15.29411866 13.17645738 15 17 C20.40724888 14.29637556 22.70084717 12.18438302 26 7 C26.99 7 27.98 7 29 7 C27.56675594 12.25522824 24.13990485 15.6558868 20 19 C17.25 20.125 17.25 20.125 15 20 C12.48017068 18.38010972 12.05657891 17.22117209 11.3125 14.3125 C11.1578125 13.1678125 11.1578125 13.1678125 11 12 C6.30714065 14.75765962 2.78944425 17.10469955 1.3359375 22.5390625 C0.98866882 24.22905926 0.6691706 25.9249564 0.375 27.625 C-3.72698974 47.15132649 -3.72698974 47.15132649 -11 52 C-13.0625 51.9375 -13.0625 51.9375 -15 51 C-17.88410664 45.40776611 -16.77098546 40.82231059 -15 35 C-11.65197725 27.65842071 -6.52107865 21.80133645 -1 16 C-2.78705425 14.21294575 -4.54864616 14.17102469 -7 14 C-7.66 14.66 -8.32 15.32 -9 16 C-9.66 16.66 -10.32 17.32 -11 18 C-13.625 18 -13.625 18 -16 17 C-17.3125 14.9375 -17.3125 14.9375 -18 13 C-19.65 14.32 -21.3 15.64 -23 17 C-23.66 16.67 -24.32 16.34 -25 16 C-24.62598545 10.48328541 -24.34613514 6.86323124 -20 3 C-17.25 2.6875 -17.25 2.6875 -15 3 C-14.1276588 5.99480917 -13.89170234 8.63575911 -13.9375 11.75 C-13.94652344 12.54921875 -13.95554687 13.3484375 -13.96484375 14.171875 C-13.97644531 14.77515625 -13.98804688 15.3784375 -14 16 C-10.98431595 13.14303616 -8.75168667 10.75361429 -7 7 C-5.625 5.5 -5.625 5.5 -4 4 C-3.360625 3.2575 -2.72125 2.515 -2.0625 1.75 C-1.381875 1.1725 -0.70125 0.595 0 0 Z M0 3 C-1.84425989 5.26816301 -1.84425989 5.26816301 -3 8 C-2.67 8.99 -2.34 9.98 -2 11 C-0.35 8.36 1.3 5.72 3 3 C2.01 3 1.02 3 0 3 Z M-19 6 C-19.66 6.66 -20.32 7.32 -21 8 C-20.67 8.99 -20.34 9.98 -20 11 C-18.68 9.35 -17.36 7.7 -16 6 C-16.99 6 -17.98 6 -19 6 Z M-2 21 C-8.16109695 28.02843584 -14.17127819 35.34381487 -14.25 45.125 C-14.1675 46.07375 -14.085 47.0225 -14 48 C-12.68 48 -11.36 48 -10 48 C-6.27400689 42.50263312 -4.2193047 36.95116801 -2.625 30.5625 C-2.44549805 29.85222656 -2.26599609 29.14195312 -2.08105469 28.41015625 C-1.02329677 24.63418255 -1.02329677 24.63418255 -2 21 Z " fill="#0B0B0B" transform="translate(294,285)"/>
<path d="M0 0 C0.72019318 0.32915405 1.44038635 0.65830811 2.18240356 0.99743652 C3.69190141 1.68922394 5.19944226 2.38529623 6.70507812 3.08544922 C9.01809326 4.16103069 11.33650279 5.2241828 13.65625 6.28515625 C15.12532396 6.96023295 16.59408557 7.63598989 18.0625 8.3125 C18.75721405 8.63230835 19.4519281 8.9521167 20.16769409 9.28161621 C25.01441959 11.53785709 25.01441959 11.53785709 26.1328125 12.65625 C26.17362033 14.65583364 26.17535606 16.65670254 26.1328125 18.65625 C21.36260339 17.91090483 17.89270296 16.44120892 13.1328125 14.65625 C13.1328125 20.59625 13.1328125 26.53625 13.1328125 32.65625 C5.44528784 35.67943386 -2.21087568 38.52402237 -10.10375977 40.95581055 C-11.71003645 41.46795365 -13.29172461 42.05597337 -14.8671875 42.65625 C-15.1971875 43.31625 -15.5271875 43.97625 -15.8671875 44.65625 C-15.08069824 44.37837646 -14.29420898 44.10050293 -13.48388672 43.81420898 C-10.54666424 42.78382112 -7.60548831 41.76591008 -4.66113281 40.75610352 C-2.76819125 40.10272559 -0.88013699 39.4352436 1.0078125 38.76757812 C2.80605469 38.15366211 2.80605469 38.15366211 4.640625 37.52734375 C5.74035645 37.14505615 6.84008789 36.76276855 7.97314453 36.36889648 C13.58020341 35.10425386 18.2571823 36.90509986 23.58984375 38.6875 C24.78416016 39.08582031 25.97847656 39.48414063 27.20898438 39.89453125 C28.44197266 40.31089844 29.67496094 40.72726563 30.9453125 41.15625 C32.19763672 41.57261719 33.44996094 41.98898438 34.74023438 42.41796875 C43.99931122 45.52274872 43.99931122 45.52274872 45.1328125 46.65625 C45.17362033 48.65583364 45.17535606 50.65670254 45.1328125 52.65625 C41.8328125 52.32625 38.5328125 51.99625 35.1328125 51.65625 C35.1328125 50.66625 35.1328125 49.67625 35.1328125 48.65625 C37.4428125 48.98625 39.7528125 49.31625 42.1328125 49.65625 C42.6278125 48.66625 42.6278125 48.66625 43.1328125 47.65625 C42.46378906 47.50929687 41.79476562 47.36234375 41.10546875 47.2109375 C36.26712123 46.08090734 31.57956252 44.89026921 26.97265625 43.015625 C17.59844486 39.22537232 11.88261501 37.78628998 2.1328125 41.65625 C0.16275223 42.34508226 -1.81421927 43.00966035 -3.79443359 43.66870117 C-5.71065923 44.31217505 -7.61550513 44.98924651 -9.51953125 45.66796875 C-12.53790809 46.55904149 -14.75553249 46.87471534 -17.8671875 46.65625 C-17.8671875 45.00625 -17.8671875 43.35625 -17.8671875 41.65625 C-12.02044833 38.89233694 -6.07909926 36.57577857 0.0078125 34.40625 C0.75732178 34.13603027 1.50683105 33.86581055 2.27905273 33.58740234 C5.347017 32.50818406 7.85615454 31.65625 11.1328125 31.65625 C11.1328125 25.05625 11.1328125 18.45625 11.1328125 11.65625 C16.3955171 12.53336743 19.46402794 13.5086091 24.1328125 15.65625 C24.1328125 14.99625 24.1328125 14.33625 24.1328125 13.65625 C23.2761499 13.38965576 22.4194873 13.12306152 21.53686523 12.84838867 C18.0952796 11.64310555 14.93787133 10.19308922 11.66796875 8.58203125 C10.44377171 7.99068209 9.21914893 7.40021362 7.99414062 6.81054688 C6.08980577 5.89044185 4.18864586 4.96544108 2.29418945 4.02514648 C0.44708889 3.11104092 -1.40976223 2.22001919 -3.26953125 1.33203125 C-4.36773193 0.79489502 -5.46593262 0.25775879 -6.59741211 -0.2956543 C-11.74126969 -1.94446939 -16.19865905 -0.81334576 -21.12890625 1.1015625 C-21.85529297 1.37355469 -22.58167969 1.64554688 -23.33007812 1.92578125 C-24.82598013 2.50102715 -26.32075831 3.07920321 -27.81445312 3.66015625 C-28.53697266 3.92957031 -29.25949219 4.19898438 -30.00390625 4.4765625 C-30.65061279 4.72680176 -31.29731934 4.97704102 -31.96362305 5.23486328 C-34.2377414 5.73827848 -35.67569089 5.37123223 -37.8671875 4.65625 C-37.5371875 3.99625 -37.2071875 3.33625 -36.8671875 2.65625 C-35.20404032 2.30577837 -33.53618321 1.97771883 -31.8671875 1.65625 C-30.53887257 1.19700313 -29.21901988 0.71289713 -27.90625 0.2109375 C-27.18695313 -0.06105469 -26.46765625 -0.33304688 -25.7265625 -0.61328125 C-24.24115424 -1.18199525 -22.75930292 -1.76009104 -21.28125 -2.34765625 C-20.559375 -2.61707031 -19.8375 -2.88648438 -19.09375 -3.1640625 C-18.45002441 -3.41430176 -17.80629883 -3.66454102 -17.14306641 -3.92236328 C-10.91512755 -5.07548734 -5.49837498 -2.5761895 0 0 Z " fill="#2D1D05" transform="translate(372.8671875,200.34375)"/>
<path d="M0 0 C0.53602933 7.85183707 -1.47233723 14.99415122 -3.375 22.5625 C-7.54773992 39.07262916 -7.54773992 39.07262916 -9 56 C4.38432676 46.27017637 12.03291179 25.66013412 19.4375 11.2890625 C19.98265259 10.23900024 19.98265259 10.23900024 20.53881836 9.16772461 C21.20237217 7.88413649 21.85740021 6.59609061 22.50219727 5.30297852 C24.66726432 1.11091189 24.66726432 1.11091189 28 0 C26.31726305 5.76528624 23.68867437 10.96702182 21 16.3125 C20.51233154 17.28292236 20.02466309 18.25334473 19.5222168 19.25317383 C2.28095999 53.1922827 2.28095999 53.1922827 -7 59 C-9.16968209 58.75203633 -10.44233607 58.55766393 -12 57 C-13.43311871 46.38082533 -10.16410109 35.33271935 -8 25 C-8.94875 24.71125 -9.8975 24.4225 -10.875 24.125 C-14 23 -14 23 -16 21 C-16.81263726 14.22802282 -14.57386251 9.54962532 -10.69140625 4.1953125 C-7.01850067 -0.36039828 -5.65236662 -1.33871841 0 0 Z M-6.5 3.21484375 C-10.49476078 7.80257684 -12.48129188 12.12499752 -14 18 C-12.27144074 20.14567913 -12.27144074 20.14567913 -10 22 C-7.8813003 21.67893704 -7.8813003 21.67893704 -6 21 C-5.3306277 18.20895657 -4.66438908 15.41722977 -4 12.625 C-3.80921875 11.8309375 -3.6184375 11.036875 -3.421875 10.21875 C-3.24140625 9.45820313 -3.0609375 8.69765625 -2.875 7.9140625 C-2.62363281 6.8614624 -2.62363281 6.8614624 -2.3671875 5.78759766 C-1.93293084 3.97763707 -1.93293084 3.97763707 -2 2 C-4.93315575 1.68531357 -4.93315575 1.68531357 -6.5 3.21484375 Z " fill="#0A0A0A" transform="translate(221,260)"/>
<path d="M0 0 C33.99 0 67.98 0 103 0 C103.64954583 13.64046235 104.14085088 27.13604007 104.09765625 40.76953125 C104.09578302 42.55555684 104.09436342 44.34158296 104.09336853 46.12760925 C104.08961443 50.74858102 104.07984819 55.36951956 104.06866455 59.99047852 C104.05829431 64.7377884 104.05383805 69.48510384 104.04882812 74.23242188 C104.03821679 83.48829556 104.02123002 92.74414498 104 102 C103.67 102 103.34 102 103 102 C101.85996354 69.00859109 101.48437547 36.00672871 101 3 C68.33 2.67 35.66 2.34 2 2 C2 5.63 2 9.26 2 13 C3.98 12.67 5.96 12.34 8 12 C8 11.34 8 10.68 8 10 C13.02416822 6.65055452 17.09951257 6.90165854 23 7 C19.53362755 9.31091497 15.93072245 10.71570542 12.0625 12.1875 C11.34642578 12.47302734 10.63035156 12.75855469 9.89257812 13.05273438 C5.90342069 14.57223735 4.25651126 15.06412781 0 14 C0 9.38 0 4.76 0 0 Z " fill="#F6E085" transform="translate(335,189)"/>
<path d="M0 0 C0.66 0.33 1.32 0.66 2 1 C2.40353287 6.10222315 1.08143664 9.40833101 -1.2578125 13.80859375 C-5.32396231 21.97781663 -7.17920037 30.14746785 -8.875 39.0625 C-9.17015262 40.53354975 -9.46702312 42.00425589 -9.765625 43.47460938 C-10.93885242 49.30114545 -12.04665083 55.13301945 -13 61 C-13.99 61 -14.98 61 -16 61 C-15.38641858 52.19828026 -13.70450615 43.64045258 -12 35 C-12.598125 35.78375 -13.19625 36.5675 -13.8125 37.375 C-16 40 -16 40 -19 42 C-21.6875 41.625 -21.6875 41.625 -24 41 C-24.0270043 39.54176788 -24.04639787 38.08339325 -24.0625 36.625 C-24.07410156 35.81289063 -24.08570313 35.00078125 -24.09765625 34.1640625 C-24 32 -24 32 -23 30 C-22.34 30 -21.68 30 -21 30 C-21.33 32.97 -21.66 35.94 -22 39 C-17.98767259 36.88238276 -15.77722921 34.5433614 -13 31 C-12.34 31 -11.68 31 -11 31 C-10.80889648 30.23856689 -10.61779297 29.47713379 -10.42089844 28.69262695 C-9.54373638 25.22910349 -8.64709959 21.77091046 -7.75 18.3125 C-7.44964844 17.11431641 -7.14929688 15.91613281 -6.83984375 14.68164062 C-6.53691406 13.52470703 -6.23398437 12.36777344 -5.921875 11.17578125 C-5.64956055 10.11270752 -5.37724609 9.04963379 -5.09667969 7.9543457 C-3.88984969 4.70326606 -2.29246985 2.57798655 0 0 Z " fill="#090909" transform="translate(265,261)"/>
<path d="M0 0 C-2.09287126 3.13930689 -2.48019057 3.45645668 -5.80859375 4.60546875 C-6.55560547 4.86650391 -7.30261719 5.12753906 -8.07226562 5.39648438 C-8.85279297 5.65751953 -9.63332031 5.91855469 -10.4375 6.1875 C-11.21416016 6.46013672 -11.99082031 6.73277344 -12.79101562 7.01367188 C-18.57078242 9 -18.57078242 9 -22 9 C-22 9.66 -22 10.32 -22 11 C-21.19175781 10.71125 -20.38351562 10.4225 -19.55078125 10.125 C-18.48214844 9.75375 -17.41351563 9.3825 -16.3125 9 C-15.25675781 8.62875 -14.20101563 8.2575 -13.11328125 7.875 C-10 7 -10 7 -5 7 C-5 22.84 -5 38.68 -5 55 C-5.66 54.34 -6.32 53.68 -7 53 C-9.41475126 53.93906993 -11.73925087 54.85332862 -14 56.125 C-16.44288623 57.19376273 -18.36175261 57.1465693 -21 57 C-20.443125 56.731875 -19.88625 56.46375 -19.3125 56.1875 C-16.92119421 55.00911317 -16.92119421 55.00911317 -14.5 53.375 C-12 52 -12 52 -8 52 C-8 38.14 -8 24.28 -8 10 C-11.96 11.32 -15.92 12.64 -20 14 C-21.65 14 -23.3 14 -25 14 C-25 12.02 -25 10.04 -25 8 C-20.14791686 5.74767499 -15.25131901 3.65009406 -10.25 1.75 C-9.36828125 1.41484375 -8.4865625 1.0796875 -7.578125 0.734375 C-4.92310821 -0.02190251 -2.7451286 -0.13824389 0 0 Z " fill="#161614" transform="translate(337,205)"/>
<path d="M0 0 C0.66 0 1.32 0 2 0 C2.68714393 5.0390555 1.77419213 7.68373492 -0.75390625 12.08203125 C-4.97891893 20.29094855 -6.52396716 28.94210266 -8.3125 37.9375 C-8.66057758 39.62336387 -9.01017804 41.30891405 -9.36132812 42.99414062 C-10.25986549 47.32576811 -11.13468077 51.66161554 -12 56 C-12.29813599 57.48995483 -12.29813599 57.48995483 -12.60229492 59.01000977 C-12.7335376 59.66670654 -12.86478027 60.32340332 -13 61 C-13.66 61 -14.32 61 -15 61 C-15.18693543 54.58627719 -14.61415448 48.96022737 -13.171875 42.72265625 C-12.98159729 41.87126572 -12.79131958 41.01987518 -12.59527588 40.14268494 C-12.19304628 38.35423415 -11.78605783 36.56684753 -11.37451172 34.78051758 C-10.75308723 32.07593633 -10.15089944 29.36758191 -9.55078125 26.65820312 C-4.5861848 4.5861848 -4.5861848 4.5861848 0 0 Z " fill="#090909" transform="translate(273,261)"/>
<path d="M0 0 C3.26421243 2.66466321 4.59495738 4.12542259 5.47265625 8.1875 C5.73276002 12.13574181 5.33575289 15.20497142 3.0625 18.5 C-0.88682427 21.72393818 -3.95706396 22.40343488 -9 22 C-12.68489434 20.47797842 -15.20815609 18.58368781 -17 15 C-17.66786547 11.15426919 -17.87752866 7.62057017 -15.98046875 4.1171875 C-11.47367965 -1.51970279 -6.60198485 -1.83838107 0 0 Z M-14 6 C-14.71534153 9.14404141 -14.71534153 11.85595859 -14 15 C-11.45528778 18.06862356 -9.91058019 18.84823663 -6 19.5 C-2.08941981 18.84823663 -0.54471222 18.06862356 2 15 C2.71534153 11.85595859 2.71534153 9.14404141 2 6 C-0.54471222 2.93137644 -2.08941981 2.15176337 -6 1.5 C-9.91058019 2.15176337 -11.45528778 2.93137644 -14 6 Z " fill="#090909" transform="translate(151,237)"/>
<path d="M0 0 C3.03522895 1.63435405 5.28352297 3.055553 7.375 5.8125 C8.59336757 10.0767865 8.57421095 13.67024833 6.8125 17.75 C4.62644486 20.46372362 3.26790683 21.72125385 0 23 C-4.82893257 23.29851583 -8.06443442 22.68218324 -12 19.8125 C-14.26133686 16.63249504 -14.92066185 14.8875694 -15 11 C-14.01258061 6.51173003 -12.56108978 3.91361891 -9 1 C-5.64870516 -0.11709828 -3.51689744 -0.34479387 0 0 Z M-11 7 C-12.33660145 10.35592863 -12.33660145 10.35592863 -12 14 C-10.17331062 17.57537156 -10.17331062 17.57537156 -7 20 C-3.5 20.91666667 -3.5 20.91666667 0 20 C3.69186542 17.40783917 4.82883761 15.95850936 5.625 11.5 C4.83397068 7.0702358 3.63525215 5.60789828 0 3 C-4.97760738 2.06669862 -7.64509796 3.26168058 -11 7 Z " fill="#060606" transform="translate(113,236)"/>
<path d="M0 0 C12.46043906 -0.37011205 12.46043906 -0.37011205 14.890625 1.296875 C16.78875154 4.21090026 16.41255316 6.64063859 16 10 C14 12.4375 14 12.4375 12 14 C12.66 14.78375 13.32 15.5675 14 16.375 C16 19 16 19 16 21 C13.20171644 20.61402985 12.1794116 20.19863427 10.25 18.0625 C9 16 9 16 9 14 C7.02 14 5.04 14 3 14 C3 16.31 3 18.62 3 21 C2.01 21 1.02 21 0 21 C0 14.07 0 7.14 0 0 Z M3 2 C3 4.97 3 7.94 3 11 C7.0100934 11.17864631 7.0100934 11.17864631 11 11 C13.23845015 9.17084359 13.23845015 9.17084359 13.3125 6.5 C13.209375 5.675 13.10625 4.85 13 4 C9.3558226 1.5705484 7.28758728 1.83820425 3 2 Z " fill="#060606" transform="translate(69,237)"/>
<path d="M0 0 C0.86625 0.7115625 0.86625 0.7115625 1.75 1.4375 C0.5434375 2.3346875 0.5434375 2.3346875 -0.6875 3.25 C-3.47327984 5.24697276 -3.47327984 5.24697276 -4.25 8.4375 C-9.86 8.4375 -15.47 8.4375 -21.25 8.4375 C-20.92 6.7875 -20.59 5.1375 -20.25 3.4375 C-17.02208445 1.2855563 -15.96599191 1.23663557 -12.25 1.4375 C-11.92 0.4475 -11.59 -0.5425 -11.25 -1.5625 C-6.58409944 -2.72897514 -3.99490594 -2.77424024 0 0 Z " fill="#F6DB6A" transform="translate(371.25,265.5625)"/>
<path d="M0 0 C1.9375 1.375 1.9375 1.375 3 3 C3 3.99 3 4.98 3 6 C2.01 5.67 1.02 5.34 0 5 C0 4.34 0 3.68 0 3 C-2.64 3 -5.28 3 -8 3 C-8 4.32 -8 5.64 -8 7 C-7.30132812 7.25394531 -6.60265625 7.50789062 -5.8828125 7.76953125 C-4.51769531 8.28580078 -4.51769531 8.28580078 -3.125 8.8125 C-2.22007812 9.14894531 -1.31515625 9.48539063 -0.3828125 9.83203125 C2 11 2 11 4 14 C3.84549572 17.09008561 3.43226549 18.53571484 1.3125 20.8125 C-2.32625511 22.68104992 -5.38760256 22.492677 -9.25 21.3125 C-11.58996751 19.55752436 -12.13364225 17.7434662 -13 15 C-12.01 14.67 -11.02 14.34 -10 14 C-9.67 15.32 -9.34 16.64 -9 18 C-6.36 18 -3.72 18 -1 18 C-0.67 16.68 -0.34 15.36 0 14 C-0.69867188 13.73445312 -1.39734375 13.46890625 -2.1171875 13.1953125 C-3.02726563 12.84210938 -3.93734375 12.48890625 -4.875 12.125 C-5.77992188 11.77695313 -6.68484375 11.42890625 -7.6171875 11.0703125 C-10 10 -10 10 -12 8 C-12.4375 5.0625 -12.4375 5.0625 -12 2 C-8.14738468 -1.61912349 -4.93293103 -1.27890805 0 0 Z " fill="#0A0A0A" transform="translate(182,237)"/>
<path d="M0 0 C3.73069283 0.74613857 6.57404607 1.53173403 10 3 C10 3.66 10 4.32 10 5 C7.69 4.34 5.38 3.68 3 3 C2.91925797 5.62561109 2.8596377 8.24875676 2.8125 10.875 C2.78736328 11.62136719 2.76222656 12.36773437 2.73632812 13.13671875 C2.6701236 15.56221828 2.6701236 15.56221828 3 19 C3.99 19.66 4.98 20.32 6 21 C3.66264759 21.65445868 1.47628479 22.0555666 -0.9453125 22.3125 C-6.24886624 23.05315798 -11.24650633 24.88270564 -16.3125 26.5625 C-18.28692913 27.21216728 -20.26215187 27.85942922 -22.23828125 28.50390625 C-23.10493408 28.79080322 -23.97158691 29.0777002 -24.86450195 29.37329102 C-27 30 -27 30 -29 30 C-28.505 28.515 -28.505 28.515 -28 27 C-25.53149414 25.83325195 -25.53149414 25.83325195 -22.28515625 24.73828125 C-21.12435547 24.34189453 -19.96355469 23.94550781 -18.76757812 23.53710938 C-16.93356445 22.93092773 -16.93356445 22.93092773 -15.0625 22.3125 C-13.84369141 21.89677734 -12.62488281 21.48105469 -11.36914062 21.05273438 C-2.3312423 18 -2.3312423 18 0 18 C0 12.06 0 6.12 0 0 Z " fill="#E3CC6D" transform="translate(386,215)"/>
<path d="M0 0 C4.29 0 8.58 0 13 0 C13 0.66 13 1.32 13 2 C9.7 2 6.4 2 3 2 C3 4.31 3 6.62 3 9 C6.3 9 9.6 9 13 9 C12.67 9.99 12.34 10.98 12 12 C9.03 12 6.06 12 3 12 C3 14.31 3 16.62 3 19 C6.63 19 10.26 19 14 19 C14 19.66 14 20.32 14 21 C9.38 21 4.76 21 0 21 C0 14.07 0 7.14 0 0 Z " fill="#0C0C0C" transform="translate(200,237)"/>
<path d="M0 0 C4.29 0 8.58 0 13 0 C13 0.66 13 1.32 13 2 C9.7 2 6.4 2 3 2 C3 4.31 3 6.62 3 9 C6.3 9 9.6 9 13 9 C12.67 9.99 12.34 10.98 12 12 C9.03 12 6.06 12 3 12 C3 14.31 3 16.62 3 19 C6.63 19 10.26 19 14 19 C14 19.66 14 20.32 14 21 C9.38 21 4.76 21 0 21 C0 14.07 0 7.14 0 0 Z " fill="#090909" transform="translate(258,237)"/>
<path d="M0 0 C2.0625 1.75 2.0625 1.75 4.0625 6.75 C-1.5475 6.75 -7.1575 6.75 -12.9375 6.75 C-13.2675 5.43 -13.5975 4.11 -13.9375 2.75 C-14.9275 2.42 -15.9175 2.09 -16.9375 1.75 C-16.9375 1.09 -16.9375 0.43 -16.9375 -0.25 C-11.37723715 -3.2991764 -5.6461008 -2.40259609 0 0 Z " fill="#F6DB6A" transform="translate(393.9375,267.25)"/>
<path d="M0 0 C0.99 0 1.98 0 3 0 C4.98 4.95 6.96 9.9 9 15 C11.51449939 10.0577081 13.86740246 5.1182341 16 0 C16.99 0 17.98 0 19 0 C16.72564796 7.18216433 13.96415819 14.0758202 11 21 C9.12011719 20.74780273 9.12011719 20.74780273 7 20 C5.90332031 18.26586914 5.90332031 18.26586914 5.078125 16.03515625 C4.77519531 15.23529297 4.47226563 14.43542969 4.16015625 13.61132812 C3.85980469 12.77021484 3.55945313 11.92910156 3.25 11.0625 C2.93417969 10.22525391 2.61835938 9.38800781 2.29296875 8.52539062 C0 2.3562128 0 2.3562128 0 0 Z " fill="#0A0A0A" transform="translate(226,237)"/>
<path d="M0 0 C2.53678961 2.34165195 3.52147503 3.9523101 4.4375 7.25 C3.4475 7.25 2.4575 7.25 1.4375 7.25 C1.23125 6.63125 1.025 6.0125 0.8125 5.375 C-1.16532512 2.31836118 -3.07432792 2.10558938 -6.5625 1.25 C-10.90447323 0.41207534 -14.27729871 0.08130874 -18.5625 1.25 C-18.5625 1.91 -18.5625 2.57 -18.5625 3.25 C-17.2425 3.58 -15.9225 3.91 -14.5625 4.25 C-14.8925 5.57 -15.2225 6.89 -15.5625 8.25 C-19.1925 8.25 -22.8225 8.25 -26.5625 8.25 C-26.5625 7.59 -26.5625 6.93 -26.5625 6.25 C-25.5725 6.25 -24.5825 6.25 -23.5625 6.25 C-23.376875 5.321875 -23.19125 4.39375 -23 3.4375 C-21.5625 0.25 -21.5625 0.25 -18.625 -1.6875 C-12.38972137 -3.87897868 -5.8062003 -2.85216857 0 0 Z " fill="#2F1E06" transform="translate(395.5625,265.75)"/>
<path d="M0 0 C0 0.66 0 1.32 0 2 C-19.69768948 2.1194579 -39.31987233 1.96969309 -59 1 C-59 0.67 -59 0.34 -59 0 C-53.49080596 -0.17054293 -47.98143128 -0.3307118 -42.47167969 -0.48217773 C-40.60604173 -0.53481881 -38.74047499 -0.59006288 -36.875 -0.64819336 C-24.51600083 -1.03108261 -12.33379757 -0.90887597 0 0 Z " fill="#FEE843" transform="translate(426,290)"/>
<path d="M0 0 C5.61 0 11.22 0 17 0 C17 0.66 17 1.32 17 2 C14.69 2 12.38 2 10 2 C10 8.27 10 14.54 10 21 C9.01 21 8.02 21 7 21 C7 14.73 7 8.46 7 2 C4.69 2 2.38 2 0 2 C0 1.34 0 0.68 0 0 Z " fill="#0D0E0E" transform="translate(311,237)"/>
<path d="M0 0 C1.14726562 0.07605469 2.29453125 0.15210938 3.4765625 0.23046875 C6.375 0.8125 6.375 0.8125 8.375 3.8125 C10.56954681 4.39243699 10.56954681 4.39243699 13 4.5 C13.81726563 4.56574219 14.63453125 4.63148438 15.4765625 4.69921875 C16.10304688 4.73660156 16.72953125 4.77398437 17.375 4.8125 C17.045 5.4725 16.715 6.1325 16.375 6.8125 C10.41796875 7.10546875 10.41796875 7.10546875 8.375 6.8125 C7.89933594 6.30976563 7.42367188 5.80703125 6.93359375 5.2890625 C5.43582395 3.55283176 5.43582395 3.55283176 2.9296875 3.66796875 C1.60324219 3.83232422 1.60324219 3.83232422 0.25 4 C-1.08417969 4.14501953 -1.08417969 4.14501953 -2.4453125 4.29296875 C-3.16460937 4.46441406 -3.88390625 4.63585937 -4.625 4.8125 C-4.955 5.4725 -5.285 6.1325 -5.625 6.8125 C-8.1875 7.4375 -8.1875 7.4375 -10.625 7.8125 C-10.955 7.1525 -11.285 6.4925 -11.625 5.8125 C-12.285 5.4825 -12.945 5.1525 -13.625 4.8125 C-9.42767297 0.19544027 -6.19716651 -0.48262358 0 0 Z " fill="#EFD562" transform="translate(363.625,258.1875)"/>
<path d="M0 0 C0.721875 0.639375 1.44375 1.27875 2.1875 1.9375 C1.1975 3.9175 0.2075 5.8975 -0.8125 7.9375 C-1.8025 7.9375 -2.7925 7.9375 -3.8125 7.9375 C-3.8125 8.5975 -3.8125 9.2575 -3.8125 9.9375 C-4.4725 9.9375 -5.1325 9.9375 -5.8125 9.9375 C-5.41446439 7.05174181 -5.02240931 6.11560487 -2.75 4.1875 C-2.110625 3.775 -1.47125 3.3625 -0.8125 2.9375 C-2.70227175 0.96898776 -4.04958388 -0.04472331 -6.82421875 -0.109375 C-9.28923192 0.11855988 -9.28923192 0.11855988 -12.8125 0.9375 C-13.1425 1.5975 -13.4725 2.2575 -13.8125 2.9375 C-14.92625 3.164375 -16.04 3.39125 -17.1875 3.625 C-20.77231104 4.51883648 -20.77231104 4.51883648 -21.94140625 6.62109375 C-22.87148255 8.77255099 -22.87148255 8.77255099 -23.8125 11.9375 C-24.1425 11.9375 -24.4725 11.9375 -24.8125 11.9375 C-24.0625 5.3125 -24.0625 5.3125 -21.8125 1.9375 C-18.1875 1.25 -18.1875 1.25 -14.8125 0.9375 C-14.4825 -0.0525 -14.1525 -1.0425 -13.8125 -2.0625 C-8.15789169 -3.24602267 -4.75843871 -3.48952172 0 0 Z " fill="#251603" transform="translate(372.8125,264.0625)"/>
<path d="M0 0 C0.33 0 0.66 0 1 0 C1 7.92 1 15.84 1 24 C5.29 24 9.58 24 14 24 C14 24.66 14 25.32 14 26 C8.06 26 2.12 26 -4 26 C-4 25.01 -4 24.02 -4 23 C-3.01 23 -2.02 23 -1 23 C-1.00523682 22.3387915 -1.01047363 21.67758301 -1.01586914 20.99633789 C-1.03657656 18.01840149 -1.04964012 15.04048018 -1.0625 12.0625 C-1.07087891 11.02158203 -1.07925781 9.98066406 -1.08789062 8.90820312 C-1.09111328 7.91884766 -1.09433594 6.92949219 -1.09765625 5.91015625 C-1.10289307 4.99371338 -1.10812988 4.07727051 -1.11352539 3.13305664 C-1 1 -1 1 0 0 Z " fill="#0A0100" transform="translate(409,251)"/>
<path d="M0 0 C0.99 0 1.98 0 3 0 C3 6.27 3 12.54 3 19 C6.63 19 10.26 19 14 19 C14 19.66 14 20.32 14 21 C9.38 21 4.76 21 0 21 C0 14.07 0 7.14 0 0 Z " fill="#0A0B0B" transform="translate(286,237)"/>
<path d="M0 0 C0.66 0 1.32 0 2 0 C2 1.32 2 2.64 2 4 C-7.24 4 -16.48 4 -26 4 C-26 3.34 -26 2.68 -26 2 C-31.28 2 -36.56 2 -42 2 C-42 1.67 -42 1.34 -42 1 C-27.9779359 0.82641186 -14.00641226 1.36511019 0 2 C0 1.34 0 0.68 0 0 Z " fill="#E2CB69" transform="translate(423,275)"/>
<path d="M0 0 C2.89932357 2.39509338 3.50168276 4.31245243 4 8 C5.65 8 7.3 8 9 8 C7.68 7.34 6.36 6.68 5 6 C5.33 5.01 5.66 4.02 6 3 C7.65 3 9.3 3 11 3 C11 5.31 11 7.62 11 10 C7.94736336 10.98120464 6.05263664 10.98120464 3 10 C3 9.34 3 8.68 3 8 C1.35 8 -0.3 8 -2 8 C-2 8.66 -2 9.32 -2 10 C-2.66 10 -3.32 10 -4 10 C-3.52449439 8.51965236 -3.04448784 7.04074979 -2.5625 5.5625 C-2.29566406 4.73878906 -2.02882813 3.91507812 -1.75390625 3.06640625 C-1 1 -1 1 0 0 Z M0 4 C1 7 1 7 1 7 Z M8 4 C8 4.66 8 5.32 8 6 C8.66 5.67 9.32 5.34 10 5 C9.34 4.67 8.68 4.34 8 4 Z " fill="#2E2F2E" transform="translate(372,293)"/>
<path d="M0 0 C1.85786623 3.03125543 1.55883265 5.47172859 1.1875 8.9375 C-0.04296875 10.67578125 -0.04296875 10.67578125 -1.8125 11.9375 C-4.07421875 12.01171875 -4.07421875 12.01171875 -6.5 11.625 C-7.30824219 11.50511719 -8.11648437 11.38523438 -8.94921875 11.26171875 C-9.56410156 11.15472656 -10.17898437 11.04773438 -10.8125 10.9375 C-10.8125 10.6075 -10.8125 10.2775 -10.8125 9.9375 C-9.1109375 9.7209375 -9.1109375 9.7209375 -7.375 9.5 C-4.00472799 9.32578522 -4.00472799 9.32578522 -2.8125 7.9375 C-2.77186168 6.27132885 -2.769779 4.60361905 -2.8125 2.9375 C-7.2675 1.9475 -7.2675 1.9475 -11.8125 0.9375 C-11.8125 4.2375 -11.8125 7.5375 -11.8125 10.9375 C-12.1425 10.9375 -12.4725 10.9375 -12.8125 10.9375 C-12.8125 7.3075 -12.8125 3.6775 -12.8125 -0.0625 C-3.16764019 -1.85689252 -3.16764019 -1.85689252 0 0 Z " fill="#0F0F0F" transform="translate(83.8125,238.0625)"/>
<path d="M0 0 C-6.17233327 2.88729892 -12.37696291 5.26777066 -18.875 7.3125 C-20.13570313 7.72725586 -20.13570313 7.72725586 -21.421875 8.15039062 C-22.22882813 8.40626953 -23.03578125 8.66214844 -23.8671875 8.92578125 C-24.59019043 9.15692627 -25.31319336 9.38807129 -26.05810547 9.6262207 C-28 10 -28 10 -31 9 C-27.27207865 5.27207865 -21.56421272 4.38831787 -16.625 2.8125 C-15.47515625 2.43158203 -14.3253125 2.05066406 -13.140625 1.65820312 C-12.03460938 1.30306641 -10.92859375 0.94792969 -9.7890625 0.58203125 C-8.77537598 0.25436768 -7.76168945 -0.0732959 -6.71728516 -0.41088867 C-3.98861649 -1.00246796 -2.5873538 -0.94586868 0 0 Z " fill="#312408" transform="translate(388,237)"/>
<path d="M0 0 C2.5625 0.1875 2.5625 0.1875 4.5625 2.1875 C4.8925 1.5275 5.2225 0.8675 5.5625 0.1875 C7.5425 0.1875 9.5225 0.1875 11.5625 0.1875 C11.8925 1.1775 12.2225 2.1675 12.5625 3.1875 C10.9125 2.8575 9.2625 2.5275 7.5625 2.1875 C7.5625 3.1775 7.5625 4.1675 7.5625 5.1875 C9.2125 4.8575 10.8625 4.5275 12.5625 4.1875 C12.2325 5.1775 11.9025 6.1675 11.5625 7.1875 C9.6875 8 9.6875 8 7.5625 8.1875 C6.5725 7.5275 5.5825 6.8675 4.5625 6.1875 C3.7375 6.5175 2.9125 6.8475 2.0625 7.1875 C1.2375 7.5175 0.4125 7.8475 -0.4375 8.1875 C-1.4275 7.5275 -2.4175 6.8675 -3.4375 6.1875 C-3.6875 3.625 -3.6875 3.625 -3.4375 1.1875 C-2.4375 0.1875 -2.4375 0.1875 0 0 Z M-0.4375 1.1875 C-1.0975 2.5075 -1.7575 3.8275 -2.4375 5.1875 C-1.1175 5.5175 0.2025 5.8475 1.5625 6.1875 C1.5625 4.8675 1.5625 3.5475 1.5625 2.1875 C0.9025 1.8575 0.2425 1.5275 -0.4375 1.1875 Z " fill="#383838" transform="translate(395.4375,295.8125)"/>
<path d="M0 0 C1.6256807 0.30893932 3.25052748 0.6222695 4.875 0.9375 C5.77992188 1.11152344 6.68484375 1.28554687 7.6171875 1.46484375 C10 2 10 2 12 3 C11.67 3.99 11.34 4.98 11 6 C8.69 5.34 6.38 4.68 4 4 C4 12.25 4 20.5 4 29 C1.36 29 -1.28 29 -4 29 C-4 28.67 -4 28.34 -4 28 C-1.69 28 0.62 28 3 28 C3 19.75 3 11.5 3 3 C2.01 2.67 1.02 2.34 0 2 C0 1.34 0 0.68 0 0 Z " fill="#F5DB79" transform="translate(404,245)"/>
<path d="M0 0 C0.33 0 0.66 0 1 0 C1 14.85 1 29.7 1 45 C-0.65 45 -2.3 45 -4 45 C-4.33 45.99 -4.66 46.98 -5 48 C-6.32 47.34 -7.64 46.68 -9 46 C-5.55930376 43.70620251 -4.27709699 43 0 43 C0 28.81 0 14.62 0 0 Z " fill="#020101" transform="translate(330,215)"/>
<path d="M0 0 C5.2627046 0.87711743 8.33121544 1.8523591 13 4 C13 3.01 13 2.02 13 1 C13.66 1 14.32 1 15 1 C15 2.98 15 4.96 15 7 C10.39146203 6.27991594 6.32762591 4.68704061 2 3 C1.67 8.61 1.34 14.22 1 20 C0.67 20 0.34 20 0 20 C0 13.4 0 6.8 0 0 Z " fill="#3E3211" transform="translate(384,212)"/>
<path d="M0 0 C0.495 0.37125 0.99 0.7425 1.5 1.125 C0.84 2.445 0.18 3.765 -0.5 5.125 C-4.79 5.125 -9.08 5.125 -13.5 5.125 C-13.17 4.465 -12.84 3.805 -12.5 3.125 C-11.84 3.125 -11.18 3.125 -10.5 3.125 C-10.5 2.465 -10.5 1.805 -10.5 1.125 C-3.11538462 -1.09038462 -3.11538462 -1.09038462 0 0 Z " fill="#FCDE5A" transform="translate(364.5,267.875)"/>
<path d="M0 0 C3.73069283 0.74613857 6.57404607 1.53173403 10 3 C10 3.66 10 4.32 10 5 C7.69 4.34 5.38 3.68 3 3 C2.67 8.28 2.34 13.56 2 19 C1.34 19 0.68 19 0 19 C0 12.73 0 6.46 0 0 Z " fill="#CCB555" transform="translate(386,215)"/>
<path d="M0 0 C1.71872989 0.05338578 3.43748002 0.10612413 5.15625 0.15820312 C9.31277039 0.28552812 13.46892078 0.42153469 17.625 0.5625 C17.625 0.8925 17.625 1.2225 17.625 1.5625 C12.77297966 1.73284798 7.92075665 1.89304754 3.06811523 2.04467773 C1.42447351 2.0973678 -0.21908854 2.1526188 -1.86254883 2.21069336 C-12.4521434 2.58276894 -22.81399994 2.50789336 -33.375 1.5625 C-33.375 1.2325 -33.375 0.9025 -33.375 0.5625 C-22.18484849 -0.53770046 -11.21748427 -0.38286046 0 0 Z " fill="#000000" transform="translate(152.375,272.4375)"/>
<path d="M0 0 C0.66 0.33 1.32 0.66 2 1 C1.84402344 1.62648438 1.68804687 2.25296875 1.52734375 2.8984375 C1.33269531 3.71570313 1.13804687 4.53296875 0.9375 5.375 C0.74027344 6.18710937 0.54304687 6.99921875 0.33984375 7.8359375 C-0.22109319 10.04161284 -0.22109319 10.04161284 1 12 C-0.65 12 -2.3 12 -4 12 C-5.11974683 8.53896434 -5.07897784 7.19556417 -3.6875 3.75 C-2 1 -2 1 0 0 Z " fill="#090909" transform="translate(181,261)"/>
<path d="M0 0 C1.51400391 0.01740234 1.51400391 0.01740234 3.05859375 0.03515625 C4.07050781 0.04417969 5.08242188 0.05320313 6.125 0.0625 C7.29869141 0.07990234 7.29869141 0.07990234 8.49609375 0.09765625 C5.0297213 2.40857122 1.4268162 3.81336167 -2.44140625 5.28515625 C-3.15748047 5.57068359 -3.87355469 5.85621094 -4.61132812 6.15039062 C-8.36581893 7.58050714 -10.67238012 8.3394675 -14.50390625 7.09765625 C-14.17390625 5.44765625 -13.84390625 3.79765625 -13.50390625 2.09765625 C-13.17390625 3.41765625 -12.84390625 4.73765625 -12.50390625 6.09765625 C-10.52390625 5.76765625 -8.54390625 5.43765625 -6.50390625 5.09765625 C-6.50390625 4.43765625 -6.50390625 3.77765625 -6.50390625 3.09765625 C-5.51390625 2.43765625 -4.52390625 1.77765625 -3.50390625 1.09765625 C-2.50390625 0.09765625 -2.50390625 0.09765625 0 0 Z " fill="#EBD26B" transform="translate(349.50390625,195.90234375)"/>
<path d="M0 0 C0.33 0.66 0.66 1.32 1 2 C2.051875 1.87625 3.10375 1.7525 4.1875 1.625 C10.70077315 1.55458624 16.34360253 5.10282081 22 8 C18.25890201 9.24703266 17.55570977 8.45460854 14 7 C11.67402489 6.6186926 9.34087842 6.27539746 7 6 C7 5.34 7 4.68 7 4 C3.37114676 3.84850702 3.37114676 3.84850702 0 5 C-0.5625 3.0625 -0.5625 3.0625 -1 1 C-0.67 0.67 -0.34 0.34 0 0 Z " fill="#FBDE60" transform="translate(360,199)"/>
<path d="M0 0 C0.66 0 1.32 0 2 0 C2 1.32 2 2.64 2 4 C3.32 4 4.64 4 6 4 C6 2.68 6 1.36 6 0 C6.66 0 7.32 0 8 0 C8 3.3 8 6.6 8 10 C7.34 10 6.68 10 6 10 C6 8.68 6 7.36 6 6 C4.68 6 3.36 6 2 6 C2 7.32 2 8.64 2 10 C1.34 10 0.68 10 0 10 C0 6.7 0 3.4 0 0 Z " fill="#383737" transform="translate(325,293)"/>
<path d="M0 0 C1.81242052 -0.02687279 3.62495233 -0.04633715 5.4375 -0.0625 C6.44683594 -0.07410156 7.45617187 -0.08570313 8.49609375 -0.09765625 C11 0 11 0 12 1 C12.04080783 2.99958364 12.04254356 5.00045254 12 7 C11.71125 6.360625 11.4225 5.72125 11.125 5.0625 C10.17176549 2.84793921 10.17176549 2.84793921 8 2 C7.67 3.65 7.34 5.3 7 7 C6.34 7 5.68 7 5 7 C4.67 5.35 4.34 3.7 4 2 C3.67 2 3.34 2 3 2 C2.67 3.65 2.34 5.3 2 7 C1.34 7 0.68 7 0 7 C0 4.69 0 2.38 0 0 Z " fill="#292C29" transform="translate(343,296)"/>
<path d="M0 0 C1.48011371 0.30798326 2.95907325 0.621518 4.4375 0.9375 C5.26121094 1.11152344 6.08492188 1.28554687 6.93359375 1.46484375 C9 2 9 2 10 3 C10.04080783 4.99958364 10.04254356 7.00045254 10 9 C6.7 8.67 3.4 8.34 0 8 C0 7.01 0 6.02 0 5 C2.31 5.33 4.62 5.66 7 6 C7.33 5.34 7.66 4.68 8 4 C6.865625 3.71125 5.73125 3.4225 4.5625 3.125 C3.386875 2.75375 2.21125 2.3825 1 2 C0.67 1.34 0.34 0.68 0 0 Z " fill="#271904" transform="translate(408,244)"/>
<path d="M0 0 C2.27734375 1.55078125 2.27734375 1.55078125 4 3 C2.20841511 3.02696365 0.41671527 3.04637917 -1.375 3.0625 C-2.37273437 3.07410156 -3.37046875 3.08570313 -4.3984375 3.09765625 C-7 3 -7 3 -9 2 C-8.67 3.65 -8.34 5.3 -8 7 C-8.99 7.495 -8.99 7.495 -10 8 C-10.103125 7.360625 -10.20625 6.72125 -10.3125 6.0625 C-10.539375 5.381875 -10.76625 4.70125 -11 4 C-11.99 3.67 -12.98 3.34 -14 3 C-14 2.34 -14 1.68 -14 1 C-9.40639475 -1.51907385 -4.95680158 -1.3212226 0 0 Z " fill="#DCC766" transform="translate(391,266)"/>
<path d="M0 0 C0.99 0 1.98 0 3 0 C1.59537227 5.15030167 -1.73181372 8.91335027 -6 12 C-8.9375 11.9375 -8.9375 11.9375 -11 11 C-10.443125 10.608125 -9.88625 10.21625 -9.3125 9.8125 C-5.63239982 6.92809715 -2.59511485 3.89267228 0 0 Z " fill="#111112" transform="translate(320,292)"/>
<path d="M0 0 C5.94 0.33 11.88 0.66 18 1 C18 1.66 18 2.32 18 3 C12.06 3 6.12 3 0 3 C0 2.01 0 1.02 0 0 Z " fill="#211500" transform="translate(405,274)"/>
<path d="M0 0 C0.66 0 1.32 0 2 0 C2 1.65 2 3.3 2 5 C1.34 5 0.68 5 0 5 C-0.103125 5.763125 -0.20625 6.52625 -0.3125 7.3125 C-1.04364039 10.17059424 -1.76951913 11.15742885 -4 13 C-4.45374191 7.32822615 -3.65083143 4.4024732 0 0 Z " fill="#111111" transform="translate(273,261)"/>
<path d="M0 0 C0.66 0 1.32 0 2 0 C2 0.66 2 1.32 2 2 C3.32 2.33 4.64 2.66 6 3 C6 3.99 6 4.98 6 6 C2.7 6 -0.6 6 -4 6 C-4 5.34 -4 4.68 -4 4 C-3.01 4 -2.02 4 -1 4 C-0.67 2.68 -0.34 1.36 0 0 Z " fill="#E9D36D" transform="translate(373,268)"/>
<path d="M0 0 C0.78375 0.04125 1.5675 0.0825 2.375 0.125 C2.705 1.445 3.035 2.765 3.375 4.125 C1.725 4.455 0.075 4.785 -1.625 5.125 C0.025 5.125 1.675 5.125 3.375 5.125 C2.125 6.6875 2.125 6.6875 0.375 8.125 C-1.8125 7.8125 -1.8125 7.8125 -3.625 7.125 C-4.25 4.75 -4.25 4.75 -4.625 2.125 C-2.625 0.125 -2.625 0.125 0 0 Z M-1.625 1.125 C-1.955 1.785 -2.285 2.445 -2.625 3.125 C-1.305 2.795 0.015 2.465 1.375 2.125 C0.385 1.795 -0.605 1.465 -1.625 1.125 Z " fill="#343433" transform="translate(360.625,295.875)"/>
<path d="M0 0 C1.65 0 3.3 0 5 0 C5.93065133 2.60582371 6.14917407 3.64198224 5.0625 6.25 C4.5365625 7.11625 4.5365625 7.11625 4 8 C1.525 7.01 1.525 7.01 -1 6 C0.32 5.67 1.64 5.34 3 5 C2.01 4.67 1.02 4.34 0 4 C0 2.68 0 1.36 0 0 Z M2 1 C2 1.66 2 2.32 2 3 C2.66 2.67 3.32 2.34 4 2 C3.34 1.67 2.68 1.34 2 1 Z " fill="#373834" transform="translate(385,296)"/>
<path d="M0 0 C2.4375 0.1875 2.4375 0.1875 3.4375 1.1875 C3.47813832 2.85367115 3.480221 4.52138095 3.4375 6.1875 C1.625 7.25 1.625 7.25 -0.5625 8.1875 C-1.5525 7.8575 -2.5425 7.5275 -3.5625 7.1875 C-4.1875 4.8125 -4.1875 4.8125 -4.5625 2.1875 C-2.5625 0.1875 -2.5625 0.1875 0 0 Z M-1.5625 1.1875 C-1.8925 2.5075 -2.2225 3.8275 -2.5625 5.1875 C-1.2425 5.5175 0.0775 5.8475 1.4375 6.1875 C1.7675 5.1975 2.0975 4.2075 2.4375 3.1875 C1.1175 2.5275 -0.2025 1.8675 -1.5625 1.1875 Z " fill="#343337" transform="translate(433.5625,295.8125)"/>
<path d="M0 0 C1.66611905 -0.042721 3.33382885 -0.04063832 5 0 C6 1 6 1 6.0625 4.0625 C6.041875 5.031875 6.02125 6.00125 6 7 C4.02 7 2.04 7 0 7 C-1.04449911 3.86650268 -0.93423645 3.01031744 0 0 Z M2 1 C1.67 1.66 1.34 2.32 1 3 C1.99 3 2.98 3 4 3 C4 2.34 4 1.68 4 1 C3.34 1 2.68 1 2 1 Z M1 4 C1 4.66 1 5.32 1 6 C1.99 6 2.98 6 4 6 C4 5.34 4 4.68 4 4 C3.01 4 2.02 4 1 4 Z " fill="#3A3B3B" transform="translate(413,296)"/>
<path d="M0 0 C2.4375 0.1875 2.4375 0.1875 3.4375 1.1875 C3.47813832 2.85367115 3.480221 4.52138095 3.4375 6.1875 C1.625 7.25 1.625 7.25 -0.5625 8.1875 C-1.5525 7.8575 -2.5425 7.5275 -3.5625 7.1875 C-4.1875 4.8125 -4.1875 4.8125 -4.5625 2.1875 C-2.5625 0.1875 -2.5625 0.1875 0 0 Z M-1.5625 1.1875 C-1.8925 2.5075 -2.2225 3.8275 -2.5625 5.1875 C-1.2425 5.5175 0.0775 5.8475 1.4375 6.1875 C1.7675 5.1975 2.0975 4.2075 2.4375 3.1875 C1.1175 2.5275 -0.2025 1.8675 -1.5625 1.1875 Z " fill="#272727" transform="translate(338.5625,295.8125)"/>
<path d="M0 0 C0.33 0 0.66 0 1 0 C1.22786458 2.01822917 1.45572917 4.03645833 1.68359375 6.0546875 C1.91292961 8.07404316 1.91292961 8.07404316 3 10 C2.34 10 1.68 10 1 10 C1.309375 11.1446875 1.309375 11.1446875 1.625 12.3125 C2 15 2 15 0 18 C-2.58476417 12.83047166 -0.93847483 5.51353963 0 0 Z " fill="#030303" transform="translate(201,238)"/>
<path d="M0 0 C-2.57146057 2.57146057 -4.6050417 2.80117997 -8.125 3.625 C-9.22070312 3.88539063 -10.31640625 4.14578125 -11.4453125 4.4140625 C-12.28835938 4.60742188 -13.13140625 4.80078125 -14 5 C-13 2 -13 2 -11.07421875 1.015625 C-9.89279297 0.63664063 -9.89279297 0.63664063 -8.6875 0.25 C-7.51767578 -0.14445313 -7.51767578 -0.14445313 -6.32421875 -0.546875 C-3.83078909 -1.03298902 -2.3818103 -0.80665429 0 0 Z " fill="#E2CD77" transform="translate(371,240)"/>
<path d="M0 0 C1.65 0 3.3 0 5 0 C6.0326802 2.78823655 6.04509293 3.8677274 5.0625 6.75 C4.711875 7.4925 4.36125 8.235 4 9 C3.34 8.01 2.68 7.02 2 6 C2.66 5.01 3.32 4.02 4 3 C2.35 3 0.7 3 -1 3 C-0.67 2.01 -0.34 1.02 0 0 Z " fill="#030303" transform="translate(274,288)"/>
<path d="M0 0 C0.5625 1.9375 0.5625 1.9375 1 4 C0 5 0 5 -3.0625 5.0625 C-4.031875 5.041875 -5.00125 5.02125 -6 5 C-6 5.66 -6 6.32 -6 7 C-7.98 7.99 -7.98 7.99 -10 9 C-9.34 7.35 -8.68 5.7 -8 4 C-4.535 3.505 -4.535 3.505 -1 3 C-0.67 2.01 -0.34 1.02 0 0 Z " fill="#DEC866" transform="translate(360,264)"/>
<path d="M0 0 C1.6256807 0.30893932 3.25052748 0.6222695 4.875 0.9375 C5.77992188 1.11152344 6.68484375 1.28554687 7.6171875 1.46484375 C10 2 10 2 12 3 C11.67 3.99 11.34 4.98 11 6 C8.69 5.34 6.38 4.68 4 4 C4 3.34 4 2.68 4 2 C2.68 2 1.36 2 0 2 C0 1.34 0 0.68 0 0 Z " fill="#E5CF6C" transform="translate(404,245)"/>
<path d="M0 0 C1.98 0 3.96 0 6 0 C6.33 2.31 6.66 4.62 7 7 C6.34 7 5.68 7 5 7 C4.67 5.35 4.34 3.7 4 2 C1.48916886 3.25541557 1.12874554 4.50063488 0 7 C0 4.69 0 2.38 0 0 Z " fill="#2C2F2D" transform="translate(439,296)"/>
<path d="M0 0 C0.6875 1.625 0.6875 1.625 1 4 C-0.4375 7.25 -0.4375 7.25 -2 10 C-2.66 9.67 -3.32 9.34 -4 9 C-3.67 6.69 -3.34 4.38 -3 2 C-2.01 2 -1.02 2 0 2 C0 1.34 0 0.68 0 0 Z " fill="#111111" transform="translate(264,264)"/>
<path d="M0 0 C0.99 0 1.98 0 3 0 C2.67 1.98 2.34 3.96 2 6 C1.34 5.34 0.68 4.68 0 4 C-0.66 5.32 -1.32 6.64 -2 8 C-2.66 7.01 -3.32 6.02 -4 5 C-2.1875 2.5 -2.1875 2.5 0 0 Z " fill="#060606" transform="translate(312,285)"/>
<path d="M0 0 C-1.40691607 0.72750788 -2.82606022 1.43140353 -4.25 2.125 C-5.03890625 2.51945313 -5.8278125 2.91390625 -6.640625 3.3203125 C-9 4 -9 4 -11.296875 3.1171875 C-11.85890625 2.74851563 -12.4209375 2.37984375 -13 2 C-11.5882217 1.46605821 -10.17029756 0.94834896 -8.75 0.4375 C-7.96109375 0.14746094 -7.1721875 -0.14257812 -6.359375 -0.44140625 C-3.80896548 -1.04522837 -2.44677771 -0.8473932 0 0 Z " fill="#3F300B" transform="translate(388,237)"/>
<path d="M0 0 C3.48670834 1.1094072 6.77484237 2.26337666 10 4 C10 4.66 10 5.32 10 6 C6.7 5.01 3.4 4.02 0 3 C0 2.01 0 1.02 0 0 Z " fill="#E3CE75" transform="translate(387,210)"/>
<path d="M0 0 C0.66 0 1.32 0 2 0 C3.07421875 5.95703125 3.07421875 5.95703125 3 8 C2.01 8.99 1.02 9.98 0 11 C0 7.37 0 3.74 0 0 Z " fill="#040404" transform="translate(209,306)"/>
<path d="M0 0 C0.66 0.33 1.32 0.66 2 1 C1.34 3.31 0.68 5.62 0 8 C-0.66 8 -1.32 8 -2 8 C-2 8.66 -2 9.32 -2 10 C-2.66 10 -3.32 10 -4 10 C-3.52449439 8.51965236 -3.04448784 7.04074979 -2.5625 5.5625 C-2.29566406 4.73878906 -2.02882813 3.91507812 -1.75390625 3.06640625 C-1 1 -1 1 0 0 Z " fill="#434442" transform="translate(372,293)"/>
<path d="M0 0 C3.36939433 0.33693943 5.42910583 1.88819408 8 4 C6.68 4.99 5.36 5.98 4 7 C4 5.68 4 4.36 4 3 C1.03 2.505 1.03 2.505 -2 2 C-1.34 1.34 -0.68 0.68 0 0 Z " fill="#D9C365" transform="translate(365,263)"/>
<path d="M0 0 C3.46941546 0.45822468 6.67395049 0.89131683 10 2 C10.33 2.99 10.66 3.98 11 5 C7.37 4.01 3.74 3.02 0 2 C0 1.34 0 0.68 0 0 Z " fill="#342609" transform="translate(398,241)"/>
<path d="M0 0 C-2.14331139 2.14331139 -3.14086424 2.514193 -6 3.25 C-7.051875 3.53617188 -7.051875 3.53617188 -8.125 3.828125 C-8.74375 3.88484375 -9.3625 3.9415625 -10 4 C-10.66 3.34 -11.32 2.68 -12 2 C-10.56656 1.46809459 -9.12804633 0.94984742 -7.6875 0.4375 C-6.48673828 0.00244141 -6.48673828 0.00244141 -5.26171875 -0.44140625 C-3 -1 -3 -1 0 0 Z " fill="#41340C" transform="translate(381,234)"/>
<path d="M0 0 C2.31 0.66 4.62 1.32 7 2 C7 2.66 7 3.32 7 4 C4.03 4 1.06 4 -2 4 C-1.34 2.68 -0.68 1.36 0 0 Z " fill="#FCDE56" transform="translate(388,269)"/>
<path d="M0 0 C0.33 0.66 0.66 1.32 1 2 C0.06421005 4.35981813 -0.93347808 6.69631264 -2 9 C-2.66 8.34 -3.32 7.68 -4 7 C-3.625 3.875 -3.625 3.875 -3 1 C-2.01 0.67 -1.02 0.34 0 0 Z " fill="#161616" transform="translate(180,264)"/>
<path d="M0 0 C0.66 0 1.32 0 2 0 C2 0.66 2 1.32 2 2 C2.66 2.33 3.32 2.66 4 3 C3.34 3 2.68 3 2 3 C2 4.65 2 6.3 2 8 C2.66 8.33 3.32 8.66 4 9 C2.68 8.67 1.36 8.34 0 8 C-1.125 2.25 -1.125 2.25 0 0 Z " fill="#494A47" transform="translate(421,294)"/>
<path d="M0 0 C1.65 0 3.3 0 5 0 C5 1.98 5 3.96 5 6 C3.02 5.01 1.04 4.02 -1 3 C-0.67 2.01 -0.34 1.02 0 0 Z M2 1 C2 1.66 2 2.32 2 3 C2.66 2.67 3.32 2.34 4 2 C3.34 1.67 2.68 1.34 2 1 Z " fill="#3D3E3E" transform="translate(378,296)"/>
<path d="M0 0 C0.99 0 1.98 0 3 0 C3.33 1.32 3.66 2.64 4 4 C2.35 4.33 0.7 4.66 -1 5 C-1 1 -1 1 0 0 Z " fill="#0B0B0B" transform="translate(175,292)"/>
<path d="M0 0 C1.65 0.33 3.3 0.66 5 1 C5 2.65 5 4.3 5 6 C2.69 5.01 0.38 4.02 -2 3 C-1.34 2.01 -0.68 1.02 0 0 Z " fill="#F2D667" transform="translate(370,196)"/>
<path d="M0 0 C0.66 0 1.32 0 2 0 C2.66 0.99 3.32 1.98 4 3 C6.56282742 3.72965366 6.56282742 3.72965366 9 4 C8.67 4.66 8.34 5.32 8 6 C6.02 6 4.04 6 2 6 C0 2.25 0 2.25 0 0 Z " fill="#EAD261" transform="translate(384,259)"/>
<path d="M0 0 C0.66 0.33 1.32 0.66 2 1 C1.40138258 3.35171131 0.73075648 5.6859378 0 8 C-0.99 8.495 -0.99 8.495 -2 9 C-1.125 1.125 -1.125 1.125 0 0 Z " fill="#111111" transform="translate(134,291)"/>
<path d="M0 0 C0.33 0.99 0.66 1.98 1 3 C0 4 0 4 -2.9375 4.1875 C-6 4 -6 4 -8 2 C-2.25 0 -2.25 0 0 0 Z " fill="#FCE647" transform="translate(434,288)"/>
<path d="M0 0 C1.0625 1.875 1.0625 1.875 2 4 C1.67 4.66 1.34 5.32 1 6 C-1.97 6 -4.94 6 -8 6 C-8 5.67 -8 5.34 -8 5 C-6.02 4.67 -4.04 4.34 -2 4 C-1.67 3.01 -1.34 2.02 -1 1 C-0.67 0.67 -0.34 0.34 0 0 Z " fill="#120F12" transform="translate(326,267)"/>
<path d="M0 0 C-2.1875 2.0625 -2.1875 2.0625 -5 4 C-7.8125 3.75 -7.8125 3.75 -10 3 C-3.94594595 -1.97297297 -3.94594595 -1.97297297 0 0 Z " fill="#F7D86E" transform="translate(366,246)"/>
<path d="M0 0 C1.9375 0.75 1.9375 0.75 4 2 C4.75 4.125 4.75 4.125 5 6 C4.01 6.495 4.01 6.495 3 7 C3 6.01 3 5.02 3 4 C1.68 3.67 0.36 3.34 -1 3 C-0.67 2.01 -0.34 1.02 0 0 Z " fill="#040404" transform="translate(80,237)"/>
<path d="M0 0 C3.96 0.99 3.96 0.99 8 2 C5.24075815 3.80411967 4.11027897 4.0127245 0.75 3.625 C-0.1575 3.41875 -1.065 3.2125 -2 3 C-1.34 2.01 -0.68 1.02 0 0 Z " fill="#F3D76B" transform="translate(384,233)"/>
<path d="M0 0 C3.63 1.65 7.26 3.3 11 5 C8 6 8 6 4.375 4.75 C1 3 1 3 0 0 Z " fill="#EBD268" transform="translate(371,202)"/>
<path d="M0 0 C0 0.99 0 1.98 0 3 C-0.66 3.66 -1.32 4.32 -2 5 C-3.32 5 -4.64 5 -6 5 C-6 4.01 -6 3.02 -6 2 C-4.02 1.34 -2.04 0.68 0 0 Z " fill="#EED161" transform="translate(353,200)"/>
<path d="M0 0 C0.66 0.99 1.32 1.98 2 3 C1.67 3.66 1.34 4.32 1 5 C-1.97 4.01 -4.94 3.02 -8 2 C-5.53925394 0.76962697 -3.7202437 1 -1 1 C-0.67 0.67 -0.34 0.34 0 0 Z " fill="#E7CC5D" transform="translate(366,193)"/>
<path d="M0 0 C1.02104551 0.97850195 2.0206121 1.97980427 3 3 C3 3.33 3 3.66 3 4 C0.03 4 -2.94 4 -6 4 C-5.67 3.34 -5.34 2.68 -5 2 C-3.35 2 -1.7 2 0 2 C0 1.34 0 0.68 0 0 Z " fill="#040404" transform="translate(299,270)"/>
<path d="M0 0 C5.75 1.75 5.75 1.75 8 4 C5 5 5 5 1.8125 3.5625 C0.884375 3.046875 -0.04375 2.53125 -1 2 C-0.67 1.34 -0.34 0.68 0 0 Z " fill="#3A2909" transform="translate(390,209)"/>
<path d="M0 0 C1.2065625 0.0309375 1.2065625 0.0309375 2.4375 0.0625 C2.7675 0.7225 3.0975 1.3825 3.4375 2.0625 C1.7875 2.3925 0.1375 2.7225 -1.5625 3.0625 C-1.8925 4.3825 -2.2225 5.7025 -2.5625 7.0625 C-3.5625 6.0625 -3.5625 6.0625 -3.6875 3.5625 C-3.51717518 0.15600356 -3.41884482 0.08338646 0 0 Z " fill="#40413C" transform="translate(395.5625,295.9375)"/>
<path d="M0 0 C0.99 0.495 0.99 0.495 2 1 C2.40729228 3.32156597 2.74438677 5.6568787 3 8 C2.01 7.67 1.02 7.34 0 7 C0 4.69 0 2.38 0 0 Z " fill="#0F0F0F" transform="translate(96,277)"/>
<path d="M0 0 C0.763125 0.20625 1.52625 0.4125 2.3125 0.625 C1.9825 1.615 1.6525 2.605 1.3125 3.625 C0.3225 3.295 -0.6675 2.965 -1.6875 2.625 C-3.01856622 2.28272583 -4.35150079 1.94748257 -5.6875 1.625 C-2.6875 -0.375 -2.6875 -0.375 0 0 Z " fill="#211802" transform="translate(390.6875,264.375)"/>
<path d="M0 0 C0 0.33 0 0.66 0 1 C-2.97 1 -5.94 1 -9 1 C-9 0.34 -9 -0.32 -9 -1 C-5.79937313 -2.60031344 -3.27728194 -1.03173691 0 0 Z " fill="#E5CA68" transform="translate(392,240)"/>
<path d="M0 0 C1.32 0 2.64 0 4 0 C3.34 1.65 2.68 3.3 2 5 C1.01 4.67 0.02 4.34 -1 4 C-0.67 2.68 -0.34 1.36 0 0 Z " fill="#050505" transform="translate(100,322)"/>
<path d="M0 0 C0.66 0.66 1.32 1.32 2 2 C1.67 2.66 1.34 3.32 1 4 C0.01 4 -0.98 4 -2 4 C-2 4.66 -2 5.32 -2 6 C-2.66 6 -3.32 6 -4 6 C-3.6875 4.125 -3.6875 4.125 -3 2 C-2.01 1.34 -1.02 0.68 0 0 Z " fill="#382509" transform="translate(371,268)"/>
<path d="M0 0 C2.64 0.99 5.28 1.98 8 3 C8 3.66 8 4.32 8 5 C4.5625 4.1875 4.5625 4.1875 1 3 C0.67 2.01 0.34 1.02 0 0 Z " fill="#E9D069" transform="translate(388,215)"/>
<path d="M0 0 C-2.37783838 2.37783838 -3.72073665 2.59009208 -7 3 C-7.66 2.67 -8.32 2.34 -9 2 C-8.67 1.34 -8.34 0.68 -8 0 C-4.71585695 -0.95067299 -3.30306592 -1.10102197 0 0 Z " fill="#3A2D0E" transform="translate(344,203)"/>
<path d="M0 0 C0.66 0 1.32 0 2 0 C2 2.31 2 4.62 2 7 C1.34 7 0.68 7 0 7 C0 4.69 0 2.38 0 0 Z " fill="#464645" transform="translate(426,296)"/>
<path d="M0 0 C0.66 0 1.32 0 2 0 C2 2.31 2 4.62 2 7 C1.34 7 0.68 7 0 7 C0 4.69 0 2.38 0 0 Z " fill="#545454" transform="translate(409,296)"/>
<path d="M0 0 C0.66 0.66 1.32 1.32 2 2 C0.68 2.33 -0.64 2.66 -2 3 C-1.34 2.01 -0.68 1.02 0 0 Z " fill="#0A0A0A" transform="translate(244,286)"/>
<path d="M0 0 C0.66 0 1.32 0 2 0 C2 0.66 2 1.32 2 2 C1.34 2 0.68 2 0 2 C0 1.34 0 0.68 0 0 Z " fill="#747876" transform="translate(409,293)"/>
<path d="M0 0 C0.66 0 1.32 0 2 0 C2 0.66 2 1.32 2 2 C1.34 2 0.68 2 0 2 C0 1.34 0 0.68 0 0 Z " fill="#6A6E65" transform="translate(426,293)"/>
</svg>
