<?xml version="1.0" encoding="UTF-8" standalone="no"?>
<!-- Created with Inkscape (http://www.inkscape.org/) -->

<svg
   width="210mm"
   height="297mm"
   viewBox="0 0 210 297"
   version="1.1"
   id="svg1"
   xml:space="preserve"
   xmlns:xlink="http://www.w3.org/1999/xlink"
   xmlns="http://www.w3.org/2000/svg"
   xmlns:svg="http://www.w3.org/2000/svg"><defs
     id="defs1"><clipPath
       clipPathUnits="userSpaceOnUse"
       id="clipPath17"><use
         x="0"
         y="0"
         xlink:href="#g16"
         id="use17" /></clipPath></defs><g
     id="layer5"
     style="display:inline;opacity:1;fill:#000000"><g
       id="g20"
       transform="translate(50.51394,-2.9934187)"><g
         id="g21"><g
           id="g17"
           clip-path="url(#clipPath17)"
           style="display:inline;fill:#000000"><g
             id="g16"
             style="fill:#000000"><path
               style="display:inline;fill:#000000;stroke-width:0.264583"
               d="m 69.439231,110.32583 21.294571,-14.802671 7.696178,5.165921 7.41503,-4.955071 7.52047,5.060501 7.55561,-5.271351 21.54226,14.830071 -1.12456,1.72198 -20.34742,-13.846091 -5.44707,3.795371 1.51112,1.22998 3.83052,-2.53024 21.57741,14.65436 -1.19484,1.93283 -20.38257,-13.77581 -1.61655,1.1597 23.15882,15.95463 -1.12456,1.86255 -5.23621,-3.54938 v 12.33561 h -15.04086 v 2.36069 h 18.31401 v 2.36069 H 72.421159 v -2.46009 H 90.88426 v -2.31099 H 75.750977 v -12.44955 l -5.118975,3.70256 -1.192771,-1.76431 23.184487,-16.12725 -1.764308,-1.11823 -20.277108,13.74172 -1.192771,-1.81401 21.445032,-14.66114 3.752257,2.58434 1.71461,-1.24247 -5.491716,-3.801961 -20.152863,13.716861 z"
               id="path5" /><path
               style="display:inline;fill:#ffffff;stroke-width:0.264583"
               d="m 78.082554,117.43442 v 11.42126 h 12.68639 v -9.92772 l -5.060497,3.44396 -1.247556,-1.66927 21.366549,-14.83007 21.50712,14.75979 -1.07184,1.77469 -5.25378,-3.44395 v 9.81783 h 12.84277 V 117.40971 L 106.05158,98.231349 Z"
               id="path11" /><path
               style="display:inline;opacity:1;fill:#000000;stroke-width:0.264583"
               d="m 127.34726,115.54349 -21.32851,-14.79096 -21.626277,14.70984 1.134226,1.81827 20.368641,-13.92039 20.36879,13.97744 z"
               id="path15" /><path
               style="display:inline;opacity:0.808;mix-blend-mode:multiply;fill:#ffd42a;stroke-width:2.27807"
               d="m 105.10406,91.97383 h 42.68719 v 44.09667 h -42.68719 z"
               id="path19-6" /></g></g><g
           id="g19"
           style="fill:#ffffff"
           transform="translate(-16.089626,-13.470384)"><path
             style="fill:#ffffff;stroke-width:0.264583"
             d="m 115.59741,130.30726 h 4.95785 v 5.12155 h -4.95785 z"
             id="path19" /><path
             style="display:inline;fill:#ffffff;stroke-width:0.264583"
             d="m 122.36087,137.1381 h 4.95785 v 5.12155 h -4.95785 z"
             id="path19-7" /><path
             style="display:inline;fill:#ffffff;stroke-width:0.264583"
             d="m 115.55552,137.09132 h 4.95785 v 5.12155 h -4.95785 z"
             id="path19-1" /><path
             style="display:inline;fill:#ffffff;stroke-width:0.264583"
             d="m 122.36087,130.21582 h 4.95785 v 5.12155 h -4.95785 z"
             id="path19-5" /></g></g></g><text
       xml:space="preserve"
       style="font-style:normal;font-variant:normal;font-weight:bold;font-stretch:normal;font-size:14.1111px;font-family:sans-serif;-inkscape-font-specification:'sans-serif Bold';text-align:start;writing-mode:lr-tb;direction:ltr;text-anchor:start;fill:#1a1a1a;stroke-width:0.264583"
       x="18.436495"
       y="117.64668"
       id="text21"><tspan
         id="tspan21"
         style="font-size:14.1111px;fill:#1a1a1a;stroke-width:0.264583"
         x="18.436495"
         y="117.64668">ROOSEVELT</tspan></text><text
       xml:space="preserve"
       style="font-style:normal;font-variant:normal;font-weight:bold;font-stretch:normal;font-size:14.1111px;line-height:0;font-family:sans-serif;-inkscape-font-specification:'sans-serif Bold';text-align:start;writing-mode:lr-tb;direction:ltr;text-anchor:start;fill:#1a1a1a;stroke-width:0.264583"
       x="6.8654776"
       y="132.89903"
       id="text22"><tspan
         id="tspan22"
         style="font-style:normal;font-variant:normal;font-weight:bold;font-stretch:normal;font-size:14.1111px;line-height:0;font-family:sans-serif;-inkscape-font-specification:'sans-serif Bold';stroke-width:0.264583"
         x="6.8654776"
         y="132.89903">PARK VILLAGE</tspan></text><text
       xml:space="preserve"
       style="font-style:normal;font-variant:normal;font-weight:bold;font-stretch:normal;font-size:8.46667px;line-height:0;font-family:sans-serif;-inkscape-font-specification:'sans-serif Bold';text-align:start;writing-mode:lr-tb;direction:ltr;text-anchor:start;fill:#1a1a1a;stroke-width:0.264583"
       x="105.03958"
       y="141.55208"
       id="text23"><tspan
         id="tspan23"
         style="font-size:8.46667px;stroke-width:0.264583"
         x="105.03958"
         y="141.55208">HOME ASSOCIATION</tspan></text></g></svg>
